<?xml version="1.0" encoding="UTF-8"?>
<svg width="165px" height="30px" viewBox="0 0 165 30" version="1.1" xmlns="http://www.w3.org/2000/svg" xmlns:xlink="http://www.w3.org/1999/xlink">
    <!-- Generator: Sketch 55.2 (78181) - https://sketchapp.com -->
    <title>RAHULJAIN</title>
    <desc>Created with Sketch.</desc>
    <g id="Page-1" stroke="none" stroke-width="1" fill="none" fill-rule="evenodd">
        <path d="M4.26183844,4.01114206 L4.26183844,13.2869081 L6.68523677,13.2869081 C7.43732967,13.2869081 8.03620947,13.1824523 8.48189415,12.9735376 C8.92757883,12.7646229 9.27576476,12.465183 9.5264624,12.0752089 C9.74930474,11.6852348 9.90250655,11.2047382 9.98607242,10.6337047 C10.0696383,10.0626712 10.1114206,9.40111797 10.1114206,8.64902507 C10.1114206,7.89693217 10.0696383,7.2353789 9.98607242,6.6643454 C9.90250655,6.09331191 9.7353773,5.59888788 9.48467967,5.1810585 C8.95542911,4.40111031 7.95265362,4.01114206 6.47632312,4.01114206 L4.26183844,4.01114206 Z M7.10542736e-15,29.7493036 L7.10542736e-15,0 L6.85236769,0 C11.8663203,0 14.3732591,2.9108344 14.3732591,8.73259053 C14.3732591,10.487474 14.101674,11.9777097 13.5584958,13.2033426 C13.0153176,14.4289755 12.0612882,15.4178235 10.6963788,16.1699164 L15.2924791,29.7493036 L10.7799443,29.7493036 L6.81058496,17.0473538 L4.26183844,17.0473538 L4.26183844,29.7493036 L7.10542736e-15,29.7493036 Z M28.2233257,19.3454039 L26.1341892,8.56545961 L26.0506237,8.56545961 L23.9614872,19.3454039 L28.2233257,19.3454039 Z M17.6940778,29.7493036 L24.3375318,0 L27.8890638,0 L34.5325179,29.7493036 L30.2706794,29.7493036 L29.0171975,23.356546 L23.2093981,23.356546 L21.9559162,29.7493036 L17.6940778,29.7493036 Z M38.4382948,29.7493036 L38.4382948,0 L42.7001332,0 L42.7001332,12.7437326 L47.9647572,12.7437326 L47.9647572,0 L52.2265956,0 L52.2265956,29.7493036 L47.9647572,29.7493036 L47.9647572,16.5041783 L42.7001332,16.5041783 L42.7001332,29.7493036 L38.4382948,29.7493036 Z M71.8426789,0 L71.8426789,23.0640669 C71.8426789,24.0390021 71.668586,24.9373218 71.3203948,25.7590529 C70.9722037,26.5807841 70.4777796,27.3119745 69.8371079,27.9526462 C69.1964362,28.593318 68.458282,29.0947057 67.6226232,29.4568245 C66.7869645,29.8189433 65.8956085,30 64.9485285,30 C64.0014486,30 63.1170563,29.8189433 62.2953252,29.4568245 C61.4735941,29.0947057 60.7424036,28.593318 60.1017319,27.9526462 C59.4610601,27.3119745 58.9596724,26.5807841 58.5975536,25.7590529 C58.2354348,24.9373218 58.0543781,24.0390021 58.0543781,23.0640669 L58.0543781,0 L62.3162165,0 L62.3162165,22.6462396 C62.3162165,23.7047407 62.5669104,24.4846772 63.0683057,24.9860724 C63.5697009,25.4874677 64.1964356,25.7381616 64.9485285,25.7381616 C65.7006214,25.7381616 66.3273561,25.4874677 66.8287514,24.9860724 C67.3301466,24.4846772 67.5808405,23.7047407 67.5808405,22.6462396 L67.5808405,0 L71.8426789,0 Z M77.6704614,29.7493036 L77.6704614,0 L81.9322999,0 L81.9322999,25.4874652 L90.3724113,25.4874652 L90.3724113,29.7493036 L77.6704614,29.7493036 Z M114.437447,0 L114.437447,22.729805 C114.437447,24.7632414 113.796785,26.4623887 112.515441,27.8272981 C111.87477,28.4958251 111.115724,29.0250677 110.238283,29.4150418 C109.360841,29.8050159 108.337174,30 107.167252,30 C105.802343,30 104.667257,29.7005601 103.76196,29.1016713 C102.856663,28.5027825 102.1394,27.9108664 101.610149,27.3259053 L104.952767,24.6518106 C105.259176,24.9582188 105.614325,25.2158764 106.018227,25.4247911 C106.422129,25.6337058 106.846916,25.7381616 107.2926,25.7381616 C107.543298,25.7381616 107.835774,25.6894155 108.170038,25.591922 C108.504301,25.4944285 108.824632,25.3064081 109.13104,25.0278552 C109.437449,24.7771575 109.688142,24.4220079 109.883129,23.9623955 C110.078117,23.5027855 110.175609,22.8969397 110.175609,22.1448468 L110.175609,0 L114.437447,0 Z M128.872472,19.3454039 L126.783335,8.56545961 L126.69977,8.56545961 L124.610633,19.3454039 L128.872472,19.3454039 Z M118.343224,29.7493036 L124.986678,0 L128.53821,0 L135.181664,29.7493036 L130.919826,29.7493036 L129.666344,23.356546 L123.858544,23.356546 L122.605062,29.7493036 L118.343224,29.7493036 Z M139.212789,29.7493036 L139.212789,0 L143.474628,0 L143.474628,29.7493036 L139.212789,29.7493036 Z M149.260627,29.7493036 L149.260627,0 L153.355335,0 L159.789875,17.9247911 L159.873441,17.9247911 L159.873441,0 L164.135279,0 L164.135279,29.7493036 L160.124137,29.7493036 L153.606031,11.8662953 L153.522466,11.8662953 L153.522466,29.7493036 L149.260627,29.7493036 Z" id="RAHULJAIN" fill="#000000" fill-rule="nonzero"></path>
    </g>
</svg>