<svg xmlns="http://www.w3.org/2000/svg" width="532" height="343" viewBox="0 0 532 343">
  <g fill="none" fill-rule="evenodd">
    <rect width="532" height="343" fill="#D3F9D8"/>
    <g fill-rule="nonzero" transform="translate(141 47)">
      <circle cx="125" cy="125" r="125" fill="#FF5B62"/>
      <ellipse cx="125" cy="205.881" fill="#ED4C54" rx="89.005" ry="7.016"/>
      <path fill="#666" d="M32.2172852,32.8232422 L217.781738,32.8232422 C223.878418,32.8232422 228.866699,37.8120117 228.866699,43.9082031 L228.866699,158.217285 L21.1323242,158.217285 L21.1323242,43.9077148 C21.1323242,37.8110352 26.1201172,32.8232422 32.2172852,32.8232422 Z"/>
      <path fill="#21D0C3" d="M28.659668,150.691895 L221.338867,150.691895 L221.338867,43.9086914 C221.338867,41.9667969 219.722656,40.3505859 217.781738,40.3505859 L32.2182617,40.3505859 C30.2763672,40.3505859 28.6611328,41.9667969 28.6611328,43.9086914 L28.659668,150.691895 Z"/>
      <path fill="#FFF" d="M228.865723,158.218262 L228.865723,170.340332 C228.865723,176.438477 223.367676,181.425293 216.646484,181.425293 L33.3515625,181.425293 C26.6303711,181.425293 21.1323242,176.438477 21.1323242,170.340332 L21.1323242,158.218262 L228.865723,158.218262 Z"/>
      <path fill="#ECF0F1" d="M41.9599609,86.059082 C59.581543,86.059082 74.4663086,97.769043 79.262207,113.830566 C87.1176758,117.375977 92.8710937,124.755859 94.1381836,133.58252 C95.5224609,133.249512 96.96875,133.072266 98.4555664,133.072266 C102.731934,133.072266 106.66748,134.529785 109.791992,136.975586 C110.773926,130.775391 116.144043,126.03418 122.620605,126.03418 C123.433594,126.03418 124.229004,126.109863 124.999512,126.252441 C125.770508,126.109375 126.565918,126.03418 127.378418,126.03418 C133.85498,126.03418 139.225098,130.775391 140.207031,136.975586 C143.331055,134.529785 147.267578,133.072266 151.542969,133.072266 C153.029785,133.072266 154.474609,133.25 155.860352,133.58252 C157.127441,124.755371 162.880859,117.375488 170.736328,113.830566 C175.533691,97.769043 190.41748,86.059082 208.038574,86.059082 C212.709961,86.059082 217.188477,86.8828125 221.338867,88.3911133 L221.338867,150.690918 L133.154297,150.690918 L133.155273,150.660645 L133.094727,150.690918 L116.90625,150.690918 L116.845703,150.660645 L116.84668,150.690918 L28.6611328,150.690918 L28.6611328,88.3911133 C32.8110352,86.8828125 37.2895508,86.059082 41.9614258,86.059082 L41.9599609,86.059082 Z" opacity="0"/>
      <g transform="translate(50 51.69)">
        <path fill="#FFF" d="M19.0317383,0.16796875 L122.975586,0.16796875 L138.448242,0.16796875 C140.323242,0.16796875 141.856934,1.703125 141.856934,3.57666016 L141.856934,23.8632812 L141.856934,97.9570312 L0.149414062,97.9570312 L0.149414062,23.8642578 L0.149414062,3.57714844 C0.149414062,1.70214844 1.68359375,0.168457031 3.55810547,0.168457031 C3.55859375,0.16796875 19.0317383,0.16796875 19.0317383,0.16796875 Z" transform="translate(.996 .734)"/>
        <g transform="translate(1)">
          <path fill="#828282" d="M3.5546875,0.90234375 L138.444824,0.90234375 C140.319824,0.90234375 141.853516,2.43652344 141.853516,4.31103516 L141.853516,11.128418 L0.145507812,11.128418 L0.145507812,4.31103516 C0.145507812,2.43603516 1.67919922,0.90234375 3.5546875,0.90234375 Z"/>
          <path fill="#FFF" d="M63.2333984,4.43310547 L131.685547,4.43310547 C132.189941,4.43310547 132.601074,4.84423828 132.601074,5.34863281 L132.601074,7.04736328 C132.601074,7.55175781 132.189941,7.96289062 131.685547,7.96289062 L63.2333984,7.96289062 C62.7290039,7.96289062 62.3178711,7.55175781 62.3178711,7.04736328 L62.3178711,5.34863281 C62.3178711,4.84521484 62.7294922,4.43310547 63.2333984,4.43310547 Z"/>
          <path fill="#21D0C3" d="M6.94580078,3.82568359 C8.02929688,3.82568359 8.90820312,4.703125 8.90820312,5.78808594 C8.90820312,6.87255859 8.02880859,7.75048828 6.94580078,7.75048828 C5.86083984,7.75048828 4.98144531,6.87255859 4.98144531,5.78808594 C4.98144531,4.703125 5.86083984,3.82568359 6.94580078,3.82568359 Z"/>
          <path fill="#FAD24D" d="M14.6933594,3.82568359 C15.7783203,3.82568359 16.6557617,4.703125 16.6557617,5.78808594 C16.6557617,6.87255859 15.7783203,7.75048828 14.6933594,7.75048828 C13.609375,7.75048828 12.730957,6.87255859 12.730957,5.78808594 C12.7304688,4.703125 13.6098633,3.82568359 14.6933594,3.82568359 Z"/>
          <path fill="#FF5B62" d="M22.4428711,3.82568359 C23.5263672,3.82568359 24.4047852,4.703125 24.4047852,5.78808594 C24.4047852,6.87255859 23.5263672,7.75048828 22.4428711,7.75048828 C21.3574219,7.75048828 20.4785156,6.87255859 20.4785156,5.78808594 C20.4785156,4.703125 21.3574219,3.82568359 22.4428711,3.82568359 Z"/>
          <polygon fill="#ECF0F1" points="8 16 134.37 16 134.37 57.687 8 57.687"/>
          <path fill="#FF5B62" d="M26.5639648,62.6518555 C31.2036133,62.6518555 34.9643555,66.4125977 34.9643555,71.0522461 C34.9643555,75.690918 31.2036133,79.4526367 26.5639648,79.4526367 C21.925293,79.4526367 18.1645508,75.6914062 18.1645508,71.0522461 C18.1640625,66.4125977 21.9248047,62.6518555 26.5639648,62.6518555 Z"/>
          <path fill="#21D0C3" d="M71,62.6518555 C75.6386719,62.6518555 79.3994141,66.4125977 79.3994141,71.0522461 C79.3994141,75.690918 75.6386719,79.4526367 71,79.4526367 C66.3613281,79.4526367 62.6005859,75.6914062 62.6005859,71.0522461 C62.6000977,66.4125977 66.3608398,62.6518555 71,62.6518555 Z"/>
          <path fill="#FAD24D" d="M115.435547,62.6518555 C120.074219,62.6518555 123.834961,66.4125977 123.834961,71.0522461 C123.834961,75.690918 120.074219,79.4526367 115.435547,79.4526367 C110.795898,79.4526367 107.035156,75.6914062 107.035156,71.0522461 C107.035156,66.4125977 110.795898,62.6518555 115.435547,62.6518555 Z"/>
          <g fill="#DCE3DB" transform="translate(14.36 81.79)">
            <path d="M.151855469.464355469L24.2583008.464355469 24.2583008 1.77148438.151855469 1.77148438.151855469.464355469zM.151855469 8.68212891L16.3432617 8.68212891 16.3432617 9.98925781.151855469 9.98925781.151855469 8.68212891zM.151855469 4.57324219L24.2583008 4.57324219 24.2583008 5.87988281.151855469 5.87988281.151855469 4.57324219zM44.5874023.464355469L68.6933594.464355469 68.6933594 1.77148438 44.5874023 1.77148438 44.5874023.464355469zM44.5874023 8.68212891L60.7797852 8.68212891 60.7797852 9.98925781 44.5874023 9.98925781 44.5874023 8.68212891zM44.5874023 4.57324219L68.6933594 4.57324219 68.6933594 5.87988281 44.5874023 5.87988281 44.5874023 4.57324219zM89.0244141.464355469L113.129395.464355469 113.129395 1.77148438 89.0244141 1.77148438 89.0244141.464355469zM89.0244141 8.68212891L105.215332 8.68212891 105.215332 9.98925781 89.0244141 9.98925781 89.0244141 8.68212891zM89.0244141 4.57324219L113.129395 4.57324219 113.129395 5.87988281 89.0244141 5.87988281 89.0244141 4.57324219z"/>
          </g>
        </g>
      </g>
      <circle cx="125" cy="169.336" r="3.816" fill="#B6B6B8"/>
      <polygon fill="#C2C2C4" points="148.957 198.863 166.582 204.511 83.416 204.511 97.637 198.863 97.637 181.426 148.958 181.426 148.958 198.863"/>
      <polygon fill="#B0B0B0" points="148.957 198.863 97.636 181.426 148.957 181.426"/>
      <polygon fill="#ECF0F1" points="97.636 198.863 148.957 198.863 166.582 204.511 166.582 206.942 125 206.942 83.416 206.942 83.416 204.511"/>
    </g>
    <g fill-rule="nonzero" transform="translate(227 115)">
      <g fill="#C9CACC" transform="translate(.338 2.678)">
        <path d="M1.62966485.0114223043L1.62966485.596691243.45912697.596691243.45912697.0114223043 1.62966485.0114223043zM.166368345 1.07692465L.751637284 1.07692465.751637284 2.24746252.166368345 2.24746252.166368345 1.07692465zM.166368345 4.00376596L.751637284 4.00376596.751637284 5.17430384.166368345 5.17430384.166368345 4.00376596zM.166368345 6.93085559L.751637284 6.93085559.751637284 8.10139347.166368345 8.10139347.166368345 6.93085559zM.166368345 9.85769691L.751637284 9.85769691.751637284 11.0282348.166368345 11.0282348.166368345 9.85769691zM.166368345 12.7845382L.751637284 12.7845382.751637284 13.9550761.166368345 13.9550761.166368345 12.7845382zM.166368345 15.7113795L.751637284 15.7113795.751637284 16.8819174.166368345 16.8819174.166368345 15.7113795zM1.0781662 18.3119403L1.0781662 17.7266713 2.24870408 17.7266713 2.24870408 18.3119403 1.0781662 18.3119403zM4.00525583 18.3119403L4.00525583 17.7266713 5.17579371 17.7266713 5.17579371 18.3119403 4.00525583 18.3119403zM6.93209714 18.3119403L6.93209714 17.7266713 8.10263502 17.7266713 8.10263502 18.3119403 6.93209714 18.3119403zM9.85893846 18.3119403L9.85893846 17.7266713 11.0294763 17.7266713 11.0294763 18.3119403 9.85893846 18.3119403zM12.7857798 18.3119403L12.7857798 17.7266713 13.9563177 17.7266713 13.9563177 18.3119403 12.7857798 18.3119403zM15.7126211 18.3119403L15.7126211 17.7266713 16.883159 17.7266713 16.883159 18.3119403 15.7126211 18.3119403zM18.6394624 18.3119403L18.6394624 17.7266713 19.8100003 17.7266713 19.8100003 18.3119403 18.6394624 18.3119403zM21.566552 18.3119403L21.566552 17.7266713 22.7370899 17.7266713 22.7370899 18.3119403 21.566552 18.3119403zM24.4933934 18.3119403L24.4933934 17.7266713 25.6639312 17.7266713 25.6639312 18.3119403 24.4933934 18.3119403zM27.4202347 18.3119403L27.4202347 17.7266713 28.5907726 17.7266713 28.5907726 18.3119403 27.4202347 18.3119403zM30.347076 18.3119403L30.347076 17.7266713 31.5176139 17.7266713 31.5176139 18.3119403 30.347076 18.3119403zM33.2739173 18.3119403L33.2739173 17.7266713 34.4444552 17.7266713 34.4444552 18.3119403 33.2739173 18.3119403zM36.2007586 18.3119403L36.2007586 17.7266713 37.3712965 17.7266713 37.3712965 18.3119403 36.2007586 18.3119403zM39.1278483 18.3119403L39.1278483 17.7266713 40.2983861 17.7266713 40.2983861 18.3119403 39.1278483 18.3119403zM42.0544413 18.3119403L42.0544413 17.7266713 43.2249791 17.7266713 43.2249791 18.3119403 42.0544413 18.3119403zM44.9812826 18.3119403L44.9812826 17.7266713 46.1518205 17.7266713 46.1518205 18.3119403 44.9812826 18.3119403zM47.9081239 18.3119403L47.9081239 17.7266713 49.0786618 17.7266713 49.0786618 18.3119403 47.9081239 18.3119403zM50.8349652 18.3119403L50.8349652 17.7266713 52.0055031 17.7266713 52.0055031 18.3119403 50.8349652 18.3119403zM53.7618065 18.3119403L53.7618065 17.7266713 54.9323444 17.7266713 54.9323444 18.3119403 53.7618065 18.3119403zM56.6888962 18.3119403L56.6888962 17.7266713 57.859434 17.7266713 57.859434 18.3119403 56.6888962 18.3119403zM59.6157375 18.3119403L59.6157375 17.7266713 60.7862753 17.7266713 60.7862753 18.3119403 59.6157375 18.3119403zM62.5425788 18.3119403L62.5425788 17.7266713 63.7131167 17.7266713 63.7131167 18.3119403 62.5425788 18.3119403zM65.4694201 18.3119403L65.4694201 17.7266713 66.639958 17.7266713 66.639958 18.3119403 65.4694201 18.3119403zM68.3962614 18.3119403L68.3962614 17.7266713 69.5667993 17.7266713 69.5667993 18.3119403 68.3962614 18.3119403zM70.3512136 16.7547822L69.7659447 16.7547822 69.7659447 15.5842443 70.3512136 15.5842443 70.3512136 16.7547822zM70.3512136 13.8279409L69.7659447 13.8279409 69.7659447 12.657403 70.3512136 12.657403 70.3512136 13.8279409zM70.3512136 10.9008513L69.7659447 10.9008513 69.7659447 9.73031338 70.3512136 9.73031338 70.3512136 10.9008513zM70.3512136 7.97425825L69.7659447 7.97425825 69.7659447 6.80372038 70.3512136 6.80372038 70.3512136 7.97425825zM70.3512136 5.04741694L69.7659447 5.04741694 69.7659447 3.87687906 70.3512136 3.87687906 70.3512136 5.04741694zM70.3512136 2.12057562L69.7659447 2.12057562 69.7659447.950037743 70.3512136.950037743 70.3512136 2.12057562zM68.9470151.0119189262L68.9470151.597187865 67.7764773.597187865 67.7764773.0119189262 68.9470151.0119189262zM66.0204221.0119189262L66.0204221.597187865 64.8498842.597187865 64.8498842.0119189262 66.0204221.0119189262zM63.0933325.0119189262L63.0933325.597187865 61.9227946.597187865 61.9227946.0119189262 63.0933325.0119189262zM60.1664912.0119189262L60.1664912.597187865 58.9959533.597187865 58.9959533.0119189262 60.1664912.0119189262zM57.2396499.0119189262L57.2396499.597187865 56.069112.597187865 56.069112.0119189262 57.2396499.0119189262zM54.3128085.0119189262L54.3128085.597187865 53.1422707.597187865 53.1422707.0119189262 54.3128085.0119189262zM51.3859672.0119189262L51.3859672.597187865 50.2154294.597187865 50.2154294.0119189262 51.3859672.0119189262zM48.4591259.0119189262L48.4591259.597187865 47.288588.597187865 47.288588.0119189262 48.4591259.0119189262zM45.5320363.0119189262L45.5320363.597187865 44.3614984.597187865 44.3614984.0119189262 45.5320363.0119189262zM42.605195.0119189262L42.605195.597187865 41.4346571.597187865 41.4346571.0119189262 42.605195.0119189262zM39.6783537.0119189262L39.6783537.597187865 38.5078158.597187865 38.5078158.0119189262 39.6783537.0119189262zM36.7515123.0119189262L36.7515123.597187865 35.5809745.597187865 35.5809745.0119189262 36.7515123.0119189262zM33.824671.0119189262L33.824671.597187865 32.6541331.597187865 32.6541331.0119189262 33.824671.0119189262zM30.8978297.0119189262L30.8978297.597187865 29.7272918.597187865 29.7272918.0119189262 30.8978297.0119189262zM27.9707401.0119189262L27.9707401.597187865 26.8002022.597187865 26.8002022.0119189262 27.9707401.0119189262zM25.0441471.0119189262L25.0441471.597187865 23.8736092.597187865 23.8736092.0119189262 25.0441471.0119189262zM22.1173058.0119189262L22.1173058.597187865 20.9467679.597187865 20.9467679.0119189262 22.1173058.0119189262zM19.1904644.0119189262L19.1904644.597187865 18.0199266.597187865 18.0199266.0119189262 19.1904644.0119189262zM16.2636231.0119189262L16.2636231.597187865 15.0930852.597187865 15.0930852.0119189262 16.2636231.0119189262zM13.3367818.0119189262L13.3367818.597187865 12.1662439.597187865 12.1662439.0119189262 13.3367818.0119189262zM10.4096922.0119189262L10.4096922.597187865 9.2391543.597187865 9.2391543.0119189262 10.4096922.0119189262zM7.48285086.0119189262L7.48285086.597187865 6.31231298.597187865 6.31231298.0119189262 7.48285086.0119189262zM4.55600954.0119189262L4.55600954.597187865 3.38547166.597187865 3.38547166.0119189262 4.55600954.0119189262zM3.17862863 24.6962634L3.17862863 25.2815324 2.00809075 25.2815324 2.00809075 24.6962634 3.17862863 24.6962634zM52.8274124 25.9241611L53.4126813 25.9241611 53.4126813 27.094699 52.8274124 27.094699 52.8274124 25.9241611zM52.8274124 28.8510024L53.4126813 28.8510024 53.4126813 30.0215403 52.8274124 30.0215403 52.8274124 28.8510024zM52.8274124 31.7778438L53.4126813 31.7778438 53.4126813 32.9483816 52.8274124 32.9483816 52.8274124 31.7778438zM52.8274124 34.7046851L53.4126813 34.7046851 53.4126813 35.875223 52.8274124 35.875223 52.8274124 34.7046851zM53.7590751 37.2851326L53.7590751 36.6998637 54.929613 36.6998637 54.929613 37.2851326 53.7590751 37.2851326zM56.6861647 37.2851326L56.6861647 36.6998637 57.8567026 36.6998637 57.8567026 37.2851326 56.6861647 37.2851326zM59.613006 37.2851326L59.613006 36.6998637 60.7835439 36.6998637 60.7835439 37.2851326 59.613006 37.2851326zM62.5398474 37.2851326L62.5398474 36.6998637 63.7103852 36.6998637 63.7103852 37.2851326 62.5398474 37.2851326zM65.4666887 37.2851326L65.4666887 36.6998637 66.6372266 36.6998637 66.6372266 37.2851326 65.4666887 37.2851326zM68.39353 37.2851326L68.39353 37.1674332 68.2187191 36.9926223 68.2187191 35.9397838 68.803988 35.9397838 68.803988 36.9926223 68.803988 37.2856292 68.5109811 37.2856292 68.3932817 37.2856292 68.3932817 37.2851326 68.39353 37.2851326zM68.8042363 34.1834804L68.2189674 34.1834804 68.2189674 33.0129425 68.8042363 33.0129425 68.8042363 34.1834804zM68.8042363 31.256639L68.2189674 31.256639 68.2189674 30.0861012 68.8042363 30.0861012 68.8042363 31.256639zM68.8042363 28.3297977L68.2189674 28.3297977 68.2189674 27.1592599 68.8042363 27.1592599 68.8042363 28.3297977zM68.8042363 25.4029564L68.2189674 25.4029564 68.2189674 25.282029 67.7548742 25.282029 67.7548742 24.69676 68.5119743 24.69676 68.8049813 24.69676 68.8049813 24.989767 68.8049813 25.4037013 68.8042363 25.4029564zM65.9983225 24.6962634L65.9983225 25.2815324 64.8277846 25.2815324 64.8277846 24.6962634 65.9983225 24.6962634zM63.0714811 24.6962634L63.0714811 25.2815324 61.9009433 25.2815324 61.9009433 24.6962634 63.0714811 24.6962634zM60.1446398 24.6962634L60.1446398 25.2815324 58.9741019 25.2815324 58.9741019 24.6962634 60.1446398 24.6962634zM57.2177985 24.6962634L57.2177985 25.2815324 56.0472606 25.2815324 56.0472606 24.6962634 57.2177985 24.6962634zM54.2907089 24.6962634L54.2907089 25.2815324 53.120171 25.2815324 53.120171 24.6962634 54.2907089 24.6962634zM1.71508382 25.9241611L2.30035276 25.9241611 2.30035276 27.094699 1.71508382 27.094699 1.71508382 25.9241611zM1.71508382 28.8510024L2.30035276 28.8510024 2.30035276 30.0215403 1.71508382 30.0215403 1.71508382 28.8510024zM1.71508382 31.7778438L2.30035276 31.7778438 2.30035276 32.9483816 1.71508382 32.9483816 1.71508382 31.7778438zM1.71508382 34.7046851L2.30035276 34.7046851 2.30035276 35.875223 1.71508382 35.875223 1.71508382 34.7046851zM2.64699486 37.2851326L2.64699486 36.6998637 3.81753274 36.6998637 3.81753274 37.2851326 2.64699486 37.2851326zM5.57383618 37.2851326L5.57383618 36.6998637 6.74437406 36.6998637 6.74437406 37.2851326 5.57383618 37.2851326zM8.5006775 37.2851326L8.5006775 36.6998637 9.67121537 36.6998637 9.67121537 37.2851326 8.5006775 37.2851326zM11.4275188 37.2851326L11.4275188 36.6998637 12.5980567 36.6998637 12.5980567 37.2851326 11.4275188 37.2851326zM14.3543601 37.2851326L14.3543601 36.6998637 15.524898 36.6998637 15.524898 37.2851326 14.3543601 37.2851326zM17.2814498 37.2851326L17.2814498 37.1674332 17.1066388 36.9926223 17.1066388 35.9397838 17.6919078 35.9397838 17.6919078 36.9926223 17.6919078 37.2856292 17.3989008 37.2856292 17.2812014 37.2856292 17.2814498 37.2851326zM17.6916595 34.1834804L17.1063905 34.1834804 17.1063905 33.0129425 17.6916595 33.0129425 17.6916595 34.1834804zM17.6916595 31.256639L17.1063905 31.256639 17.1063905 30.0861012 17.6916595 30.0861012 17.6916595 31.256639zM17.6916595 28.3297977L17.1063905 28.3297977 17.1063905 27.1592599 17.6916595 27.1592599 17.6916595 28.3297977zM17.6916595 25.4029564L17.1063905 25.4029564 17.1063905 25.282029 16.6422973 25.282029 16.6422973 24.69676 17.3993975 24.69676 17.6924044 24.69676 17.6924044 24.989767 17.6924044 25.4037013 17.6916595 25.4029564zM14.8859939 24.6962634L14.8859939 25.2815324 13.715456 25.2815324 13.715456 24.6962634 14.8859939 24.6962634zM11.9591526 24.6962634L11.9591526 25.2815324 10.7886147 25.2815324 10.7886147 24.6962634 11.9591526 24.6962634zM9.03231127 24.6962634L9.03231127 25.2815324 7.86177339 25.2815324 7.86177339 24.6962634 9.03231127 24.6962634zM6.10546995 24.6962634L6.10546995 25.2815324 4.93493207 25.2815324 4.93493207 24.6962634 6.10546995 24.6962634z"/>
      </g>
      <circle cx="35.598" cy="19.448" r="12.391" fill="#ECF0F1"/>
      <path fill="#828282" d="M48.2808386,19.447218 C48.2808386,22.9493958 46.8612449,26.1203268 44.5661066,28.415465 C42.2709684,30.7106032 39.1000374,32.130197 35.5978596,32.130197 C32.0956818,32.130197 28.9247508,30.7106032 26.6296126,28.415465 C24.3344743,26.1203268 22.9148806,22.9493958 22.9148806,19.447218 L23.5001495,19.447218 C23.5001495,22.7879937 24.8544375,25.8129178 27.0435469,28.0017789 C29.2324081,30.1906401 32.2573322,31.5451764 35.5981079,31.5451764 C38.9388836,31.5451764 41.9638078,30.1908884 44.1526689,28.0017789 C46.34153,25.8129178 47.6960663,22.7879937 47.6960663,19.447218 L48.2808386,19.447218 Z"/>
      <path fill="#FFBA1B" d="M33.0591283,14.4531879 L30.1519036,21.4637513 L35.4285115,31.5151308 L35.4285115,21.4195519 C34.9855248,21.3227107 34.6542779,20.9278962 34.6542779,20.456602 C34.6542779,19.9118078 35.0957748,19.4705592 35.6403208,19.4705592 C36.185115,19.4705592 36.6263636,19.9120561 36.6263636,20.456602 C36.6263636,20.9581902 36.2519107,21.3721246 35.767456,21.4344506 L35.767456,31.5153791 L41.0435673,21.4639996 L38.1363426,14.4534362 L35.5981079,14.4534362 L33.0593766,14.4534362 L33.0591283,14.4534362 L33.0591283,14.4531879 Z"/>
      <g fill="#828282" transform="translate(20.7 30.737)">
        <polygon points="1.038 .808 28.758 .808 28.758 1.394 1.038 1.394"/>
        <path d="M1.03793982.133094676C1.57230502.133094676 2.00535933.566148995 2.00535933 1.10051419 2.00535933 1.63487938 1.57230502 2.0679337 1.03793982 2.0679337.503574632 2.0679337.0705203134 1.63487938.0705203134 1.10051419.0705203134.566397306.503574632.133094676 1.03793982.133094676zM28.7588791.133094676C29.2932443.133094676 29.7262986.566148995 29.7262986 1.10051419 29.7262986 1.63487938 29.2932443 2.0679337 28.7588791 2.0679337 28.2245139 2.0679337 27.7914596 1.63487938 27.7914596 1.10051419 27.7914596.566397306 28.2245139.133094676 28.7588791.133094676z"/>
      </g>
      <path fill="#FF5B62" d="M32.1272173,0.221245068 L39.067757,0.221245068 L39.067757,13.6297887 C39.067757,14.0829562 38.6970287,14.4531879 38.2441095,14.4531879 L32.9508647,14.4531879 C32.4976972,14.4531879 32.1272173,14.0832046 32.1272173,13.6297887 L32.1272173,0.221245068 Z"/>
      <rect width="6.939" height="1.254" x="32.128" y="10.259" fill="#FFF"/>
      <g fill="#828282" transform="translate(22.19 18.321)">
        <circle cx="13.409" cy="13.575" r="1"/>
        <path d="M1.01807495.158670705C1.55244014.158670705 1.98549446.591725024 1.98549446 1.12609022 1.98549446 1.66045541 1.55244014 2.09350973 1.01807495 2.09350973.483709755 2.09350973.0506554364 1.66045541.0506554364 1.12609022.0506554364.591725024.483709755.158670705 1.01807495.158670705zM25.799509.158670705C26.3338742.158670705 26.7669285.591725024 26.7669285 1.12609022 26.7669285 1.66045541 26.3338742 2.09350973 25.799509 2.09350973 25.2651438 2.09350973 24.8320895 1.66045541 24.8320895 1.12609022 24.8320895.591725024 25.2653921.158670705 25.799509.158670705z"/>
      </g>
    </g>
  </g>
</svg>
