<svg width="751" height="611" viewBox="0 0 751 611" fill="none" xmlns="http://www.w3.org/2000/svg">
<rect width="750.216" height="610.792" fill="#FFFAED"/>
<g clip-path="url(#clip0_110_14)">
<path d="M116.259 393.251H112.975V374.092H123.531C125.975 374.092 127.832 374.776 129.084 376.125C130.1 377.2 130.608 378.491 130.608 379.976C130.608 381.247 130.218 382.361 129.455 383.3C128.693 384.258 127.656 384.962 126.366 385.45L130.941 393.251H127.168L123.062 385.88H116.259V393.251ZM123.531 377.024H116.259V382.948H124.118C124.978 382.948 125.721 382.655 126.366 382.068C127.011 381.482 127.324 380.778 127.324 379.957C127.324 379.253 127.05 378.627 126.523 378.041C125.858 377.376 124.861 377.024 123.531 377.024Z" fill="#00080F"/>
<path d="M149.005 381.775V384.707H141.634V390.318H154.596V393.251H138.35V374.092H153.892V377.024H141.634V381.775H149.005V381.775Z" fill="#00080F"/>
<path d="M175.69 374.092H178.975V393.251H176.062L164.997 379.957H164.977V393.251H161.693V374.092H164.606L175.671 387.386H175.69V374.092V374.092Z" fill="#00080F"/>
<path d="M185.407 393.251L194.302 374.092H197.293L206.188 393.251H202.571L200.245 388.089H191.115L188.828 393.251H185.407ZM195.612 378.021L192.288 385.45H199.072L195.788 378.021H195.612Z" fill="#00080F"/>
<path d="M225.523 374.092H228.807V386.447C228.807 388.754 228.006 390.572 226.422 391.882C224.839 393.192 222.786 393.857 220.283 393.857C217.801 393.857 215.767 393.192 214.184 391.882C212.6 390.572 211.799 388.754 211.799 386.447V374.092H215.083V386.447C215.083 387.835 215.572 388.93 216.549 389.712C217.527 390.514 218.778 390.905 220.283 390.905C221.808 390.905 223.059 390.514 224.037 389.712C225.014 388.911 225.503 387.835 225.503 386.447V374.092H225.523Z" fill="#00080F"/>
<path d="M237.468 374.092H240.752V390.318H252.521V393.251H237.468V374.092Z" fill="#00080F"/>
<path d="M254.163 377.024V374.092H272.501V377.024H264.994V393.251H261.709V377.024H254.163Z" fill="#00080F"/>
<path d="M299.753 374.092H303.037V393.251H300.124L289.059 379.957H289.04V393.251H285.755V374.092H288.668L299.733 387.386H299.753V374.092Z" fill="#00080F"/>
<path d="M315.647 393.251H312.363V374.092H315.647V393.251Z" fill="#00080F"/>
<path d="M340.534 376.301L338.54 378.588C337.895 378.002 336.976 377.474 335.783 377.024C334.591 376.575 333.183 376.34 331.58 376.34C330.329 376.34 329.293 376.575 328.491 377.024C327.67 377.474 327.279 378.158 327.279 379.116C327.279 381.579 331.033 381.247 334.845 381.638C338.325 382.009 341.863 383.143 341.863 387.425C341.863 389.614 341.081 391.237 339.498 392.273C337.914 393.329 335.9 393.837 333.418 393.837C329.41 393.837 325.911 392.488 322.939 389.81L324.933 387.523C327.475 389.829 330.329 390.983 333.476 390.983C334.982 390.983 336.213 390.729 337.152 390.181C338.11 389.653 338.579 388.871 338.579 387.835C338.579 386.721 338.129 385.959 337.23 385.528C336.331 385.118 334.943 384.766 333.027 384.668C328.393 384.414 323.995 383.906 323.995 379.39C323.995 378.315 324.229 377.376 324.679 376.575C325.129 375.773 325.754 375.148 326.536 374.717C327.318 374.287 328.139 373.975 328.98 373.779C329.84 373.584 330.739 373.486 331.697 373.486C333.535 373.486 335.236 373.779 336.8 374.346C338.364 374.932 339.615 375.578 340.534 376.301Z" fill="#00080F"/>
<path d="M365.42 376.301L363.426 378.588C362.781 378.002 361.862 377.474 360.67 377.024C359.477 376.575 358.07 376.34 356.467 376.34C355.215 376.34 354.179 376.575 353.378 377.024C352.557 377.474 352.166 378.158 352.166 379.116C352.166 381.579 355.919 381.247 359.731 381.638C363.211 382.009 366.75 383.143 366.75 387.425C366.75 389.614 365.968 391.237 364.384 392.273C362.801 393.329 360.787 393.837 358.304 393.837C354.297 393.837 350.797 392.488 347.826 389.81L349.82 387.523C352.361 389.829 355.215 390.983 358.363 390.983C359.868 390.983 361.1 390.729 362.038 390.181C362.996 389.653 363.465 388.871 363.465 387.835C363.465 386.721 363.016 385.959 362.117 385.528C361.217 385.118 359.829 384.766 357.913 384.668C353.28 384.414 348.881 383.906 348.881 379.39C348.881 378.315 349.116 377.376 349.566 376.575C350.015 375.773 350.641 375.148 351.423 374.717C352.205 374.287 353.026 373.975 353.867 373.779C354.727 373.584 355.626 373.486 356.584 373.486C358.422 373.486 360.122 373.779 361.686 374.346C363.25 374.932 364.502 375.578 365.42 376.301Z" fill="#00080F"/>
<path d="M510.48 376.301L508.486 378.588C507.841 378.002 506.922 377.474 505.73 377.024C504.537 376.575 503.13 376.34 501.526 376.34C500.275 376.34 499.239 376.575 498.438 377.024C497.617 377.474 497.226 378.158 497.226 379.116C497.226 381.579 500.979 381.247 504.791 381.638C508.271 382.009 511.81 383.143 511.81 387.425C511.81 389.614 511.028 391.237 509.444 392.273C507.861 393.329 505.847 393.837 503.364 393.837C499.356 393.837 495.857 392.488 492.885 389.81L494.88 387.523C497.421 389.829 500.275 390.983 503.423 390.983C504.928 390.983 506.16 390.729 507.098 390.181C508.056 389.653 508.525 388.871 508.525 387.835C508.525 386.721 508.076 385.959 507.176 385.528C506.277 385.118 504.889 384.766 502.973 384.668C498.34 384.414 493.941 383.906 493.941 379.39C493.941 378.315 494.176 377.376 494.625 376.575C495.075 375.773 495.701 375.148 496.483 374.717C497.265 374.287 498.086 373.975 498.926 373.779C499.787 373.584 500.686 373.486 501.644 373.486C503.481 373.486 505.182 373.779 506.746 374.346C508.31 374.932 509.561 375.578 510.48 376.301Z" fill="#00080F"/>
<path d="M597.261 376.301L595.267 378.588C594.622 378.002 593.703 377.474 592.511 377.024C591.318 376.575 589.911 376.34 588.307 376.34C587.056 376.34 586.02 376.575 585.219 377.024C584.398 377.474 584.007 378.158 584.007 379.116C584.007 381.579 587.76 381.247 591.572 381.638C595.052 382.009 598.591 383.143 598.591 387.425C598.591 389.614 597.809 391.237 596.225 392.273C594.642 393.329 592.628 393.837 590.145 393.837C586.137 393.837 582.638 392.488 579.667 389.81L581.661 387.523C584.202 389.829 587.056 390.983 590.204 390.983C591.709 390.983 592.941 390.729 593.879 390.181C594.837 389.653 595.306 388.871 595.306 387.835C595.306 386.721 594.857 385.959 593.957 385.528C593.058 385.118 591.67 384.766 589.754 384.668C585.121 384.414 580.722 383.906 580.722 379.39C580.722 378.315 580.957 377.376 581.406 376.575C581.856 375.773 582.482 375.148 583.264 374.717C584.046 374.287 584.867 373.975 585.707 373.779C586.568 373.584 587.467 373.486 588.425 373.486C590.262 373.486 591.963 373.779 593.527 374.346C595.111 374.932 596.342 375.578 597.261 376.301Z" fill="#00080F"/>
<path d="M370.953 393.251L379.849 374.092H382.84L391.735 393.251H388.118L385.792 388.089H376.662L374.375 393.251H370.953ZM381.178 378.021L377.854 385.45H384.638L381.354 378.021H381.178Z" fill="#00080F"/>
<path d="M412.438 374.092H415.722V393.251H412.81L401.744 379.957H401.725V393.251H398.44V374.092H401.353L412.419 387.386H412.438V374.092Z" fill="#00080F"/>
<path d="M452.241 393.251H448.957V380.23H448.82L442.447 390.963H441.919L435.546 380.23H435.409V393.251H432.261V374.092H435.644L442.31 385.392H442.369L449.035 374.092H452.261V393.251H452.241Z" fill="#00080F"/>
<path d="M464.558 393.251H461.273V374.092H464.558V393.251Z" fill="#00080F"/>
<path d="M470.579 377.024V374.092H488.917V377.024H481.409V393.251H478.125V377.024H470.579Z" fill="#00080F"/>
<path d="M532.239 374.092H535.523V386.447C535.523 388.754 534.722 390.572 533.138 391.882C531.555 393.192 529.502 393.857 526.999 393.857C524.517 393.857 522.483 393.192 520.9 391.882C519.316 390.572 518.515 388.754 518.515 386.447V374.092H521.799V386.447C521.799 387.835 522.288 388.93 523.266 389.712C524.243 390.514 525.494 390.905 526.999 390.905C528.524 390.905 529.776 390.514 530.753 389.712C531.731 388.911 532.219 387.835 532.219 386.447V374.092H532.239Z" fill="#00080F"/>
<path d="M556.012 393.251H544.184V374.092H555.777C557.732 374.092 559.276 374.659 560.391 375.773C561.251 376.633 561.681 377.65 561.681 378.803C561.681 379.664 561.447 380.465 560.997 381.188C560.528 381.931 559.961 382.42 559.257 382.694C560.352 382.948 561.212 383.515 561.818 384.414C562.444 385.313 562.737 386.35 562.737 387.542C562.737 389.145 562.15 390.514 560.977 391.628C559.804 392.703 558.143 393.251 556.012 393.251ZM555.425 377.024H547.468V382.009H555.425C556.305 382.009 556.989 381.775 557.458 381.306C557.986 380.778 558.26 380.133 558.26 379.39C558.26 378.745 558.025 378.197 557.576 377.748C557.067 377.278 556.364 377.024 555.425 377.024ZM556.129 384.649H547.468V390.318H556.129C557.126 390.318 557.928 390.025 558.514 389.438C559.042 388.911 559.316 388.265 559.316 387.503C559.316 386.838 559.061 386.232 558.553 385.685C557.888 385.001 557.087 384.649 556.129 384.649Z" fill="#00080F"/>
<path d="M573.254 393.251H569.97V374.092H573.254V393.251Z" fill="#00080F"/>
<path d="M608.991 393.251H605.707V374.092H608.991V381.345H619.411V374.092H622.696V393.251H619.411V384.277H608.991V393.251Z" fill="#00080F"/>
<path d="M634.445 393.251H631.161V374.092H634.445V393.251Z" fill="#00080F"/>
<path d="M488.096 322.891C425.185 273.567 354.102 284.182 354.102 284.182C352.342 286.959 350.719 289.226 350.719 289.226C426.006 280.644 473.688 318.277 485.3 326.625C486.336 327.368 487.783 327.192 488.565 326.156C489.327 325.12 489.132 323.673 488.096 322.891Z" fill="#FF5F00"/>
<path d="M348.158 284.749C323.506 287.271 286.87 298.219 255.668 322.891C256.216 322.5 256.9 322.324 257.623 322.5C257.623 322.5 260.009 323.165 262.452 323.653C276.274 313.839 302.705 296.303 344.366 289.969C344.366 289.969 346.418 287.35 348.158 284.749Z" fill="#FF5F00"/>
<path d="M395.723 284.808C382.468 265.512 374.218 240.508 374.218 212.493C374.218 224.419 372.732 233.529 371.892 238.143C376.955 266.197 389.76 284.143 389.76 284.143C392.341 284.398 395.723 284.808 395.723 284.808Z" fill="#FFB300"/>
<path d="M374.218 212.493C374.218 211.203 373.182 210.167 371.892 210.167C370.601 210.167 369.565 211.203 369.565 212.493C369.565 282.853 316.664 338.394 257.623 322.5C256.372 322.187 255.101 322.95 254.808 324.201C254.495 325.452 255.258 326.723 256.509 327.016C319.186 343.536 374.218 285.434 374.218 212.493Z" fill="#EA001B"/>
<path d="M399.437 289.911C420.923 316.967 450.286 329.792 480.843 323.399C481.644 323.966 484.186 325.823 485.3 326.625C485.3 326.625 486.121 327.29 487.255 327.016C447.745 337.182 414.373 318.512 393.123 289.089C393.103 289.089 396.192 289.422 399.437 289.911Z" fill="#FFB300"/>
</g>
<defs>
<clipPath id="clip0_110_14">
<rect width="527.59" height="195.83" fill="white" transform="translate(111 207)"/>
</clipPath>
</defs>
</svg>
