<svg width="751" height="611" viewBox="0 0 751 611" fill="none" xmlns="http://www.w3.org/2000/svg">
<rect width="750.216" height="610.792" fill="#0D274D"/>
<path d="M457.229 340.466C457.303 344.118 456.288 347.71 454.314 350.784C452.339 353.857 449.493 356.273 446.14 357.723C442.787 359.172 439.078 359.591 435.486 358.924C431.894 358.258 428.582 356.537 425.972 353.981C423.362 351.424 421.573 348.149 420.832 344.571C420.091 340.994 420.433 337.277 421.813 333.895C423.193 330.512 425.549 327.617 428.581 325.579C431.612 323.541 435.182 322.452 438.836 322.451C441.238 322.381 443.63 322.796 445.868 323.672C448.107 324.547 450.145 325.866 451.863 327.547C453.58 329.229 454.94 331.24 455.862 333.46C456.784 335.679 457.249 338.062 457.229 340.466ZM438.836 331.313C437.021 331.298 435.244 331.823 433.728 332.821C432.213 333.819 431.028 335.244 430.324 336.916C429.62 338.589 429.428 340.432 429.774 342.213C430.119 343.995 430.986 345.633 432.264 346.921C433.543 348.208 435.175 349.087 436.953 349.446C438.732 349.805 440.577 349.627 442.254 348.936C443.931 348.244 445.366 347.07 446.374 345.562C447.383 344.054 447.922 342.28 447.921 340.466C447.942 339.264 447.722 338.069 447.274 336.954C446.826 335.838 446.159 334.824 445.312 333.97C444.465 333.117 443.455 332.442 442.343 331.986C441.23 331.529 440.038 331.3 438.836 331.313Z" fill="#00BCEB"/>
<path d="M411.206 333.041C408.938 331.81 406.397 331.17 403.816 331.183C402.569 331.139 401.326 331.347 400.161 331.794C398.997 332.241 397.934 332.918 397.036 333.785C396.139 334.652 395.425 335.69 394.937 336.839C394.45 337.987 394.199 339.222 394.199 340.47C394.199 341.718 394.45 342.952 394.937 344.101C395.425 345.249 396.139 346.288 397.036 347.155C397.934 348.021 398.997 348.699 400.161 349.146C401.326 349.593 402.569 349.801 403.816 349.757C406.395 349.765 408.935 349.13 411.206 347.91V357.253C408.612 358.051 405.916 358.468 403.202 358.492C400.792 358.562 398.392 358.147 396.144 357.273C393.897 356.399 391.848 355.083 390.118 353.402C388.388 351.722 387.013 349.712 386.075 347.491C385.136 345.27 384.652 342.883 384.652 340.471C384.652 338.06 385.136 335.673 386.075 333.452C387.013 331.231 388.388 329.22 390.118 327.54C391.848 325.86 393.897 324.544 396.144 323.669C398.392 322.795 400.792 322.381 403.202 322.451C405.918 322.459 408.616 322.879 411.206 323.698V333.041Z" fill="#00BCEB"/>
<path d="M373.695 330.979C371.455 330.361 369.152 330.005 366.83 329.916C363.309 329.916 361.396 331.095 361.396 332.769C361.396 334.888 363.977 335.627 365.423 336.084L367.846 336.855C370.146 337.342 372.215 338.589 373.72 340.395C375.226 342.202 376.079 344.462 376.143 346.812C376.143 355.555 368.455 358.492 361.733 358.492C358.551 358.463 355.379 358.145 352.255 357.541V349.532C354.953 350.315 357.74 350.75 360.549 350.825C364.917 350.825 366.928 349.548 366.928 347.575C366.928 345.812 365.189 344.793 363.01 344.109C362.478 343.932 361.679 343.682 361.135 343.503C356.243 341.957 352.165 339.083 352.165 333.321C352.165 326.811 357.039 322.44 365.135 322.44C368.021 322.479 370.894 322.85 373.695 323.548V330.979Z" fill="#00BCEB"/>
<path d="M340.387 323.067H331.604V357.872H340.387V323.067Z" fill="#00BCEB"/>
<path d="M319.531 333.041C317.268 331.808 314.729 331.169 312.152 331.183C310.904 331.138 309.66 331.345 308.495 331.792C307.329 332.238 306.265 332.915 305.367 333.782C304.468 334.649 303.754 335.688 303.266 336.837C302.778 337.986 302.526 339.221 302.526 340.47C302.526 341.718 302.778 342.954 303.266 344.103C303.754 345.252 304.468 346.291 305.367 347.158C306.265 348.024 307.329 348.701 308.495 349.148C309.66 349.595 310.904 349.802 312.152 349.757C314.727 349.767 317.264 349.132 319.531 347.91V357.253C316.936 358.054 314.237 358.471 311.522 358.492C309.113 358.559 306.714 358.143 304.469 357.268C302.223 356.393 300.176 355.077 298.448 353.397C296.72 351.717 295.346 349.707 294.409 347.487C293.471 345.267 292.987 342.881 292.987 340.471C292.987 338.061 293.471 335.676 294.409 333.455C295.346 331.235 296.72 329.226 298.448 327.546C300.176 325.866 302.223 324.549 304.469 323.674C306.714 322.799 309.113 322.383 311.522 322.451C314.239 322.457 316.94 322.878 319.531 323.698V333.041Z" fill="#00BCEB"/>
<path d="M475.296 285.71C475.296 283.285 473.33 281.318 470.905 281.318C468.479 281.318 466.513 283.285 466.513 285.71V294.765C466.513 297.191 468.479 299.157 470.905 299.157C473.33 299.157 475.296 297.191 475.296 294.765V285.71Z" fill="#00BCEB"/>
<path d="M451.347 273.716C451.347 271.29 449.381 269.324 446.956 269.324C444.53 269.324 442.564 271.29 442.564 273.716V294.765C442.564 297.191 444.53 299.157 446.956 299.157C449.381 299.157 451.347 297.191 451.347 294.765V273.716Z" fill="#00BCEB"/>
<path d="M427.398 257.312C427.398 254.886 425.432 252.92 423.007 252.92C420.581 252.92 418.615 254.886 418.615 257.312V303.448C418.615 305.874 420.581 307.84 423.007 307.84C425.432 307.84 427.398 305.874 427.398 303.448V257.312Z" fill="#00BCEB"/>
<path d="M403.449 273.716C403.449 271.29 401.483 269.324 399.057 269.324C396.632 269.324 394.666 271.29 394.666 273.716V294.765C394.666 297.191 396.632 299.157 399.057 299.157C401.483 299.157 403.449 297.191 403.449 294.765V273.716Z" fill="#00BCEB"/>
<path d="M379.5 285.71C379.5 283.285 377.534 281.318 375.108 281.318C372.683 281.318 370.717 283.285 370.717 285.71V294.765C370.717 297.191 372.683 299.157 375.108 299.157C377.534 299.157 379.5 297.191 379.5 294.765V285.71Z" fill="#00BCEB"/>
<path d="M355.551 273.716C355.551 271.29 353.584 269.324 351.159 269.324C348.734 269.324 346.767 271.29 346.767 273.716V294.765C346.767 297.191 348.734 299.157 351.159 299.157C353.584 299.157 355.551 297.191 355.551 294.765V273.716Z" fill="#00BCEB"/>
<path d="M331.601 257.312C331.601 254.886 329.635 252.92 327.21 252.92C324.784 252.92 322.818 254.886 322.818 257.312V303.448C322.818 305.874 324.784 307.84 327.21 307.84C329.635 307.84 331.601 305.874 331.601 303.448V257.312Z" fill="#00BCEB"/>
<path d="M307.652 273.716C307.652 271.29 305.686 269.324 303.261 269.324C300.835 269.324 298.869 271.29 298.869 273.716V294.765C298.869 297.191 300.835 299.157 303.261 299.157C305.686 299.157 307.652 297.191 307.652 294.765V273.716Z" fill="#00BCEB"/>
<path d="M283.703 285.71C283.703 283.285 281.737 281.318 279.312 281.318C276.886 281.318 274.92 283.285 274.92 285.71V294.765C274.92 297.191 276.886 299.157 279.312 299.157C281.737 299.157 283.703 297.191 283.703 294.765V285.71Z" fill="#00BCEB"/>
</svg>
