<?xml version="1.0" encoding="iso-8859-1"?>
<!-- Generator: Adobe Illustrator 19.0.0, SVG Export Plug-In . SVG Version: 6.00 Build 0)  -->
<svg version="1.1" id="Layer_1" xmlns="http://www.w3.org/2000/svg" xmlns:xlink="http://www.w3.org/1999/xlink" x="0px" y="0px"
	 viewBox="0 0 512 512" style="enable-background:new 0 0 512 512;" xml:space="preserve">
<path style="fill:#FF507D;" d="M364.755,24.381H256v65.016h108.755c6.041,0,9.971-6.358,7.269-11.761L361.651,56.89l10.373-20.746
	C374.726,30.739,370.797,24.381,364.755,24.381z"/>
<rect x="256" y="24.381" style="fill:#D23C69;" width="24.381" height="65.02"/>
<path style="fill:#707487;" d="M256,365.714c-4.492,0-8.127-3.635-8.127-8.127V8.127C247.873,3.635,251.508,0,256,0
	s8.127,3.635,8.127,8.127v349.46C264.127,362.079,260.492,365.714,256,365.714z"/>
<rect x="117.84" y="292.57" style="fill:#7F8499;" width="65.02" height="146.29"/>
<path style="fill:#E6AF78;" d="M272.948,185.768L272.948,185.768c-2.516-5.032-8.895-6.688-13.541-3.514l-42.518,29.047
	l-22.807-35.775c-2.004-3.144-5.029-5.503-8.566-6.682l-13.356-4.452c-3.319-1.106-5.557-4.212-5.557-7.71v-18.523h-8.127h-24.381
	v19.066c0,3.229-1.911,6.151-4.87,7.446l-17.899,7.831c-5.916,2.588-9.739,8.434-9.739,14.891v49.747
	c0,9.817,1.368,19.586,4.065,29.025l12.189,42.661l8.127-16.254h56.889v-84.825l19.306,23.301c5.642,6.81,15.693,7.859,22.62,2.361
	l45.632-36.216C273.855,194.462,274.912,189.696,272.948,185.768z"/>
<path style="fill:#707487;" d="M154.413,308.825c-2.245,0-4.063,1.819-4.063,4.063v125.968h8.127V312.889
	C158.476,310.644,156.657,308.825,154.413,308.825z"/>
<path style="fill:#B4E66E;" d="M274.814,346.558c-11.268-7.997-26.36-7.997-37.628,0L24.854,497.245
	C18.396,501.828,21.639,512,29.557,512h452.885c7.919,0,11.161-10.172,4.703-14.755L274.814,346.558z"/>
<g>
	<path style="fill:#C8FF82;" d="M361.643,445.414c-1.627,0-3.27-0.484-4.698-1.5l-56.873-40.365
		c-3.659-2.595-4.516-7.667-1.921-11.333c2.603-3.659,7.667-4.532,11.333-1.921l56.873,40.365c3.659,2.595,4.516,7.667,1.921,11.333
		C366.691,444.223,364.191,445.414,361.643,445.414z"/>
	<path style="fill:#C8FF82;" d="M280.357,387.731c-1.627,0-3.27-0.484-4.698-1.5l-8.111-5.762
		c-3.659-2.603-4.516-7.675-1.921-11.333c2.595-3.651,7.675-4.524,11.333-1.921l8.111,5.762c3.659,2.603,4.516,7.675,1.921,11.333
		C285.405,386.541,282.905,387.731,280.357,387.731z"/>
</g>
<path style="fill:#A0D755;" d="M125.934,497.245l133.403-150.688c1.854-2.093,3.875-3.607,5.972-4.605
	c-9.409-2.812-19.805-1.298-28.123,4.605L24.854,497.245C18.396,501.828,21.638,512,29.558,512h99.331
	C123.914,512,121.877,501.828,125.934,497.245z"/>
<path style="fill:#D29B6E;" d="M150.349,162.54c5.916,0,11.56-1.107,16.807-3.036c-0.333-0.892-0.553-1.831-0.553-2.821v-18.524
	h-8.127h-24.381v19.065c0,0.812-0.122,1.602-0.349,2.353C138.936,161.46,144.509,162.54,150.349,162.54z"/>
<path style="fill:#F0C087;" d="M150.349,154.413L150.349,154.413c-17.954,0-32.508-14.554-32.508-32.508v-16.254
	c0-13.465,10.916-24.381,24.381-24.381h16.254c13.465,0,24.381,10.916,24.381,24.381v16.254
	C182.857,139.858,168.303,154.413,150.349,154.413z"/>
<path style="fill:#E6AF78;" d="M142.222,121.905v-16.254c0-12.073,8.797-22.028,20.317-23.971c-1.328-0.224-2.672-0.41-4.063-0.41
	h-16.254c-13.465,0-24.381,10.916-24.381,24.381v16.254c0,17.953,14.554,32.508,32.508,32.508c4.318,0,8.421-0.882,12.19-2.411
	C150.636,147.175,142.222,135.54,142.222,121.905z"/>
<path style="fill:#694B4B;" d="M117.841,105.651c0,0,24.381,8.127,65.016,8.127v-8.127c0-13.465-10.916-24.381-24.381-24.381
	h-16.254C128.757,81.27,117.841,92.186,117.841,105.651L117.841,105.651z"/>
<path style="fill:#5A4146;" d="M142.222,105.651c0-12.073,8.797-22.028,20.317-23.971c-1.328-0.224-2.672-0.41-4.063-0.41h-16.254
	c-13.465,0-24.381,10.916-24.381,24.381c0,0,8.741,2.89,24.381,5.224V105.651z"/>
<path style="fill:#B4E66E;" d="M249.344,189.129l-32.456,22.173l-22.807-35.776c-2.004-3.143-5.029-5.503-8.566-6.683l-9.276-3.091
	c-5.933,7.875-15.272,13.042-25.891,13.042c-10.275,0-19.325-4.861-25.283-12.304l-13.74,6.011
	c-5.916,2.588-9.739,8.434-9.739,14.892v105.179h81.27v-84.825l19.306,23.301c5.642,6.81,15.693,7.858,22.621,2.361l35.37-28.071"/>
<g>
	<path style="fill:#A0D755;" d="M224.784,233.408l35.368-28.069l-10.807-16.209l-32.456,22.173l-22.555-35.381l-6.844,11.406
		c-3.032,5.052-4.633,10.834-4.633,16.726v3.694l19.306,23.3C207.805,237.856,217.857,238.905,224.784,233.408z"/>
	<path style="fill:#A0D755;" d="M118.827,187.907l-12.164-12.164c-3.132,3.011-5.076,7.146-5.076,11.65v113.306
		c0,4.488,3.639,8.127,8.127,8.127h16.254v-103.68C125.968,198.68,123.4,192.479,118.827,187.907z"/>
</g>
<path style="fill:#E6AF78;" d="M122.717,325.079h-4.876c-4.488,0-8.127-3.639-8.127-8.127v-8.127h16.254v13.003
	C125.968,323.624,124.513,325.079,122.717,325.079z"/>
<g>
</g>
<g>
</g>
<g>
</g>
<g>
</g>
<g>
</g>
<g>
</g>
<g>
</g>
<g>
</g>
<g>
</g>
<g>
</g>
<g>
</g>
<g>
</g>
<g>
</g>
<g>
</g>
<g>
</g>
</svg>
