<?xml version="1.0" encoding="iso-8859-1"?>
<!-- Generator: Adobe Illustrator 19.0.0, SVG Export Plug-In . SVG Version: 6.00 Build 0)  -->
<svg version="1.1" id="Layer_1" xmlns="http://www.w3.org/2000/svg" xmlns:xlink="http://www.w3.org/1999/xlink" x="0px" y="0px"
	 viewBox="0 0 512 512" style="enable-background:new 0 0 512 512;" xml:space="preserve">
<circle style="fill:#ECF0FA;" cx="256" cy="256" r="123.87"/>
<circle style="fill:#D5DCED;" cx="256" cy="256" r="74.32"/>
<circle style="fill:#FF507D;" cx="256" cy="256" r="57.806"/>
<path style="fill:#D23C69;" d="M284.903,294.538c-31.926,0-57.806-25.881-57.806-57.806c0-13.718,4.801-26.302,12.784-36.214
	c-24.073,6.984-41.687,29.157-41.687,55.483c0,31.926,25.881,57.806,57.806,57.806c18.208,0,34.427-8.436,45.023-21.593
	C295.901,293.7,290.504,294.538,284.903,294.538z"/>
<circle style="fill:#FFC850;" cx="33.03" cy="256" r="33.03"/>
<path style="fill:#FFAF3C;" d="M49.548,278.022c-18.243,0-33.032-14.789-33.032-33.032c0-7.839,2.744-15.03,7.305-20.694
	C10.065,228.287,0,240.957,0,256c0,18.243,14.789,33.032,33.032,33.032c10.405,0,19.672-4.821,25.727-12.339
	C55.833,277.543,52.749,278.022,49.548,278.022z"/>
<circle style="fill:#FFC850;" cx="478.97" cy="256" r="33.03"/>
<path style="fill:#FFAF3C;" d="M495.484,278.022c-18.243,0-33.032-14.789-33.032-33.032c0-7.839,2.744-15.03,7.305-20.694
	c-13.756,3.991-23.821,16.661-23.821,31.704c0,18.243,14.789,33.032,33.032,33.032c10.405,0,19.672-4.821,25.727-12.339
	C501.768,277.543,498.684,278.022,495.484,278.022z"/>
<circle style="fill:#FFC850;" cx="256" cy="33.03" r="33.03"/>
<path style="fill:#FFAF3C;" d="M272.516,55.054c-18.243,0-33.032-14.789-33.032-33.032c0-7.839,2.744-15.03,7.305-20.694
	c-13.756,3.991-23.821,16.661-23.821,31.704c0,18.243,14.789,33.032,33.032,33.032c10.405,0,19.672-4.821,25.727-12.339
	C278.801,54.575,275.716,55.054,272.516,55.054z"/>
<circle style="fill:#FFC850;" cx="256" cy="478.97" r="33.03"/>
<path style="fill:#FFAF3C;" d="M272.516,500.989c-18.243,0-33.032-14.789-33.032-33.032c0-7.839,2.744-15.03,7.305-20.694
	c-13.756,3.991-23.821,16.661-23.821,31.704C222.968,497.211,237.757,512,256,512c10.405,0,19.672-4.821,25.727-12.339
	C278.801,500.51,275.716,500.989,272.516,500.989z"/>
<circle style="fill:#FFF082;" cx="98.34" cy="98.34" r="33.03"/>
<path style="fill:#FFDC64;" d="M114.854,120.36c-18.243,0-33.032-14.789-33.032-33.032c0-7.839,2.744-15.03,7.305-20.694
	c-13.756,3.991-23.821,16.661-23.821,31.704c0,18.243,14.789,33.032,33.032,33.032c10.405,0,19.672-4.821,25.727-12.339
	C121.139,119.881,118.054,120.36,114.854,120.36z"/>
<circle style="fill:#FFF082;" cx="413.66" cy="413.66" r="33.03"/>
<path style="fill:#FFDC64;" d="M430.178,435.684c-18.243,0-33.032-14.789-33.032-33.032c0-7.839,2.744-15.03,7.305-20.694
	c-13.756,3.991-23.821,16.661-23.821,31.704c0,18.243,14.789,33.032,33.032,33.032c10.405,0,19.672-4.821,25.727-12.339
	C436.463,435.205,433.378,435.684,430.178,435.684z"/>
<circle style="fill:#FFF082;" cx="413.66" cy="98.34" r="33.03"/>
<path style="fill:#FFDC64;" d="M430.178,120.36c-18.243,0-33.032-14.789-33.032-33.032c0-7.839,2.744-15.03,7.305-20.694
	c-13.756,3.991-23.821,16.661-23.821,31.704c0,18.243,14.789,33.032,33.032,33.032c10.405,0,19.672-4.821,25.727-12.339
	C436.463,119.881,433.378,120.36,430.178,120.36z"/>
<circle style="fill:#FFF082;" cx="98.34" cy="413.66" r="33.03"/>
<path style="fill:#FFDC64;" d="M114.854,435.684c-18.243,0-33.032-14.789-33.032-33.032c0-7.839,2.744-15.03,7.305-20.694
	c-13.756,3.991-23.821,16.661-23.821,31.704c0,18.243,14.789,33.032,33.032,33.032c10.405,0,19.672-4.821,25.727-12.339
	C121.139,435.205,118.054,435.684,114.854,435.684z"/>
<g>
	<path style="fill:#D5DCED;" d="M156.903,264.258H90.839c-4.565,0-8.258-3.698-8.258-8.258s3.694-8.258,8.258-8.258h66.065
		c4.565,0,8.258,3.698,8.258,8.258S161.468,264.258,156.903,264.258z"/>
	<path style="fill:#D5DCED;" d="M421.161,264.258h-66.065c-4.565,0-8.258-3.698-8.258-8.258s3.694-8.258,8.258-8.258h66.065
		c4.565,0,8.258,3.698,8.258,8.258S425.726,264.258,421.161,264.258z"/>
	<path style="fill:#D5DCED;" d="M247.742,156.903V90.839c0-4.565,3.698-8.258,8.258-8.258s8.258,3.694,8.258,8.258v66.065
		c0,4.565-3.698,8.258-8.258,8.258S247.742,161.468,247.742,156.903z"/>
	<path style="fill:#D5DCED;" d="M247.742,421.161v-66.065c0-4.565,3.698-8.258,8.258-8.258s8.258,3.694,8.258,8.258v66.065
		c0,4.565-3.698,8.258-8.258,8.258S247.742,425.726,247.742,421.161z"/>
	<path style="fill:#D5DCED;" d="M180.089,191.767l-46.715-46.715c-3.228-3.228-3.225-8.454,0-11.679s8.451-3.228,11.679,0
		l46.715,46.715c3.228,3.228,3.225,8.454,0,11.679S183.316,194.995,180.089,191.767z"/>
	<path style="fill:#D5DCED;" d="M366.947,378.626l-46.715-46.715c-3.228-3.228-3.225-8.454,0-11.679s8.451-3.228,11.679,0
		l46.715,46.715c3.228,3.228,3.225,8.454,0,11.679C375.401,381.851,370.175,381.854,366.947,378.626z"/>
	<path style="fill:#D5DCED;" d="M320.233,180.089l46.715-46.715c3.228-3.228,8.454-3.225,11.679,0c3.225,3.225,3.228,8.451,0,11.679
		l-46.715,46.715c-3.228,3.228-8.454,3.225-11.679,0S317.005,183.316,320.233,180.089z"/>
	<path style="fill:#D5DCED;" d="M133.374,366.947l46.715-46.715c3.228-3.228,8.454-3.225,11.679,0s3.228,8.451,0,11.679
		l-46.715,46.715c-3.228,3.228-8.454,3.225-11.679,0C130.149,375.401,130.146,370.175,133.374,366.947z"/>
</g>
<g>
</g>
<g>
</g>
<g>
</g>
<g>
</g>
<g>
</g>
<g>
</g>
<g>
</g>
<g>
</g>
<g>
</g>
<g>
</g>
<g>
</g>
<g>
</g>
<g>
</g>
<g>
</g>
<g>
</g>
</svg>
