<svg xmlns="http://www.w3.org/2000/svg" xmlns:xlink="http://www.w3.org/1999/xlink" width="630" height="630" viewBox="0 0 630 630">
  <defs>
    <polygon id="rj_avatar-a" points="630 630 0 630 0 0 630 0"/>
    <circle id="rj_avatar-c" cx="295" cy="295" r="295"/>
    <linearGradient id="rj_avatar-e" x1="50%" x2="50%" y1="100.273%" y2="-1.527%">
      <stop offset="0%" stop-color="#C38666" stop-opacity=".8"/>
      <stop offset="70%" stop-color="#A45B35"/>
    </linearGradient>
    <linearGradient id="rj_avatar-f" x1="45.474%" x2="45.474%" y1="94.592%" y2="-.955%">
      <stop offset="10%" stop-color="#CA9274"/>
      <stop offset="100%" stop-color="#C38666"/>
    </linearGradient>
    <radialGradient id="rj_avatar-g" cx="49.998%" cy="50.005%" r="92.126%" fx="49.998%" fy="50.005%" gradientTransform="matrix(-.41558 0 0 -1 .708 1)">
      <stop offset="0%" stop-color="#FFF"/>
      <stop offset="54.4%" stop-color="#FDFEFE"/>
      <stop offset="74%" stop-color="#F6F8F9"/>
      <stop offset="87.9%" stop-color="#EAEFF2"/>
      <stop offset="99.2%" stop-color="#D9E3E8"/>
      <stop offset="100%" stop-color="#D8E2E7"/>
    </radialGradient>
    <radialGradient id="rj_avatar-h" cx="50.247%" cy="48.037%" r="66.671%" fx="50.247%" fy="48.037%" gradientTransform="scale(.71425 1) rotate(1.192 .603 10.144)">
      <stop offset="0%" stop-color="#C38666"/>
      <stop offset="70%" stop-color="#C38666" stop-opacity=".3"/>
      <stop offset="100%" stop-color="#D29E83" stop-opacity="0"/>
    </radialGradient>
    <radialGradient id="rj_avatar-i" cx="62.204%" cy="191.134%" r="231.158%" fx="62.204%" fy="191.134%" gradientTransform="matrix(-.41558 0 0 -1 .88 3.823)">
      <stop offset="95%" stop-opacity="0"/>
      <stop offset="100%" stop-opacity=".2"/>
    </radialGradient>
    <radialGradient id="rj_avatar-j" cx="50.002%" cy="50.005%" r="92.126%" fx="50.002%" fy="50.005%" gradientTransform="matrix(.41558 0 0 1 .292 0)">
      <stop offset="0%" stop-color="#FFF"/>
      <stop offset="54.4%" stop-color="#FDFEFE"/>
      <stop offset="74%" stop-color="#F6F8F9"/>
      <stop offset="87.9%" stop-color="#EAEFF2"/>
      <stop offset="99.2%" stop-color="#D9E3E8"/>
      <stop offset="100%" stop-color="#D8E2E7"/>
    </radialGradient>
    <radialGradient id="rj_avatar-k" cx="49.756%" cy="48.041%" r="66.671%" fx="49.756%" fy="48.041%" gradientTransform="matrix(-.7141 .0208 -.01486 -.99978 .86 .95)">
      <stop offset="0%" stop-color="#C38666"/>
      <stop offset="70%" stop-color="#C38666" stop-opacity=".3"/>
      <stop offset="100%" stop-color="#D29E83" stop-opacity="0"/>
    </radialGradient>
    <radialGradient id="rj_avatar-l" cx="37.796%" cy="191.134%" r="231.158%" fx="37.796%" fy="191.134%" gradientTransform="matrix(.41558 0 0 1 .22 0)">
      <stop offset="95%" stop-opacity="0"/>
      <stop offset="100%" stop-opacity=".2"/>
    </radialGradient>
    <radialGradient id="rj_avatar-m" cx="50.001%" cy="50.001%" fx="50.001%" fy="50.001%" gradientTransform="matrix(.99999 0 0 1 0 0)">
      <stop offset="0%" stop-color="#E1B8A3" stop-opacity=".5"/>
      <stop offset="90%" stop-color="#D29E83" stop-opacity="0"/>
    </radialGradient>
    <radialGradient id="rj_avatar-n" cy="50.001%" r="49.333%" fx="50%" fy="50.001%">
      <stop offset="0%" stop-color="#E1B8A3" stop-opacity=".5"/>
      <stop offset="90%" stop-color="#D29E83" stop-opacity="0"/>
    </radialGradient>
  </defs>
  <g fill="none" fill-rule="evenodd">
    <mask id="rj_avatar-b" fill="#fff">
      <use xlink:href="#rj_avatar-a"/>
    </mask>
    <use fill="#FFF" fill-rule="nonzero" xlink:href="#rj_avatar-a"/>
    <g mask="url(#rj_avatar-b)">
      <g transform="translate(20 33)">
        <mask id="rj_avatar-d" fill="#fff">
          <use xlink:href="#rj_avatar-c"/>
        </mask>
        <use fill="#90DDFF" xlink:href="#rj_avatar-c"/>
        <g mask="url(#rj_avatar-d)">
          <g transform="translate(38.995 316.106)">
            <path fill="#D29E83" fill-rule="nonzero" d="M498.313045,198.883777 C492.713249,186.781485 477.415808,168.847345 460.420068,163.892699 C439.410631,157.765052 391.98576,150.357307 374.400971,146.239059 C360.30458,142.934261 331.912897,117.439377 321.962803,108.881582 C320.177804,107.351583 318.716655,104.192135 318.680955,101.843586 C318.326505,74.1404034 329.378198,0.547448442 329.378198,0.547448442 L254.999844,0.547448442 L180.62404,0.547448442 C180.62404,0.547448442 191.675733,74.1378534 191.316183,101.843586 C191.288133,104.192135 189.819334,107.351583 188.039435,108.881582 C178.089341,117.439377 149.697658,142.934261 135.601267,146.239059 C118.013928,150.357307 70.5890568,158.017502 49.5821697,164.145148 C32.5813301,169.097245 17.2889894,186.778935 11.6891928,198.881227 C2.23379863,219.301615 9.05941434e-15,256.256192 9.05941434e-15,288.131173 L254.999844,288.131173 L509.999688,288.131173 C509.999688,256.258742 507.763339,219.304165 498.313045,198.883777 Z"/>
            <path fill="#E1B8A3" fill-rule="nonzero" d="M405.847552,158.797802 C467.919614,167.829896 494.041798,181.003188 502.222193,288.136273 L509.999688,288.136273 C509.999688,256.261292 507.763339,219.306715 498.313045,198.886327 C492.713249,186.784035 477.415808,168.849895 460.420068,163.895249 C439.410631,157.767602 391.98576,150.359857 374.400971,146.241609 C360.30458,142.936811 327.883899,115.465678 319.211355,104.549135 C327.779349,116.544327 351.828385,144.34186 372.899022,151.622106 C382.979166,155.105404 391.373761,156.691503 405.847552,158.797802 Z M137.103216,151.622106 C158.173853,144.34441 182.220339,116.544327 190.790883,104.549135 C182.120889,115.463128 149.700208,142.936811 135.601267,146.241609 C118.016478,150.359857 70.5916068,158.020052 49.5821697,164.147698 C32.5864301,169.099795 17.2889894,186.781485 11.6891928,198.883777 C2.23889863,219.304165 0.00254999844,256.258742 0.00254999844,288.133723 L7.78004524,288.133723 C15.9094403,181.686588 42.1412742,167.817146 104.154686,158.795252 C118.625927,156.691503 127.023072,155.105404 137.103216,151.622106 Z"/>
            <path fill="#C38666" fill-rule="nonzero" d="M243.897151,193.38088 C243.897151,193.38088 230.958459,189.277933 225.835512,187.314434 C199.190578,177.09149 112.628331,170.466594 112.628331,170.466594 C112.628331,170.466594 203.800975,174.085042 223.920463,177.55304 C222.752564,165.397198 216.227118,126.542871 216.227118,126.542871 C216.227118,126.542871 229.35706,169.421095 232.570058,180.238189 C234.288757,186.021585 243.897151,193.38088 243.897151,193.38088 Z M271.434584,189.958783 C271.207634,190.144932 270.947534,190.387182 270.664484,190.642182 C270.952634,190.425432 271.212734,190.198482 271.434584,189.958783 Z M243.897151,193.38088 C243.897151,193.38088 251.274296,201.010476 254.981994,201.107376 C259.852491,201.237426 267.293386,193.71493 270.667034,190.642182 C267.441286,193.082531 260.061591,194.18923 257.126543,194.30398 C253.735045,194.43403 243.897151,193.38088 243.897151,193.38088 Z M297.493018,174.207442 C293.55327,174.839842 286.308725,176.219391 286.308725,176.219391 L292.140571,138.249914 C290.493272,146.080959 280.731878,179.587939 271.434584,189.958783 C276.305081,185.837985 287.137474,183.861736 292.660771,183.063587 C318.762555,179.279389 318.752355,179.281939 397.368807,170.466594 C397.368807,170.466594 323.237802,170.071345 297.493018,174.207442 Z"/>
            <path stroke="#A45B35" stroke-width="3.825" d="M498.313045,198.883777 C492.713249,186.781485 477.415808,168.847345 460.420068,163.892699 C439.410631,157.765052 391.98576,150.357307 374.400971,146.239059 C360.30458,142.934261 331.912897,117.439377 321.962803,108.881582 C320.177804,107.351583 318.716655,104.192135 318.680955,101.843586 C318.326505,74.1404034 329.378198,0.547448442 329.378198,0.547448442 L254.999844,0.547448442 L180.62404,0.547448442 C180.62404,0.547448442 191.675733,74.1378534 191.316183,101.843586 C191.288133,104.192135 189.819334,107.351583 188.039435,108.881582 C178.089341,117.439377 149.697658,142.934261 135.601267,146.239059 C118.013928,150.357307 70.5890568,158.017502 49.5821697,164.145148 C32.5813301,169.097245 17.2889894,186.778935 11.6891928,198.881227 C2.23379863,219.301615 9.05941434e-15,256.256192 9.05941434e-15,288.131173 L254.999844,288.131173 L509.999688,288.131173 C509.999688,256.258742 507.763339,219.304165 498.313045,198.883777 Z"/>
          </g>
        </g>
        <g mask="url(#rj_avatar-d)">
          <g fill-rule="nonzero" transform="translate(25.695 387.506)">
            <path fill="#303D45" d="M517.684582,131.992218 C490.965698,80.2833497 439.51948,87.6120452 390.26626,73.7426037 C389.072861,82.8843481 356.476231,125.964022 348.734435,150.398107 C344.386688,146.769459 339.197441,141.919362 335.451494,137.479815 C317.122105,115.950178 289.956971,46.2918705 280.840727,100.688437 C282.822076,76.2696521 293.598369,70.8891554 308.56176,91.3579929 C324.64715,113.384879 325.24385,124.757872 348.193836,148.710008 C352.248333,131.877468 361.025428,119.999575 371.235622,105.094834 C381.116866,90.6541933 388.333361,84.1414973 389.389061,71.2869552 C385.704313,65.1465589 386.586612,62.3976606 380.632366,58.419663 C343.262139,33.1440785 369.942772,7.49619419 336.068593,1.38894793 C335.803393,4.44384606 335.469344,7.86594396 335.188844,10.4388924 C342.433389,14.1669901 344.600888,28.6764812 333.447195,39.2997747 C315.722156,58.7588128 287.241223,59.7252622 279.815628,89.593394 L279.797778,89.590844 C277.433929,98.4571885 275.54183,112.02828 274.644231,119.984275 L268.383985,183.474137 L262.085488,121.108825 C256.977842,74.2934033 250.301946,69.7136061 228.468859,55.247465 C214.002718,45.6594708 190.364232,31.1933297 198.080528,14.8376397 C198.960277,12.9455409 200.031276,11.7827416 201.359826,10.9080921 C200.977326,7.16979439 200.752926,5.00229572 200.457126,1.52919784 C172.491293,2.72004711 176.790591,42.2832729 155.612854,56.838664 C150.061507,60.6534617 147.231009,64.1801095 145.23946,69.917606 C146.593509,85.9341462 182.224637,122.131374 188.449183,148.710008 C211.615919,124.250423 211.794419,113.563379 227.974159,91.4395928 C241.909901,72.4038545 253.290544,74.3571533 255.684992,100.117238 C254.369193,92.3779923 251.253095,80.5306995 244.500699,80.5306995 C238.936603,80.5306995 233.137906,88.7365945 230.269158,92.6967421 C214.206718,114.825629 211.626119,130.653469 187.819334,150.410857 C186.172035,145.46131 184.239136,140.488813 181.933937,135.860566 C172.498943,116.801877 146.950509,78.3453508 144.046061,74.6172531 C132.754668,77.7945512 115.544728,81.313549 105.201934,83.032248 C37.6167758,94.2802911 11.4180918,116.103178 1.45524789,218.261215 C249.320196,215.752017 350.323084,216.843416 534.940422,216.843416 C532.632673,194.11273 528.096226,152.172906 517.684582,131.992218 Z"/>
            <path fill="#434E54" d="M370.220722,104.546585 C361.395178,117.434277 354.408182,128.26157 350.055335,141.830112 C355.071182,113.833679 386.867112,87.3264454 383.424614,70.5857056 C381.950715,63.41511 356.583331,47.4291698 355.270081,23.6657343 C362.269827,45.437621 388.399661,60.9773115 388.443011,71.4093551 C388.511861,88.4790446 388.001861,78.5672007 370.220722,104.546585 Z M534.738972,214.821267 C535.623821,192.682181 528.180376,149.582107 518.954481,131.696418 C492.235598,79.9875498 438.468881,86.5843958 389.218211,72.7149543 C388.782161,73.270854 390.46771,76.9479517 389.287061,78.5289507 C504.41694,99.7449378 517.526482,125.033272 534.738972,214.821267 Z M155.620504,56.841214 C169.765345,45.1188712 174.005992,33.7637281 177.25214,23.6631843 C169.984645,65.1771589 159.119101,49.4768185 151.191156,70.2669558 C146.657259,82.1575985 181.798788,114.644579 186.549435,141.827562 C180.322338,131.181319 173.646443,118.079427 164.820898,105.191734 C157.951202,95.1523906 153.575405,85.9723962 146.769459,78.2459009 C143.525861,61.1277614 150.224707,61.3139113 155.620504,56.841214 Z M146.766909,78.2484509 C145.58626,76.6674519 144.48721,75.1782528 144.051161,74.6223531 C94.8004908,88.4892446 45.6365209,79.9875498 18.9201872,131.698968 C9.69174285,149.584657 5.08389567,186.174585 2.54154722,208.362121 C7.46049421,181.400988 14.7917397,147.435009 30.4971801,126.943221 C57.1293638,90.8173932 106.272934,83.8456975 146.766909,78.2484509 Z"/>
            <path fill="#202D36" d="M318.912204,55.0995651 C306.511561,62.2905607 296.010668,69.3489564 289.044072,79.2761003 C305.789912,80.1991997 318.167604,110.128531 321.515752,114.198329 C290.066621,70.4250557 278.165779,100.173337 274.340781,128.04992 C275.44238,119.007626 276.34763,103.580135 278.132629,96.9577895 C278.652828,94.3236411 279.211278,91.8042426 279.800328,89.590844 L279.818178,89.593394 C287.243773,59.7252622 315.724706,58.7588128 333.449745,39.2997747 C344.603438,28.6764812 342.433389,14.1669901 335.191394,10.4388924 C335.469344,7.86594396 335.805943,4.44384606 336.071143,1.38894793 C337.930092,1.72809772 339.587591,2.13354747 341.12524,2.5848972 C363.970676,22.6814349 334.497794,48.1253193 318.912204,55.0995651 Z M214.660617,55.0995651 C227.06381,62.2905607 242.231201,70.8126555 249.177396,79.8778999 C236.942504,77.6517513 223.343362,95.9275901 216.542516,112.07673 C245.867498,74.6759031 254.792493,95.9275901 264.143337,128.05247 C263.044288,119.012726 260.25714,103.582685 258.472141,96.9603395 C257.951941,94.3261911 257.396041,91.8067926 256.804442,89.593394 L256.789142,89.595944 C249.363546,59.7278122 221.900063,58.7613628 204.175024,39.3023247 C193.021331,28.6790312 194.93893,14.1695401 202.183475,10.4414424 C201.905525,7.86849396 201.571475,4.44639606 201.306276,1.39149793 C199.447327,1.73064772 197.789828,2.13609747 196.252179,2.58744719 C177.10679,25.9658329 200.653476,46.6029703 214.660617,55.0995651 Z"/>
            <path fill="#131F26" d="M334.283594,34.5236277 C334.362644,19.9860865 333.878145,28.0517316 335.349494,11.5991417 C341.02069,14.6412898 341.74234,27.1286322 334.283594,34.5236277 Z M202.354325,33.1491785 C196.430679,25.3971832 195.698829,17.4794381 201.469476,11.4996917 C202.851575,24.3975839 202.150325,22.8420848 202.354325,33.1491785 Z"/>
            <path fill="#091217" d="M389.74096,69.1832065 C389.215661,60.151112 369.817823,52.6184166 361.211578,33.0369786 C355.048232,19.0884871 360.897928,3.11529687 335.545844,0.547448442 C334.156094,8.67429347 332.924445,26.5395825 333.294195,35.1738773 C320.447303,49.0025188 300.575165,52.5801666 287.942473,67.4492075 C274.458081,83.3203978 268.613484,117.684177 268.391635,188.999983 L271.533233,186.957434 C271.533233,186.957434 275.031831,119.420726 275.057331,119.221826 C282.921526,51.8330171 307.92171,67.7501073 333.653745,39.5012246 C345.182288,28.4546314 342.428289,13.8176403 335.494844,10.2705925 C335.795743,7.41459424 336.076243,4.58664597 336.323593,1.72809772 C358.13118,5.73414527 351.901533,18.5708374 358.722779,34.2482278 C367.790574,55.0919151 384.980113,59.6436623 386.089363,69.7518561 C387.848862,85.7683963 378.291467,92.5666921 368.706023,106.558534 C353.627882,128.38397 350.142035,139.517263 348.048486,148.143908 C325.16225,124.107623 325.1495,113.571029 308.78361,91.182043 C291.331421,67.2987576 279.869178,78.4983508 275.057331,119.221826 C275.55203,112.52808 284.670825,75.4256026 295.566968,81.8617987 C308.16141,89.2006942 320.534003,120.387175 335.247494,137.671065 C339.171941,142.319712 344.226038,146.983659 348.877235,150.885156 C357.56508,120.547825 389.67721,88.4994446 390.71761,73.8624536 C440.939829,88.0302449 526.986976,73.4927038 534.642072,216.568016 C429.740236,217.129016 315.813956,214.828917 1.76889769,217.980715 C6.32064491,170.966394 14.0190902,124.885372 41.8625232,104.115635 C53.8092659,95.1727906 67.6608574,90.4960934 81.9280987,87.5202452 C101.810436,83.3994478 124.059173,80.7499994 143.773211,75.4154026 C145.78261,77.9654011 179.995939,129.47027 187.694384,150.887706 C215.395017,129.20507 226.47221,88.5172946 241.723751,81.4920489 C252.341944,76.6139019 260.999189,111.93393 261.493889,118.602176 C257.337391,75.5301526 243.7714,61.4363112 218.082715,106.048534 C205.424523,128.03972 202.068725,134.001617 188.604733,148.149008 C183.198737,125.214322 145.52251,81.9663486 147.159609,69.960956 C148.776308,58.1136632 163.260299,61.3853112 172.909493,36.1887766 C178.32059,22.0617853 177.12209,6.48639481 200.214876,1.87854763 C200.464776,4.85439581 200.768226,7.79454401 201.071676,10.7678422 C194.75023,14.9268896 193.143731,28.9008811 203.244274,38.6699251 C212.340119,49.0866687 228.754459,55.0307151 239.594502,63.34371 C252.372544,73.204554 257.426641,83.3025478 261.493889,118.602176 C261.583139,119.372276 264.987387,187.304234 264.987387,187.304234 L268.386535,189.005083 C266.685686,118.030977 259.88229,75.3567527 246.147998,63.39726 C234.285405,52.8147665 213.571768,46.0674706 203.519674,34.2533278 C203.825674,25.3895332 202.078925,7.43244423 200.987526,0.667298368 C178.01459,3.00819694 177.36434,17.594188 172.437743,30.3288802 C159.267001,64.3739094 146.596059,54.6227154 144.49741,68.7293067 C144.30106,70.0476559 144.60451,71.0396053 144.92326,72.7940042 C125.594272,76.7414018 101.471287,79.3296502 82.0887486,82.8741481 C53.1641163,88.1551948 25.8740329,103.422036 13.4300406,132.476718 C3.97719634,154.526554 1.23849802,193.80673 0.544898443,218.011315 C0.51684846,218.184715 0.51684846,218.386165 0.51684846,218.559565 C0.904448223,218.590165 1.31754797,218.590165 1.70514773,218.590165 C334.416194,222.127013 533.249773,217.116266 536.016521,217.116266 C536.99062,81.0483492 462.614816,87.0000456 389.74096,69.1832065 Z M334.538594,33.7611781 C334.579394,26.2820327 334.806344,17.622238 335.349494,11.5991417 C339.424391,14.5061399 342.588939,24.168084 334.538594,33.7611781 Z M202.224275,32.6621288 C195.461679,23.8110842 198.144278,15.2303395 201.214476,12.2621413 C201.854525,18.2444376 202.106975,26.6211825 202.224275,32.6621288 Z"/>
          </g>
        </g>
      </g>
    </g>
    <g mask="url(#rj_avatar-b)">
      <g transform="translate(58.695 4.056)">
        <polygon fill="#2A232B" fill-rule="nonzero" points="3.748 3.825 1.249 3.825 1.249 1.275 3.748 1.275" transform="translate(252.8 286.95)"/>
        <path fill="url(#rj_avatar-e)" fill-rule="nonzero" d="M10.518343,103.682536 C28.3147821,115.259529 52.1011675,126.158222 72.9550548,126.158222 C92.9164425,126.158222 117.184778,115.170279 135.322917,103.542286 C134.953167,102.450887 134.728767,101.344187 134.713467,100.319088 C134.392167,75.1327534 143.243212,13.5655911 145.107261,0.91249883 L0.792648903,0.91249883 C2.65414776,13.5681411 11.5077423,75.1327534 11.1813425,100.316538 C11.1685926,101.372237 10.9237927,102.537587 10.518343,103.682536 Z" transform="translate(182.35 346.6)"/>
        <g transform="translate(.3)">
          <g fill-rule="nonzero" transform="translate(89.248 219.555)">
            <path fill="#D29E83" stroke="#A45B35" stroke-width="3.634" d="M33.9173982,19.9395832 C30.5840406,13.9971949 20.259353,-0.603202066 9.74086553,2.97482786 C3.0814178,5.23986373 1.76357874,12.6478634 0.692834504,19.1886087 C-0.731594477,27.8878 1.83383119,45.0948051 4.0576846,51.3109356 C6.19190557,57.2872388 12.616371,68.825598 16.8097155,73.2224324 C21.9696368,78.612491 28.3771447,95.8098061 29.3921715,97.5951874 C30.9910203,100.41013 33.1131288,104.64708 39.3777093,104.116553 C46.2890969,103.525463 50.4824414,99.6349309 53.5638592,98.9784339 C61.1753487,97.36505 42.5923645,35.4072346 33.9173982,19.9395832 Z"/>
            <path fill="#A45B35" d="M27.1247131,55.9693998 C26.8049433,54.5619283 27.1416706,52.1903025 27.4687079,49.9034641 C27.7690976,47.8176931 28.0501074,45.8457795 27.8781101,44.4504206 C27.231303,39.2323593 23.5830206,29.3122289 21.1992823,23.9391278 C18.4570143,17.7520672 14.02142,9.96131284 8.45209645,7.95306178 C6.1507231,7.12214488 4.63666168,8.11536917 3.75729481,9.12555094 C3.11291027,9.86441291 2.96998288,10.7365123 3.18074022,10.8382572 C3.38907508,10.9400021 3.87115223,10.2229427 4.56640923,9.54222064 C5.13569633,8.98746854 5.96903573,8.51023638 7.11245491,8.60955881 C6.65218024,11.2088994 4.28539943,25.2836143 5.3101162,34.8815524 C6.11680812,42.4276345 9.16915594,48.064788 9.6463881,48.9102398 C9.71664055,49.7992967 9.83292047,50.6689736 10.0049178,51.5144255 C12.2554187,62.5295251 22.0471567,75.0538411 25.4556118,79.1527081 C26.0830388,79.9109501 26.7419584,80.3566897 26.9042658,80.1774249 C27.0641506,79.993315 26.6765509,79.239918 26.0491239,78.4816761 C22.6866963,74.4143015 12.9894357,61.9335905 10.8140323,51.3060906 C8.50781391,40.0269387 16.4293832,23.3117007 18.197807,19.7724308 C19.0965538,21.4318421 19.8620633,23.0282684 20.4507304,24.35822 C20.911005,25.4023167 21.4245747,26.6256784 21.9502568,27.9410949 C20.911005,29.7870386 13.6313978,43.2512839 16.2864559,54.0241337 C17.2699901,57.9994533 21.7007395,63.1206146 24.6368074,64.5208186 C26.2526137,65.2960181 26.8630833,66.4515497 27.5656078,67.7887688 C28.3795672,69.3391677 29.3049615,71.0954789 31.9939346,72.3721355 C32.5389967,72.6337653 33.0331864,72.7379327 33.4716586,72.7379327 C34.2299005,72.7379327 34.8064551,72.4108955 35.2279698,72.0281407 C35.2715748,72.7064402 35.2691523,73.5785396 35.2497723,74.377964 C35.2207023,75.4220608 35.3515172,76.2747802 35.5816546,76.2941602 C35.8093694,76.3135402 36.0564642,75.4898907 36.0831117,74.4530615 C36.1218717,73.1788274 36.1146042,71.601781 35.9086918,70.8483841 C35.3079122,68.6269532 33.4668136,66.117245 31.5167025,63.4646094 C29.6053513,60.8434663 27.6237477,58.1472257 27.1247131,55.9693998 Z M9.56886816,46.2043093 C4.29508943,28.9100942 11.158027,13.9850824 12.3402062,11.6110342 C14.3993297,13.6023277 16.2162034,16.2598083 17.6939273,18.8664164 C16.6183381,20.9449199 9.7893155,34.5714727 9.56886816,46.2043093 Z M32.3185494,71.5000361 C29.8863611,70.3493494 29.0748242,68.7989506 28.2826673,67.3018466 C27.5728753,65.9476701 26.8340133,64.5498886 24.9662671,63.6559867 C24.5592874,63.4597644 24.1135478,63.1642196 23.6532731,62.8250698 C17.6309424,47.6529632 24.3121926,41.020163 25.9861389,39.6611415 C26.497286,41.5167752 26.8800408,43.2173689 27.0496157,44.5812355 C27.202233,45.8336671 26.9236457,47.8249606 26.6450584,49.7508467 C26.3010637,52.1370075 25.9522239,54.6055333 26.3131762,56.2043821 C26.8606608,58.5832754 28.9028268,61.3667259 30.8771629,64.0581215 C32.6286292,66.4467047 34.4285454,68.9103855 35.0462824,70.9186365 C34.7846526,71.3159262 33.9561582,72.2776581 32.3185494,71.5000361 Z"/>
          </g>
          <g fill-rule="nonzero" transform="translate(362.578 219.555)">
            <path fill="#D29E83" stroke="#A45B35" stroke-width="3.634" d="M23.5854431,19.9395832 C26.9212232,13.9971949 37.2459109,-0.603202066 47.7619758,2.97482786 C54.4238461,5.23986373 55.7392626,12.6478634 56.8124294,19.1886087 C58.2368583,27.8878 55.6714327,45.0948051 53.4475793,51.3109356 C51.3133583,57.2872388 44.8888929,68.825598 40.6907034,73.2224324 C35.5332046,78.612491 29.1232742,95.8098061 28.1106699,97.5951874 C26.516666,100.41013 24.3921351,104.64708 18.1275545,104.116553 C11.2137445,103.525463 7.02282248,99.6349309 3.93898218,98.9784339 C-3.67250737,97.36505 14.9128993,35.4072346 23.5854431,19.9395832 Z"/>
            <path fill="#A45B35" d="M25.9861389,63.4597644 C24.0360278,66.1148225 22.1973516,68.6221082 21.5941496,70.8435391 C21.3858147,71.596936 21.3809697,73.1739824 21.4197297,74.4482165 C21.4487997,75.4850457 21.693472,76.3086952 21.9211868,76.2893152 C22.1489017,76.2699352 22.2797166,75.4172158 22.2530691,74.373119 C22.2336891,73.5712721 22.2336891,72.7015952 22.2772941,72.0232957 C22.6988088,72.4060505 23.2753634,72.7330877 24.0336053,72.7330877 C24.4745,72.7330877 24.9662671,72.6289203 25.5089068,72.3672905 C28.1954573,71.0930564 29.1232742,69.3343227 29.9372336,67.7839238 C30.6373356,66.4467047 31.2526501,65.2935956 32.866034,64.5159736 C35.8045244,63.1157696 40.2328512,57.9946083 41.2163855,54.0192887 C43.8714436,43.2464389 36.5942588,29.7821936 35.5525846,27.9362499 C36.0782667,26.6184109 36.5942588,25.3950492 37.052111,24.353375 C37.6432006,23.0234235 38.4062875,21.4269971 39.3050344,19.7675858 C41.0734581,23.3044333 48.9950275,40.0220937 46.6912316,51.3012456 C44.5206732,61.9287455 34.8209901,74.4094565 31.45614,78.4768311 C30.8311354,79.2350731 30.4435357,79.98847 30.6034206,80.1725799 C30.7633055,80.3518447 31.422225,79.9085276 32.0520746,79.1478631 C35.4581071,75.0489961 45.2522676,62.5246801 47.505191,51.5095805 C47.6747659,50.6617061 47.7886233,49.7944517 47.8588758,48.9053948 C48.3361079,48.059943 51.3933007,42.4227895 52.1975702,34.8767074 C53.2198644,25.2811918 50.8530836,11.2040544 50.3952315,8.60471382 C51.5410731,8.50296889 52.367145,8.98262354 52.9412771,9.53737565 C53.6365341,10.2180977 54.1186113,10.9351571 54.3269461,10.8334122 C54.535281,10.7316673 54.3923536,9.85956791 53.7503916,9.12070594 C52.8710247,8.11052417 51.3569633,7.11729988 49.0555899,7.94821679 C43.4862664,9.95889034 39.0482496,17.7472222 36.308404,23.9342828 C33.9246657,29.3073839 30.2763833,39.2275143 29.6271538,44.4455756 C29.4527339,45.8409346 29.7361662,47.8128481 30.0389785,49.8986191 C30.3660158,52.18788 30.7003205,54.5595058 30.3805508,55.9645548 C29.8839386,58.1472257 27.902335,60.8434663 25.9861389,63.4597644 Z M39.8113365,18.8639939 C41.291483,16.2598083 43.1083567,13.5999052 45.1674802,11.6086117 C46.3496593,13.98266 53.2101744,28.9076717 47.9412407,46.2018868 C47.7159484,34.5714727 40.8893483,20.9449199 39.8113365,18.8639939 Z M22.4565589,70.9186365 C23.0718735,68.9103855 24.8742122,66.4467047 26.6256785,64.0581215 C28.602437,61.3667259 30.6421806,58.5832754 31.1920877,56.2043821 C31.5506174,54.6055333 31.2017777,52.1370075 30.8602054,49.7508467 C30.5816181,47.8249606 30.3030308,45.8336671 30.4580707,44.5812355 C30.6228006,43.2173689 31.0079778,41.5143527 31.519125,39.6611415 C33.1930713,41.020163 39.8743215,47.6529632 33.8568358,62.8250698 C33.3941386,63.1642196 32.9483989,63.4621869 32.5414192,63.6559867 C30.6736731,64.5498886 29.9396561,65.9476701 29.2250191,67.3018466 C28.4352847,68.7989506 27.6213252,70.3493494 25.189137,71.5000361 C23.5491057,72.2776581 22.7206112,71.3159262 22.4565589,70.9186365 Z"/>
          </g>
          <g transform="translate(102.561 25.52)">
            <path fill="#D29E83" fill-rule="nonzero" d="M152.443889,2.21062734 C68.4325673,2.34576373 0.204917854,72.7594714 0.334865762,159.511933 C0.357356746,173.288196 2.09416051,186.64885 5.3378602,199.374618 L5.3403592,199.374618 C5.37034718,199.512304 26.1845034,251.593359 31.4873776,284.038841 C37.4349933,320.438974 57.631897,361.122676 72.2260466,375.28395 C87.3499838,389.960272 122.908229,412.719279 152.44139,412.719279 C180.597603,412.719279 217.530298,389.960272 232.656734,375.28395 C247.250884,361.122676 267.447788,320.438974 273.395403,284.038841 C278.698278,251.593359 299.514933,199.512304 299.542422,199.374618 L299.54742,199.374618 C302.791119,186.6463 304.530422,173.288196 304.550414,159.511933 C304.68536,72.7594714 236.455212,2.34576373 152.443889,2.21062734 Z"/>
            <path fill="#CA9274" fill-rule="nonzero" d="M244.654425,34.4980252 C276.806536,63.3560186 297.290824,106.951527 297.223351,155.710266 C297.20086,169.486529 295.546524,182.844633 292.460261,195.572951 L292.457762,195.572951 C292.430273,195.710637 272.618215,247.791692 267.570238,280.237174 C261.90501,316.639857 242.682715,357.323559 228.793283,371.482283 C214.396554,386.161154 179.243146,408.920162 152.443889,408.920162 C124.332658,408.920162 90.4887256,386.161154 76.0944958,371.482283 C62.2050637,357.323559 42.9827694,316.639857 37.3200394,280.237174 C32.272063,247.794241 12.4600051,195.713187 12.4325161,195.572951 L12.4300171,195.572951 C9.34125535,182.844633 7.68691853,169.486529 7.66692654,155.710266 C7.59695459,106.954077 28.078744,63.3636678 60.2283561,34.5031247 C23.7879641,63.2565786 0.259895815,108.552766 0.334865762,159.511933 C0.357356746,173.288196 2.09416051,186.64885 5.3378602,199.374618 L5.3403592,199.374618 C5.37034718,199.512304 26.1845034,251.593359 31.4873776,284.038841 C37.4349933,320.438974 57.631897,361.122676 72.2260466,375.28395 C87.3499838,389.960272 122.908229,412.719279 152.44139,412.719279 C180.597603,412.719279 217.530298,389.960272 232.656734,375.28395 C247.250884,361.122676 267.447788,320.438974 273.395403,284.038841 C278.698278,251.593359 299.514933,199.512304 299.542422,199.374618 L299.54742,199.374618 C302.791119,186.6463 304.530422,173.288196 304.550414,159.511933 C304.630382,108.550216 281.099815,63.2489293 244.654425,34.4980252 Z"/>
            <path stroke="#A45B35" stroke-width="3.787" d="M152.443889,2.21062734 C68.4325673,2.34576373 0.204917854,72.7594714 0.334865762,159.511933 C0.357356746,173.288196 2.09416051,186.64885 5.3378602,199.374618 L5.3403592,199.374618 C5.37034718,199.512304 26.1845034,251.593359 31.4873776,284.038841 C37.4349933,320.438974 57.631897,361.122676 72.2260466,375.28395 C87.3499838,389.960272 122.908229,412.719279 152.44139,412.719279 C180.597603,412.719279 217.530298,389.960272 232.656734,375.28395 C247.250884,361.122676 267.447788,320.438974 273.395403,284.038841 C278.698278,251.593359 299.514933,199.512304 299.542422,199.374618 L299.54742,199.374618 C302.791119,186.6463 304.530422,173.288196 304.550414,159.511933 C304.68536,72.7594714 236.455212,2.34576373 152.443889,2.21062734 Z"/>
          </g>
          <g fill-rule="nonzero" transform="translate(203.998 358.803)">
            <path fill="url(#rj_avatar-f)" d="M38.973568,23.0679407 L65.4202593,22.4081281 C62.3570714,36.6562551 41.0677558,34.6098798 38.973568,23.0679407 Z"/>
            <path fill="#A45B35" d="M39.3433181,23.9700033 C38.1607554,23.8106283 38.3392554,22.1244406 39.5983181,22.2423781 C39.7353806,22.2615031 53.3300701,23.9827533 64.7094467,21.5570655 C65.9398219,21.318003 66.3031969,23.0073782 65.1238217,23.2591907 C56.208383,25.165316 44.6728188,24.7190659 39.3433181,23.9700033 Z M51.2645698,12.5906267 C46.4737566,12.5906267 41.8295684,10.929939 37.1630678,10.1171264 C31.935567,9.20231377 26.7271913,9.98643888 21.4965031,10.4486264 C16.1542523,10.923564 4.49756314,10.4071889 1.20806267,8.32575115 C-0.63431259,7.15593849 -0.290062541,4.43381311 1.78500025,3.70706301 C3.74212553,3.00581292 6.79256346,4.45931312 8.76881375,4.81312567 C17.923315,6.45468839 22.7428157,4.70475065 30.7689419,4.43700061 C43.0440061,4.06725056 44.3476938,9.22143878 59.660446,6.12637585 C76.1238858,2.79862539 83.5380119,5.31675074 95.3508885,1.75950024 C96.9701388,1.26862518 98.895389,-0.0255000035 100.594327,0.847875117 C102.55464,1.86150026 102.459015,4.62506314 100.438139,5.51437576 C89.5815127,10.3020014 77.571011,8.36718866 65.5190718,10.3785014 C60.7951961,11.1626265 56.087258,12.5906267 51.2645698,12.5906267 Z"/>
          </g>
          <g fill-rule="nonzero" transform="translate(145.158 182.58)">
            <path fill="url(#rj_avatar-g)" d="M1.65698842,15.5945101 C7.57349277,26.14232 6.68303362,28.6851775 25.2220259,25.8462652 C47.4628497,25.8462652 65.8687321,21.3113496 65.8687321,13.0906675 C65.8687321,4.86998533 54.5658679,-3.2382419 26.4039498,1.79239328 C12.597243,4.25722092 1.65698842,11.474989 1.65698842,15.5945101 Z" transform="translate(11.475 45.9)"/>
            <g transform="translate(32.704 41.884)">
              <path fill="#1B1818" stroke="#000" stroke-width="1.5" d="M27.0534342,19.7094411 C25.0590811,27.0350741 17.5016533,31.351965 10.1599553,29.3392519 C2.82284731,27.3288338 -1.50781356,19.7507511 0.488834533,12.4228231 C2.48318763,5.09030512 10.0543854,0.773414259 17.3914934,2.78842233 C24.7217164,4.79654541 29.0523773,12.3746281 27.0534342,19.7094411 Z"/>
              <path fill="#2A2A2A" d="M24.9122012,19.879271 C22.9637481,25.5066056 17.0931437,28.7861574 11.3740091,27.2209689 C6.09551418,25.7728253 2.76317736,20.7077652 3.19693195,15.3535353 C5.15456508,15.1997704 7.29809303,15.1538705 9.52194591,15.2617354 C9.49899593,15.3374703 9.45998097,15.4040252 9.43932599,15.4820552 C8.73705666,18.0639277 10.3733901,20.7720251 13.0929625,21.5178994 C15.8217149,22.2660687 18.6032522,20.7697301 19.3055216,18.1878576 C19.3950265,17.8504929 19.4432214,17.5131282 19.4546964,17.1803535 C21.3205297,17.8596729 23.1519379,18.738657 24.9122012,19.879271 Z"/>
              <path fill="#000" d="M15.6358201,11.9569385 C12.8749377,11.1674593 10.0612704,12.7418278 9.34982108,15.4912352 C8.63607676,18.2245775 10.2953602,21.0864398 13.0539475,21.878214 C15.8171249,22.6699883 18.6307922,21.0933248 19.3445365,18.3576874 C20.0628709,15.60828 18.3967024,12.7487128 15.6358201,11.9569385 Z M16.2371095,21.6693692 C15.0896106,22.0273889 13.9030967,21.5523244 13.588682,20.6090803 C13.2834473,19.6658362 13.9627667,18.6193172 15.1194456,18.2704775 C16.2738295,17.9124578 17.4580483,18.3875224 17.774758,19.3238815 C18.0868777,20.2671256 17.4006734,21.3136446 16.2371095,21.6693692 Z" opacity=".9"/>
              <path fill="#FFF" d="M6.45123884,23.3148827 C5.60208965,23.8243722 4.33525086,23.3676676 3.61003155,22.2890186 C2.88481225,21.2195497 2.99267714,19.9389409 3.84412133,19.4271564 C4.68868052,18.9245519 5.9669943,19.3789614 6.68762362,20.4507254 C7.40366293,21.5224894 7.30038803,22.8076882 6.45123884,23.3148827 Z" opacity=".6"/>
              <path fill="#FFF" d="M24.5794265,15.4682852 C22.6378584,16.6318491 19.7209162,15.5853301 18.0685178,13.1273874 C16.4161193,10.6671498 16.6639791,7.7295526 18.6055472,6.57057871 C20.5425254,5.40242482 23.4663526,6.44894382 25.109571,8.90918147 C26.7596745,11.3694191 26.5209947,14.3024263 24.5794265,15.4682852 Z" opacity=".8"/>
            </g>
            <path fill="#D29E83" d="M1.83599825,59.6676478 C1.83599825,91.3546825 21.3595446,117.042593 45.4409566,117.042593 C69.5223686,117.042593 89.045915,91.3546825 89.045915,59.6676478 C89.045915,27.9806132 69.5223686,2.2927028 45.4409566,2.2927028 C21.3595446,2.2927028 1.83599825,27.9806132 1.83599825,59.6676478 Z M13.1319775,61.4944661 C13.1319775,57.374945 24.074527,50.159472 37.8766438,47.6923493 C66.038562,42.6617141 77.3414262,50.7722364 77.3414262,58.9906235 C77.3414262,67.2113056 58.9355438,71.7462213 36.69472,71.7462213 C18.1580227,74.5851336 19.0484818,72.042276 13.1319775,61.4944661 Z"/>
            <path fill="url(#rj_avatar-h)" d="M10.7796047,62.0705105 C10.6074799,77.9151754 30.6244508,90.6822481 52.1767752,90.6065132 C73.7245096,90.5147133 91.161903,77.6099407 91.104528,61.7629808 C91.0517431,45.920611 73.5546798,33.1512432 51.9977654,33.2338632 C30.4431459,33.3210731 11.0136945,40.3965513 10.7796047,62.0705105 Z M13.1319775,61.4944661 C13.1319775,57.374945 24.074527,50.159472 37.8766438,47.6923493 C66.038562,42.6617141 77.3414262,50.7722364 77.3414262,58.9906235 C77.3414262,67.2113056 58.9355438,71.7462213 36.69472,71.7462213 C18.1580227,74.5851336 19.0484818,72.042276 13.1319775,61.4944661 Z"/>
            <path fill="url(#rj_avatar-i)" d="M13.1319775,61.4944661 C19.0484818,72.042276 18.1580227,74.5851336 36.697015,71.7462213 C58.9378387,71.7462213 77.3437212,67.2113056 77.3437212,58.9906235 C77.3437212,50.7699414 66.040857,42.6617141 37.8789388,47.6923493 C24.072232,50.157177 13.1319775,57.374945 13.1319775,61.4944661 Z"/>
            <path fill="#A45B35" d="M75.0831483,68.3840495 C75.0831483,68.3840495 71.9091664,70.1695578 69.6807235,70.7616672 C66.9060711,71.4914765 58.2126194,72.8156902 43.1459588,74.8811883 C60.3354924,73.6625444 67.1975359,72.9992901 70.1397231,72.1524359 C72.4714408,71.4822965 75.0831483,68.3840495 75.0831483,68.3840495 Z"/>
            <path fill="#000" d="M77.4722411,56.1425312 C77.6145309,56.3100661 77.6030559,56.5556308 77.4469961,56.7093957 C77.2909362,56.8608655 77.0453715,56.8677505 76.8801316,56.7254607 L67.9961951,48.9614831 C41.8079751,45.968806 22.2568888,50.5381466 14.637496,61.0033366 L15.8676149,66.5113313 L8.72099168,60.3377872 C16.0007247,49.9506272 23.1932479,42.1728796 67.9961951,44.880977 C73.2861651,50.0493121 76.0493424,52.6357746 77.4722411,56.1425312 Z M74.8903685,65.2743275 C75.0785583,65.0930226 75.1244583,64.8038529 75.0005284,64.5720581 C74.8811885,64.3356734 74.6195588,64.2140385 74.360224,64.2622334 C65.2858027,69.5797433 49.0670532,70.0525129 22.3968836,72.1248959 L17.2331386,68.948619 L21.0267699,73.6441845 C49.9024324,72.2947257 71.1587021,70.5849524 74.8903685,65.2743275 Z"/>
          </g>
          <g fill-rule="nonzero" transform="translate(270.645 182.58)">
            <path fill="url(#rj_avatar-j)" d="M66.2772417,15.5945101 C60.3607374,26.14232 61.2511965,28.6851775 42.7122042,25.8462652 C20.4713805,25.8462652 2.06549803,21.3113496 2.06549803,13.0906675 C2.06549803,4.86998533 13.3683622,-3.2382419 41.5302804,1.79239328 C55.3346922,4.25722092 66.2772417,11.474989 66.2772417,15.5945101 Z" transform="translate(13.77 45.9)"/>
            <g transform="translate(33.851 41.884)">
              <path fill="#1B1818" stroke="#000" stroke-width="1.5" d="M27.0534342,19.7094411 C25.0590811,27.0350741 17.5016533,31.351965 10.1576603,29.3392519 C2.82284731,27.3288338 -1.51010856,19.7507511 0.486539536,12.4228231 C2.48089263,5.09030512 10.0543854,0.773414259 17.3891984,2.78842233 C24.7217164,4.79654541 29.0500823,12.3746281 27.0534342,19.7094411 Z"/>
              <path fill="#2A2A2A" d="M24.9122012,19.879271 C22.9637481,25.5066056 17.0908487,28.7861574 11.3740091,27.2209689 C6.09551418,25.7728253 2.76088236,20.7077652 3.19693195,15.3535353 C5.15686008,15.1997704 7.29809303,15.1538705 9.52194591,15.2617354 C9.49899593,15.3374703 9.45998097,15.4040252 9.43932599,15.4820552 C8.73705666,18.0639277 10.3733901,20.7720251 13.0952575,21.5178994 C15.8240099,22.2660687 18.6055472,20.7697301 19.3078166,18.1878576 C19.3950265,17.8504929 19.4455164,17.5131282 19.4569914,17.1803535 C21.3205297,17.8596729 23.1542329,18.738657 24.9122012,19.879271 Z"/>
              <path fill="#000" d="M15.6358201,11.9569385 C12.8772327,11.1674593 10.0612704,12.7418278 9.35211607,15.4912352 C8.63607676,18.2245775 10.2976552,21.0864398 13.0539475,21.878214 C15.8171249,22.6699883 18.6330872,21.0933248 19.3468315,18.3576874 C20.0605759,15.60828 18.3967024,12.7487128 15.6358201,11.9569385 Z M16.2371095,21.6693692 C15.0896106,22.0273889 13.9008017,21.5523244 13.588682,20.6090803 C13.2834473,19.6658362 13.9627667,18.6193172 15.1194456,18.2704775 C16.2738295,17.9124578 17.4580483,18.3875224 17.774758,19.3238815 C18.0868777,20.2671256 17.4006734,21.3136446 16.2371095,21.6693692 Z" opacity=".9"/>
              <path fill="#FFF" d="M6.45353384,23.3148827 C5.60438465,23.8243722 4.33525086,23.3676676 3.61232655,22.2890186 C2.88710724,21.2195497 2.99267714,19.9389409 3.84641633,19.4271564 C4.68868052,18.9245519 5.9715843,19.3789614 6.68991861,20.4507254 C7.40595793,21.5224894 7.30038803,22.8076882 6.45353384,23.3148827 Z" opacity=".6"/>
              <path fill="#FFF" d="M24.5794265,15.4682852 C22.6378584,16.6318491 19.7232112,15.5853301 18.0685178,13.1273874 C16.4161193,10.6671498 16.6639791,7.7295526 18.6055472,6.57057871 C20.5448204,5.40242482 23.4640576,6.44894382 25.109571,8.90918147 C26.7596745,11.3694191 26.5232897,14.3024263 24.5794265,15.4682852 Z" opacity=".8"/>
            </g>
            <path fill="#D29E83" d="M47.7382494,2.2927028 C23.6568374,2.2927028 4.13329106,27.9806132 4.13329106,59.6676478 C4.13329106,91.3546825 23.6568374,117.042593 47.7382494,117.042593 C71.8196615,117.042593 91.3432078,91.3546825 91.3432078,59.6676478 C91.3432078,27.9806132 71.8196615,2.2927028 47.7382494,2.2927028 Z M56.4821911,71.7462213 C34.2413673,71.7462213 15.8354849,67.2113056 15.8354849,58.9906235 C15.8354849,50.7699414 27.1383491,42.6617141 55.3002672,47.6923493 C69.104679,50.157177 80.0449336,57.37265 80.0449336,61.4944661 C74.1307242,72.042276 75.0188884,74.5851336 56.4821911,71.7462213 Z"/>
            <path fill="url(#rj_avatar-k)" d="M41.1791457,33.2315682 C19.6222313,33.1489482 2.12516797,45.918316 2.07238302,61.7606858 C2.01500808,77.6099407 19.4524014,90.5147133 41.0001359,90.6042182 C62.5524603,90.6822481 82.5694312,77.9151754 82.3973064,62.0682155 C82.1655116,40.3965513 62.7360601,33.3210731 41.1791457,33.2315682 Z M56.4821911,71.7462213 C34.2413673,71.7462213 15.8354849,67.2113056 15.8354849,58.9906235 C15.8354849,50.7699414 27.1383491,42.6617141 55.3002672,47.6923493 C69.104679,50.157177 80.0449336,57.37265 80.0449336,61.4944661 C74.1307242,72.042276 75.0188884,74.5851336 56.4821911,71.7462213 Z"/>
            <path fill="url(#rj_avatar-l)" d="M80.0472286,61.4944661 C74.1307242,72.042276 75.0211834,74.5851336 56.4821911,71.7462213 C34.2413673,71.7462213 15.8354849,67.2113056 15.8354849,58.9906235 C15.8354849,50.7699414 27.1383491,42.6617141 55.3002672,47.6923493 C69.104679,50.157177 80.0472286,57.374945 80.0472286,61.4944661 Z"/>
            <path fill="#A45B35" d="M18.0960577,68.3840495 C18.0960577,68.3840495 21.2700397,70.1695578 23.4984826,70.7616672 C26.2731349,71.4914765 34.9665866,72.8156902 50.0332472,74.8811883 C32.8437137,73.6625444 25.9816702,72.9992901 23.039483,72.1524359 C20.7054702,71.4822965 18.0960577,68.3840495 18.0960577,68.3840495 Z"/>
            <path fill="#000" d="M25.183011,44.878682 C69.9859582,42.1728796 77.1784813,49.9483322 84.4582144,60.3354922 L77.3115912,66.5090363 L78.54171,61.0010416 C70.9223173,50.5358516 51.371231,45.966511 25.183011,48.9591881 L16.2990744,56.7231657 C16.1338346,56.8677505 15.8882698,56.8608655 15.73221,56.7071007 C15.5784451,56.5556308 15.5669701,56.3077711 15.706965,56.1402362 C17.1298637,52.6357746 19.893041,50.0493121 25.183011,44.878682 Z M72.1501411,73.6464795 L75.9437725,68.950914 L70.7800274,72.1271909 C44.1098579,70.0548079 27.8911084,69.5820383 18.816687,64.2645284 C18.5573523,64.2163335 18.2934275,64.3379684 18.1763827,64.5743531 C18.0524528,64.8084429 18.0983527,65.0953176 18.2865425,65.2766225 C22.020504,70.5849524 43.2744787,72.2947257 72.1501411,73.6464795 Z"/>
          </g>
          <g fill-rule="nonzero" transform="translate(149.9 67.3)">
            <path fill="url(#rj_avatar-m)" d="M209.649871,248.833547 C209.739121,306.519611 163.005299,353.368183 105.258035,353.447233 C47.5209698,353.541582 0.636698392,306.851111 0.547448446,249.152297 C0.458198501,191.471332 47.19202,144.439161 104.936735,144.347361 C162.67635,144.258111 209.565721,191.139832 209.649871,248.833547 Z"/>
            <path fill="url(#rj_avatar-n)" d="M200.724876,95.8973906 C200.724876,148.710408 157.912952,191.522332 105.102485,191.522332 C52.2894669,191.522332 9.474993,148.710408 9.474993,95.8973906 C9.474993,43.084373 52.2894669,0.272449219 105.102485,0.272449219 C157.912952,0.272449219 200.724876,43.084373 200.724876,95.8973906 Z"/>
          </g>
          <path fill="#2A232B" fill-rule="nonzero" d="M0.522749623,25.4999817 C54.8249605,-19.8899857 111.53947,14.01734 94.1561322,22.266584 C87.3425371,25.4999817 61.5391057,-2.55254817 0.522749623,25.4999817 Z" transform="translate(137.7 193.8)"/>
          <path fill="#2A232B" fill-rule="nonzero" d="M98.9271787,25.4999817 C44.6249679,-19.8899857 -12.0895413,14.01734 5.29379619,22.266584 C12.1073913,25.4999817 37.9108227,-2.55254817 98.9271787,25.4999817 Z" transform="translate(272.85 193.8)"/>
          <g fill-rule="nonzero" transform="translate(226.268 225.697)">
            <path fill="#C38666" d="M0.366562552,97.215576 C-2.43206285,103.794577 19.2811902,110.896328 27.5208789,111.333015 C36.4458802,111.801578 61.4550087,102.089264 57.2156331,95.4210132 C52.75632,88.4244497 36.0410676,94.5093881 28.8277541,94.5093881 C21.6495031,94.5062006 4.11506308,88.4371998 0.366562552,97.215576 Z"/>
            <path fill="#A45B35" d="M34.6066924,102.184889 C33.8735673,99.7655763 40.5864433,97.1358885 43.0758811,96.7852634 C46.5853191,96.2752633 53.7858826,99.3416388 53.1420075,101.859764 C52.5555075,104.084639 46.2952566,100.160826 44.0257563,100.492326 C41.6861309,100.833389 35.3015675,104.451202 34.6066924,102.184889 Z M12.6671268,101.397577 C15.7526272,101.397577 20.3298779,103.383389 21.171378,101.633452 C22.1754406,99.5456388 14.3533145,96.9765134 12.0551267,97.260201 C10.1553764,97.483326 3.34368797,101.451764 4.28081311,103.122014 C5.15418823,104.655202 8.59987622,101.397577 12.6671268,101.397577 Z"/>
            <path fill="#F1D5C6" d="M28.9711916,86.0593244 C30.9060044,86.0593244 34.5238174,83.7005741 34.6831924,78.9511984 C35.32388,59.8006958 31.635942,2.98350041 28.9711916,3.18431294 C26.4849413,3.37237547 21.7451281,59.4022582 22.7619407,78.9511984 C23.0137533,83.7388241 26.7877538,86.0593244 28.9711916,86.0593244 Z" opacity=".2"/>
          </g>
          <path fill="#2A232B" fill-rule="nonzero" d="M8.78397782,8.64745309 C9.40123032,11.5057149 8.97390167,12.5715074 8.00054196,14.7030925 C8.73649686,11.4330472 8.76023734,11.3846021 8.78397782,8.64745309 Z M72.6221301,79.0866508 C72.5746492,76.1557213 71.577549,74.6054776 68.9186152,73.709243 C71.0552584,75.186819 72.0760991,76.5190597 72.6221301,79.0866508 Z M63.624488,76.446392 C63.5057856,73.927246 62.9597545,72.4012249 61.0130351,70.8025361 C62.342502,72.7161181 62.9122736,74.0241362 63.624488,76.446392 Z M54.2944791,73.2490144 C54.484403,74.363252 56.0512747,76.4221694 57.451963,76.882398 C56.2886795,76.2041664 54.2944791,73.2490144 54.2944791,73.2490144 Z M45.5817227,69.2038473 C45.7716466,69.7851886 47.1960754,73.7576881 47.5521826,73.2490144 C47.5759231,73.2490144 45.296837,68.3560577 45.5817227,69.2038473 Z M51.5168429,62.3488634 C50.9233309,64.7711192 50.8046285,66.2002501 51.1132547,68.8162863 C51.3506595,67.3144878 51.5405834,63.5357688 51.5168429,62.3488634 Z M56.6685272,55.4696571 C56.4548629,57.334794 56.4311224,59.2725986 56.6685272,61.113513 C56.8821915,59.5148242 56.9296725,57.6496872 56.6685272,55.4696571 Z M59.4461634,67.193375 C61.0130351,65.1344576 61.5590662,64.068665 62.2237996,61.549519 C61.7252496,62.3488634 59.8022706,66.3213629 59.4461634,67.193375 Z M68.1351793,61.5252965 C67.9452555,64.6257839 68.2301412,66.0064696 69.3222033,68.3802803 C68.467546,64.2866681 68.7524318,65.715799 68.1351793,61.5252965 Z M64.5741072,57.8919128 C65.5712074,55.9056631 65.9273146,54.7672029 66.1647194,52.6356178 C65.7373908,53.7014103 64.811512,56.898788 64.5741072,57.8919128 Z M73.6904518,54.2585292 C73.5242684,55.7603278 73.8091542,58.5459219 75.281064,58.3036963 C74.1652614,58.4974768 73.8328947,55.3727668 73.6904518,54.2585292 Z M64.5741072,48.2028898 C65.3338026,46.4104205 65.9035741,44.3757256 66.1647194,42.5590338 C65.3812836,44.3757256 64.858993,46.3377528 64.5741072,48.2028898 Z M47.9557708,52.6598404 C47.2672969,54.7914254 47.0298921,56.1721112 47.1723349,58.7154798 C47.4097398,57.6012421 47.8845494,53.8467457 47.9557708,52.6598404 Z M41.2372148,67.9927194 C42.4479793,65.5704636 42.8990484,64.068665 43.2076747,61.5252965 C42.6616436,62.8817597 41.593322,66.369808 41.2372148,67.9927194 Z M35.7056828,61.93708 C34.4236969,63.3904334 36.109271,65.9822471 36.109271,65.9822471 C36.06179,64.2382229 35.1596518,63.3904334 35.7056828,61.93708 Z M38.0797309,47.9606642 C38.0797309,47.8153288 37.7948451,48.517783 38.4595786,54.2585292 C38.6020215,48.081777 38.0559904,47.1613198 38.0559904,48.2028898 C38.0797309,48.2028898 38.0797309,48.1059995 38.0797309,47.9606642 Z M28.9633863,53.0474013 C29.1533102,56.6081173 29.0346078,58.0372482 29.7468222,60.3141686 C29.5094174,55.1547638 29.6043793,55.4696571 28.9633863,53.0474013 Z M23.0282662,53.4591848 C22.6009375,55.4696571 22.5297161,56.7050075 23.811702,58.3036963 C22.9570447,56.511227 23.0282662,55.5181022 23.0282662,53.4591848 Z M13.1522263,48.2028898 C13.1997072,46.9675393 13.1284858,45.5141859 12.796119,44.1335001 C12.796119,43.9154971 12.6299357,45.7564114 13.1522263,48.2028898 Z M17.2355889,49.6320207 C17.2355889,49.6320207 18.6837582,42.5590338 18.6837582,42.5590338 C17.686658,44.2788354 17.2355889,49.6320207 17.2355889,49.6320207 Z M25.4023142,40.9361225 C24.0965878,42.1956955 23.3606329,44.957067 23.4318543,46.5799784 C23.6929996,45.5141859 24.7138403,42.001915 25.4023142,40.9361225 Z M31.7410226,47.8153288 C32.3345346,45.2235152 32.453237,43.697494 32.1446107,40.960345 C31.8834654,42.5832564 31.7172821,46.4830882 31.7410226,47.8153288 Z M31.3374344,27.2261548 C30.8626248,28.8006211 30.7676629,29.5272978 30.9338462,31.2713219 C30.9813272,31.0775415 31.3374344,27.3714902 31.3374344,27.2261548 Z M25.0224665,33.6693552 C26.1145287,32.143334 25.0224665,28.0254992 25.0224665,28.0254992 C25.0224665,28.0254992 25.3310928,32.9426784 25.0224665,33.6693552 Z M16.3097102,30.8595385 C16.7132983,32.8700108 17.4017723,35.0742635 18.2801701,36.9151779 C17.9003224,34.9047056 17.2118484,32.7731205 16.3097102,30.8595385 Z M8.40413013,30.8595385 C7.69191571,35.2438214 8.26168725,36.5033944 9.18756599,38.9256502 C8.61779446,35.3407116 8.45161109,34.880483 8.40413013,30.8595385 Z M2.46900998,26.0150269 C1.51939076,27.5652706 1.18702403,31.2470994 2.87259815,33.2817942 C1.89923845,31.4166573 1.99420037,27.4441578 2.46900998,26.0150269 Z M4.43946987,13.4919646 C4.43946987,13.4919646 3.25244584,15.768885 3.25244584,19.1358206 C3.67977449,17.2222385 4.1545841,15.0179858 4.43946987,13.4919646 Z M11.9652022,19.547604 C11.9652022,19.547604 9.99474233,19.6929394 10.7781782,25.6032435 C11.656576,18.1911408 11.9652022,19.547604 11.9652022,19.547604 Z M21.8412421,21.9698598 C22.4822351,19.935165 22.9095638,17.7309122 23.0282662,15.5024369 C22.3635327,17.5855769 21.983685,19.7898296 21.8412421,21.9698598 Z M17.093146,7.02454172 C16.0010839,9.56791028 15.8111601,10.5368126 15.906122,13.0801811 C15.906122,13.0801811 17.093146,7.02454172 17.093146,7.02454172 Z M26.5893383,3.00359715 C24.9987261,4.4085055 24.500176,8.11455682 24.6188784,10.2703645 C25.7109405,3.68182877 26.5893383,3.00359715 26.5893383,3.00359715 Z M37.2725545,3.39115807 C35.3733161,4.94140176 34.6136207,6.05563942 34.1150706,9.03501401 C35.0409494,6.73387103 35.2546137,5.91030407 37.2725545,3.39115807 Z M44.014851,9.85858097 C45.5342418,8.33255984 47.5759231,1.79246927 47.5759231,1.79246927 C47.1485945,0.944679749 44.5134011,9.01079145 44.014851,9.85858097 Z M55.8850913,1.79246927 C54.5556244,2.10736252 52.4902026,8.18722449 51.9204311,9.47102005 C52.6326455,8.42945007 55.8850913,1.79246927 55.8850913,1.79246927 Z M63.3870832,1.38068579 C62.2475401,3.778719 61.6302876,5.03829199 61.0130351,7.84810868 C62.1525782,5.54696571 62.6986093,3.65760621 63.3870832,1.38068579 Z M72.8832754,0.169557904 C71.0789989,4.31161526 71.8624348,3.12470994 69.7257915,7.4363252 C71.0789989,5.71652361 72.0998396,4.21472503 72.8832754,0.169557904 Z M143.155098,8.64745309 C142.537846,11.5057149 142.965174,12.5715074 143.938534,14.7030925 C143.202579,11.4330472 143.178838,11.3846021 143.155098,8.64745309 Z M84.1837442,73.2490144 C81.5248104,74.145249 80.6464126,74.8961483 80.6226721,77.8270778 C81.1687032,75.2352641 82.0471009,74.7023678 84.1837442,73.2490144 Z M90.9735216,71.9652188 C89.0268022,73.5639076 88.2671069,75.5743799 88.1484045,78.0935259 C88.8606189,75.6712702 89.6677952,73.8545783 90.9735216,71.9652188 Z M94.4871128,76.882398 C95.8878011,76.4221694 97.4784133,74.363252 97.6445967,73.2490144 C97.6445967,73.2490144 95.6503963,76.2041664 94.4871128,76.882398 Z M104.363153,73.2490144 C104.71926,73.7576881 106.143689,69.8094112 106.333613,69.2038473 C106.642239,68.3560577 104.363153,73.2490144 104.363153,73.2490144 Z M100.802081,68.7920638 C101.110707,66.1760275 100.992004,64.7468966 100.398492,62.3246409 C100.398492,63.5357688 100.588416,67.3144878 100.802081,68.7920638 Z M95.2705486,61.1377356 C95.5079534,59.2725986 95.484213,57.334794 95.2705486,55.4938796 C95.0094033,57.6496872 95.0568843,59.5148242 95.2705486,61.1377356 Z M89.7390167,61.5252965 C90.4037501,64.0444425 90.9497812,65.1344576 92.5166529,67.1691524 C92.1368052,66.3213629 90.2138263,62.3488634 89.7390167,61.5252965 Z M82.6168725,68.4045029 C83.7089346,66.0064696 83.9938204,64.6500064 83.8038965,61.549519 C83.186644,65.715799 83.4715298,64.2866681 82.6168725,68.4045029 Z M85.7743564,52.6598404 C86.0117612,54.7914254 86.3441279,55.9298857 87.3649686,57.9161354 C87.1275638,56.898788 86.201685,53.7014103 85.7743564,52.6598404 Z M79.0558004,55.8814405 C80.5039697,56.1236661 80.812596,53.338072 80.6464126,51.8362734 C80.4802292,52.9505111 80.1478625,56.075221 79.0558004,55.8814405 Z M85.7743564,42.5590338 C86.0355017,44.3757256 86.6052732,46.4104205 87.3649686,48.2028898 C87.0800828,46.3377528 86.5577923,44.3757256 85.7743564,42.5590338 Z M104.766741,58.7154798 C104.909184,56.1721112 104.671779,54.7914254 103.983305,52.6598404 C104.054526,53.8467457 104.529336,57.6012421 104.766741,58.7154798 Z M108.731401,61.5252965 C109.040027,64.0444425 109.514837,65.5704636 110.701861,67.9927194 C110.345754,66.369808 109.277432,62.8817597 108.731401,61.5252965 Z M115.853545,65.9822471 C115.853545,65.9822471 117.539119,63.414656 116.257133,61.93708 C116.779424,63.3904334 115.877286,64.2382229 115.853545,65.9822471 Z M113.859345,48.2028898 C113.859345,47.1613198 113.337054,48.081777 113.455757,54.2585292 C114.12049,48.517783 113.835604,47.8153288 113.835604,47.9606642 C113.859345,48.1059995 113.859345,48.2028898 113.859345,48.2028898 Z M122.168513,60.3141686 C122.880728,58.0372482 122.762025,56.6081173 122.951949,53.0474013 C122.334697,55.4696571 122.429658,55.1547638 122.168513,60.3141686 Z M128.103633,58.3036963 C129.385619,56.7050075 129.314398,55.4696571 128.887069,53.4591848 C128.91081,55.5181022 128.982031,56.511227 128.103633,58.3036963 Z M139.142957,44.1577226 C138.81059,45.5384084 138.739369,46.9917619 138.78685,48.2271123 C139.30914,45.7564114 139.142957,43.9154971 139.142957,44.1577226 Z M133.255318,42.5590338 C133.255318,42.5590338 134.703487,49.6320207 134.703487,49.6320207 C134.703487,49.6320207 134.252418,44.2788354 133.255318,42.5590338 Z M128.507221,46.604201 C128.578443,44.9812896 127.818748,42.219918 126.536762,40.960345 C127.225236,42.001915 128.246076,45.5141859 128.507221,46.604201 Z M119.794465,40.9361225 C119.462098,43.6732715 119.580801,45.1992926 120.198053,47.7911063 C120.221794,46.4830882 120.05561,42.5832564 119.794465,40.9361225 Z M120.981489,31.2470994 C121.147672,29.5030752 121.052711,28.7763985 120.577901,27.2019323 C120.601641,27.3714902 120.957749,31.0775415 120.981489,31.2470994 Z M126.916609,28.0254992 C126.916609,28.0254992 125.824547,32.143334 126.916609,33.6693552 C126.607983,32.9426784 126.916609,28.0254992 126.916609,28.0254992 Z M133.658906,36.9151779 C134.537304,35.0742635 135.249518,32.8700108 135.629366,30.8595385 C134.727227,32.7731205 134.038753,34.9047056 133.658906,36.9151779 Z M142.75151,38.9256502 C143.701129,36.5033944 144.270901,35.2195988 143.534946,30.8595385 C143.487465,34.880483 143.321281,35.3407116 142.75151,38.9256502 Z M149.090218,33.2817942 C150.775792,31.2470994 150.443426,27.5652706 149.493806,26.0150269 C149.944875,27.4441578 150.039837,31.4166573 149.090218,33.2817942 Z M148.68663,19.1358206 C148.68663,15.7446625 147.499606,13.4919646 147.499606,13.4919646 C147.784492,15.0179858 148.259301,17.2222385 148.68663,19.1358206 Z M141.160898,25.6032435 C141.944333,19.6929394 139.973874,19.547604 139.973874,19.547604 C139.973874,19.547604 140.2825,18.1911408 141.160898,25.6032435 Z M128.91081,15.5024369 C129.029512,17.7066897 129.456841,19.935165 130.097834,21.9698598 C129.955391,19.7898296 129.575543,17.5855769 128.91081,15.5024369 Z M136.032954,13.0801811 C136.127916,10.5368126 135.937992,9.56791028 134.84593,7.02454172 C134.84593,7.02454172 136.032954,13.0801811 136.032954,13.0801811 Z M127.320197,10.2703645 C127.4389,8.11455682 126.916609,4.4085055 125.349738,3.00359715 C125.349738,3.00359715 126.228135,3.68182877 127.320197,10.2703645 Z M117.824005,9.05923657 C117.325455,6.05563942 116.56576,4.94140176 114.666521,3.41538063 C116.684462,5.91030407 116.898126,6.73387103 117.824005,9.05923657 Z M104.363153,1.79246927 C104.363153,1.79246927 106.404834,8.33255984 107.924225,9.85858097 C107.425675,9.01079145 104.790481,0.944679749 104.363153,1.79246927 Z M100.018645,9.44679749 C99.4488732,8.16300193 97.4071919,2.08313996 96.0539845,1.76824671 C96.0539845,1.79246927 99.3064303,8.42945007 100.018645,9.44679749 Z M90.9260407,7.84810868 C90.3087882,5.06251455 89.6915357,3.778719 88.5519926,1.38068579 C89.2404666,3.65760621 89.7864976,5.54696571 90.9260407,7.84810868 Z M82.2132843,7.4363252 C80.0529006,3.12470994 80.8600769,4.31161526 79.0558004,0.169557904 C79.8392362,4.21472503 80.8363364,5.71652361 82.2132843,7.4363252 Z M77.1803024,64.5773387 C74.7587734,68.4045029 74.8537353,70.0758593 74.9249568,72.4981151 C75.6134307,69.0342894 75.5659497,69.0585119 77.1803024,64.5773387 Z M71.0552584,43.479491 C72.2660229,46.9190942 72.4084658,47.2824326 73.0019778,49.7531334 C72.9307564,47.1128747 72.4084658,45.7079663 71.0552584,43.479491 Z M77.8450359,48.6388958 C78.4385479,46.1681949 79.6967934,46.9190942 80.9075579,43.479491 C79.53061,45.7079663 77.8925168,46.0228596 77.8450359,48.6388958 Z" transform="translate(180.242 346.34)"/>
          <g fill-rule="nonzero" transform="translate(72.375 .014)">
            <path fill="#2A232B" d="M312.814601,270.326322 C301.993939,241.129213 306.827002,219.224369 304.750334,175.450378 C301.544119,108.065765 286.05033,116.349881 250.399622,113.710897 C195.311705,109.638957 176.171878,83.6162779 135.103341,83.6162779 C112.894744,83.6162779 87.022615,93.9376383 67.1980622,111.666003 C51.2594515,222.541585 73.7904195,213.324263 50.3448182,269.35487 C35.4682817,253.426624 33.5490511,228.903194 22.520972,196.699938 C13.7269972,170.052572 15.8786347,168.624716 6.21001058,155.779109 C12.4175222,156.923944 13.0422717,156.872949 15.8111617,156.872949 C10.8881352,145.893755 4.61814871,126.400968 2.2441004,117.930722 C8.06426726,115.085208 14.3367528,107.963776 18.4126189,102.838792 C16.0860515,97.4129382 14.2992678,91.2272613 13.2172016,85.9467431 C13.4096245,85.8804498 14.3117628,85.5387842 14.3117628,85.5387842 L14.3217588,85.4954386 C28.5185677,79.3327093 31.4149066,44.8423333 41.2734546,36.0584681 C46.1240102,31.4332339 50.7846418,29.6050681 55.1029108,27.2720531 C55.6127064,22.4402897 55.8401152,21.4662878 56.5398347,18.0164853 C80.035416,11.5885828 87.1625589,14.9593432 120.339259,5.54059193 C131.744687,2.30241809 139.604037,0.0509948636 163.614412,1.07854137 C172.42338,5.61453448 203.748323,27.7973002 227.298882,5.16322994 C245.426615,16.7059173 261.220284,18.1796689 283.836218,31.303197 C321.768512,53.9704139 326.928943,69.924157 324.699837,106.673605 C350.921825,142.280769 345.109155,184.611605 333.638753,227.097976 C326.466629,253.401127 319.586886,262.014159 312.814601,270.326322 Z"/>
            <path fill="#0C080C" d="M312.374778,234.576373 C309.875779,214.178427 319.871772,196.330225 322.37077,178.482023 C319.871772,183.581509 314.873776,186.131252 314.873776,191.230739 C314.873776,173.382536 322.37077,158.084077 319.871772,140.235875 C317.372774,145.335361 314.873776,147.885104 309.875779,150.434848 C317.372774,132.586645 309.875779,112.1887 297.380788,96.8902409 C299.879786,104.53947 302.378785,109.638957 302.378785,117.288186 C287.384795,94.3404977 252.39882,91.7907545 227.408838,79.0420386 C232.406835,86.6912681 242.402827,91.7907545 249.899822,96.8902409 C214.913847,84.141525 182.42687,68.8430659 149.939893,53.5446068 C155.452683,59.1693403 159.623511,68.9042597 166.405793,72.6651309 C169.262147,73.080739 168.849813,74.0190445 166.405793,72.6651309 C136.397822,68.3076198 104.852967,64.9649065 77.4689448,50.9948636 C77.4689448,61.1938363 84.9659395,68.8430659 92.4629342,73.9425522 C84.9659395,73.9425522 77.4689448,66.2933227 72.4709484,68.8430659 C64.9739537,73.9425522 79.9679431,79.0420386 77.4689448,84.141525 C69.9719502,89.2410113 62.4749555,81.5917818 54.9779609,81.5917818 C59.9759573,89.2410113 54.9779609,101.989727 59.9759573,109.638957 C54.9779609,107.089214 49.9799644,101.989727 49.9799644,104.53947 C47.4809662,114.738443 42.4829698,117.288186 42.4829698,124.937416 C42.4829698,137.686132 49.9799644,150.434848 49.9799644,163.183564 C49.9799644,159.083577 45.1369059,159.922442 43.2401662,157.76026 C55.7576483,193.392921 55.1903757,230.917491 49.7525556,268.666439 C49.9574734,268.893366 50.1374013,269.135592 50.3448182,269.357419 C73.7904195,213.326813 51.2594515,222.544135 67.1980622,111.668552 C87.022615,93.940188 112.894744,83.6188276 135.103341,83.6188276 C176.174377,83.6188276 195.314204,109.644056 250.402121,113.710897 C286.052829,116.352431 301.546618,108.065765 304.752833,175.450378 C306.827002,219.224369 301.993939,241.129213 312.8171,270.326322 C312.829595,270.313573 312.839591,270.298275 312.852086,270.285526 C314.476435,251.391929 319.871772,234.056225 319.871772,216.72817 C317.372774,221.827657 314.873776,226.927143 312.374778,234.576373 Z"/>
            <path fill="#1B141C" d="M330.525002,207.773472 C329.752811,209.448654 324.869769,209.953503 324.869769,211.628684 C324.869769,203.979454 333.656246,198.260381 332.176839,185.45812 C332.176839,186.467818 324.285003,192.979862 323.492821,193.989561 C322.978027,196.539304 334.208525,166.755754 334.208525,156.911195 C330.525002,163.181014 327.368767,163.183564 327.368767,168.28305 C327.368767,158.084077 327.353773,143.157881 327.353773,132.958908 C327.353773,138.058394 322.37077,145.577587 322.37077,150.677073 C324.702336,131.64579 313.864181,109.638957 311.675058,90.7555588 C310.39807,95.3323478 307.97904,100.67151 309.875779,104.53947 C302.378785,94.3404977 304.877783,76.4922954 292.382792,68.8430659 C289.883794,73.9425522 289.883794,79.0420386 287.384795,84.141525 C279.887801,73.9425522 269.891808,66.2933227 264.893811,56.09435 C264.893811,61.1938363 264.893811,63.7435795 264.893811,68.8430659 C252.39882,58.6440932 234.905833,53.5446068 227.408838,38.2461477 C227.408838,43.3456341 227.408838,50.9948636 227.408838,56.09435 C217.412845,53.5446068 201.181852,44.3757303 196.183855,36.7265008 C196.183855,44.3757303 204.917854,56.09435 204.917854,63.7435795 C184.925868,53.5446068 169.931879,38.2461477 149.939893,28.047175 C149.939893,33.1466614 154.93789,38.2461477 152.438891,43.3456341 C142.442899,38.2461477 123.023183,38.2461477 118.025187,28.047175 C118.025187,35.6964045 125.797071,43.3456341 125.797071,50.9948636 C103.306087,48.4451204 98.2856,41.2497452 77.7113477,31.6270144 C75.2123494,36.7265008 72.4709484,43.3456341 69.9719502,48.4451204 C64.9739537,43.3456341 62.4749555,38.2461477 54.9779609,38.2461477 C54.9779609,45.8953773 62.4749555,56.09435 57.4769591,63.7435795 C54.9779609,66.2933227 44.981968,56.09435 44.981968,58.6440932 C39.9839715,68.8430659 44.981968,84.141525 39.9839715,94.3404977 C39.9839715,96.8902409 32.4869769,89.2410113 27.4889804,91.7907545 C37.1651015,106.597113 30.4927763,123.784932 36.8477288,138.746825 C37.0926306,139.210878 37.3100434,139.700429 37.4849733,140.235875 C37.2450695,139.743775 37.0601436,139.244025 36.8477288,138.746825 C33.6165241,132.556048 24.8150523,132.051199 22.490984,124.937416 C22.490984,143.55819 32.8793196,160.057578 36.5978289,178.30864 C37.859823,179.076113 38.4945686,180.49122 37.4849733,183.581509 C37.2675605,181.804338 36.9501877,180.050115 36.5978289,178.30864 C34.7285783,177.171455 31.4773816,177.451926 29.9879786,175.932279 C41.8032422,200.040101 45.4592766,241.391836 49.7525556,268.663889 C58.6115043,229.464138 54.0233435,188.459168 43.2401662,157.75771 C42.7778515,157.232463 42.4829698,156.533833 42.4829698,155.534334 C42.7553606,156.27376 42.9777714,157.018285 43.2401662,157.76026 C45.1394049,159.922442 49.9799644,159.083577 49.9799644,163.183564 C49.9799644,150.434848 42.4829698,137.686132 42.4829698,124.937416 C42.4829698,117.288186 47.4809662,114.738443 49.9799644,104.53947 C49.9799644,101.989727 54.9779609,107.089214 59.9759573,109.638957 C54.9779609,101.989727 59.9759573,89.2410113 54.9779609,81.5917818 C62.4749555,81.5917818 69.9719502,89.2410113 77.4689448,84.141525 C79.9679431,79.0420386 64.9739537,73.9425522 72.4709484,68.8430659 C77.4689448,66.2933227 84.9659395,73.9425522 92.4629342,73.9425522 C84.9659395,68.8430659 77.4689448,61.1938363 77.4689448,50.9948636 C104.852967,64.9649065 136.397822,68.3076198 166.405793,72.6651309 C159.623511,68.9042597 155.452683,59.1693403 149.939893,53.5446068 C182.42687,68.8430659 214.913847,84.141525 249.899822,96.8902409 C242.402827,91.7907545 232.406835,86.6912681 227.408838,79.0420386 C252.39882,91.7907545 287.384795,94.3404977 302.378785,117.288186 C302.378785,109.638957 299.879786,104.53947 297.380788,96.8902409 C309.875779,112.1887 317.372774,132.586645 309.875779,150.434848 C314.873776,147.885104 317.372774,145.335361 319.871772,140.235875 C322.37077,158.084077 314.873776,173.382536 314.873776,191.230739 C314.873776,186.131252 319.871772,183.581509 322.37077,178.482023 C319.871772,196.330225 309.875779,214.178427 312.374778,234.576373 C314.873776,226.927143 317.372774,221.827657 319.871772,216.72817 C319.871772,234.056225 314.476435,251.391929 312.847088,270.282976 C314.881273,267.786778 316.927952,265.247233 318.987127,262.218138 C318.734728,243.319442 326.066789,227.788956 330.525002,207.773472 Z"/>
            <path fill="#2A232B" d="M165.231263,71.9919987 C162.412393,72.2189259 159.063736,72.7033771 152.886212,71.7472234 C136.147922,69.3836114 81.3723801,67.1755338 78.3910752,49.6817459 C81.0275183,58.2310348 96.896157,60.6430918 108.888849,62.9353109 C108.888849,62.9353109 117.340461,64.5951937 130.687611,66.1250397 C155.665098,69.1005899 150.387214,71.1072378 165.231263,71.9919987 Z M222.153445,86.0436334 C162.434884,59.6359433 166.683181,62.54775 152.736272,53.5063606 C171.061426,69.2025797 177.323916,69.2433756 209.261113,84.1491742 C224.057681,90.9493393 226.949022,90.6790665 247.073455,95.5771231 C232.96661,89.8554994 231.304776,89.9727876 222.153445,86.0436334 Z M228.955718,78.3663567 C253.730786,99.1544128 283.953671,93.9835336 303.300915,116.612504 C287.794631,91.5816756 253.693301,94.1059213 228.955718,78.3663567 Z M82.2295365,69.6870309 C75.5622092,67.6344876 72.2410406,68.5906413 69.0198319,70.7171271 C79.5780993,65.6456879 90.6386655,78.1700264 103.381057,74.5417419 C97.4759246,75.2760679 82.2295365,70.1944298 82.2295365,69.6870309 Z M75.0973955,86.5178856 C69.2797277,84.6463741 62.0951078,81.4719439 57.2270593,81.6045305 C54.6530911,81.6657243 54.0258425,82.8284072 54.0258425,82.8284072 C56.4623658,79.9242497 68.0427236,85.630575 75.0074316,86.9742896 C76.9216642,87.3822485 78.3910752,87.2879081 78.3910752,87.2879081 C78.3910752,87.2879081 76.9266622,87.1400229 75.0973955,86.5178856 Z M46.6113148,116.467169 C48.3281266,111.643055 50.2623512,106.903082 49.7500566,102.489477 C49.4901608,100.890788 48.9778661,100.054472 49.0278461,100.041723 C50.1873813,105.072367 48.2456596,108.137158 44.8295291,115.686948 C37.2950494,132.14044 47.1386034,144.968198 50.9020948,162.510431 C49.6301047,142.443953 40.3988052,133.578495 46.6113148,116.467169 Z M318.294904,142.747372 C319.094584,148.275215 318.857179,152.00294 317.910059,160.786805 C317.910059,160.786805 316.173255,175.521771 312.672158,189.917621 C317.867576,177.559016 322.220831,156.526184 318.294904,142.747372 Z M322.043402,182.268391 C313.579295,206.202831 312.207345,215.022392 310.79791,233.900691 C320.119173,189.948218 315.583491,212.021344 322.043402,182.268391 Z"/>
            <path fill="#3A353A" d="M219.584475,20.9971351 C204.275612,23.4576373 188.297017,25.4183898 159.608517,7.61098339 C187.297418,20.4004952 200.754523,21.6294714 219.584475,20.9971351 Z M253.400919,25.981883 C238.217005,20.3877465 237.219905,13.8247075 225.83197,10.1607266 C236.225304,14.9644427 236.145336,21.1322715 249.719894,27.3995402 C256.322247,30.5841695 279.263051,37.0426689 293.304922,46.3670797 C280.899895,35.1711574 272.55574,33.2970962 253.400919,25.981883 Z M84.0138212,20.3596993 C112.984708,20.9741874 117.602856,13.4269476 150.862024,9.52329078 C120.959011,9.14337905 117.79278,16.4177963 84.0138212,20.3596993 Z M159.608517,20.9971351 C171.27634,22.4224415 188.109592,33.0982162 193.344993,45.2196953 C189.524025,31.6295642 172.933176,21.0736274 159.608517,20.9971351 Z M224.582471,24.8217499 C236.207811,31.1323642 240.346152,44.4522226 254.57045,47.1320027 C240.613545,42.4200773 237.849653,30.0946188 224.582471,24.8217499 Z M204.590485,27.371493 C207.57179,32.5551209 211.91255,37.8432883 223.332972,45.2196953 C210.005814,34.0467207 207.719231,31.6958575 204.590485,27.371493 Z M262.692194,39.4827732 C275.47457,41.0814621 288.809224,53.9219688 290.181174,68.1673839 C290.820918,54.128498 278.458374,39.7275485 262.692194,39.4827732 Z M306.022324,61.2116845 C300.257135,53.7001411 295.179171,51.9255199 292.680173,50.9566175 C296.248742,52.8459772 300.16967,55.3549245 304.840298,62.1397911 C304.840298,62.1397911 313.429355,73.7921174 317.045405,86.653022 C314.551405,71.1556829 306.022324,61.2116845 306.022324,61.2116845 Z M68.3950823,24.8217499 C68.857397,23.8248003 81.6997488,29.5795706 82.7143421,29.9977285 C85.7856109,31.2190555 101.164446,37.5628165 106.504805,38.2079016 C104.003308,37.5245704 68.5300282,21.892095 68.3950823,24.8217499 Z M47.1535974,40.7576447 C48.8579142,43.0422146 50.7971368,46.5277136 52.1765838,49.0315614 C52.1765838,49.0315614 52.9162873,50.3650771 53.6035118,51.7317394 C54.2782414,53.1009515 54.8780009,54.5007605 54.8780009,54.5007605 C56.5623257,58.4197158 57.3645042,60.839422 57.4769591,63.7435795 C58.1067066,56.1427951 51.7342612,45.5690101 47.1535974,40.7576447 Z M39.6566028,48.4068743 C33.3666242,64.0852451 33.4365962,73.1597811 39.6566028,89.2027652 C35.7506685,73.1291842 34.9509891,65.5207505 39.6566028,48.4068743 Z"/>
            <path fill="#000" d="M325.467029,106.439029 C326.036801,97.5149279 326.274206,91.9462888 325.517009,83.1343764 C322.673149,57.3080277 307.481739,44.5414636 284.211068,30.6351643 C261.325242,17.3561018 245.444108,15.9715913 227.206419,4.19432753 C203.88077,27.2491054 172.390893,4.66348028 163.806834,0.318717898 C121.88364,-1.50689822 128.343551,6.73897123 81.9646426,12.5064903 C64.8614988,14.4774418 57.7993298,16.8920486 57.7993298,16.8920486 C57.1495903,17.0705306 56.4998508,17.2235152 55.9000912,17.4019972 C55.4002916,19.9517404 54.9479729,21.5223822 54.4006923,26.7850521 C50.612211,28.8273964 45.6941825,30.7932484 40.781152,35.4796764 C30.6652072,44.4955682 27.7563732,79.3225104 13.7170012,84.9191966 L13.7170012,84.9446941 C13.4221194,85.054333 12.64743,85.3603022 12.3425522,85.4036478 C13.3896325,90.7479095 15.3113621,97.5149279 17.5404685,102.716404 C13.5570653,107.711351 7.11964593,114.97302 1.34696004,117.504914 C2.71141307,122.553406 9.62614115,144.917203 14.6416306,156.108026 C11.8927325,156.108026 9.63613714,155.613376 4.42072785,154.68017 C15.386332,168.902638 12.619941,169.093868 21.8137555,196.954912 C33.0117665,229.657918 34.8285382,254.566359 50.527245,270.64249 C64.604102,243.497924 63.3870899,230.909842 63.4970458,221.151975 C63.8044226,207.727577 57.4169831,174.078616 68.3326073,112.028066 C91.4783289,91.3623977 124.25519,79.5086416 155.33523,86.7040169 C187.824706,94.2002618 204.128171,111.056614 250.347143,114.47072 C286.330218,117.137751 300.829406,108.828138 304.003134,175.486074 C306.104791,219.782763 301.096799,241.838041 312.574697,271.815372 C319.244524,263.605199 326.681542,255.476617 334.365962,227.296856 C345.608955,185.639152 351.898933,142.630084 325.467029,106.439029 Z M334.915742,205.830568 C326.249216,248.148656 321.193742,255.828482 312.272319,269.472158 C305.070206,246.830438 307.041915,224.928144 307.774122,201.674487 C311.487633,101.607266 286.722561,112.87968 250.647023,110.087712 C206.444742,107.048418 189.116688,89.9549394 156.28485,83.2134184 C126.366843,76.9665477 93.1851446,85.1384745 65.4462644,111.668552 C50.3398202,180.837985 66.8906854,217.758267 53.5010529,252.847832 C50.597217,260.351726 52.4289827,262.266584 50.3023352,267.738332 C38.7169794,249.946225 35.6232196,224.821055 31.7847584,212.179429 C19.8295509,181.133756 20.2093986,170.947532 7.19461588,156.161571 C10.3708426,156.86785 14.4667007,157.326803 17.7153984,156.773509 C17.6904084,156.748012 17.6904084,156.748012 17.6904084,156.722514 C16.860741,154.170221 6.38494045,124.927217 3.32116864,117.634951 C9.28627739,114.697647 15.1389312,108.083613 19.1898073,102.769949 C15.9611016,92.3465985 19.9744928,107.61956 13.9419111,85.7886591 C32.349532,80.1409779 30.4352993,44.6740503 49.202776,31.7086062 C51.6942772,30.013027 53.9008926,28.6157677 56.3499109,27.0425762 C56.9021895,22.2516087 56.5273398,25.0767242 57.64939,17.7870084 C79.6480713,13.164324 88.6369679,17.7258146 120.574165,7.46054855 C144.766967,1.45335361 162.1475,1.67518127 164.656494,1.95310328 C180.067816,11.8002114 188.786821,17.3484526 206.914554,16.0531831 C215.218725,15.3596529 221.823577,11.2647654 227.606259,5.24227198 C237.627242,12.9118995 248.810259,17.5600813 262.567244,23.9828844 C318.15496,49.9418197 323.115472,71.0485937 323.115472,106.03362 C326.609071,111.069363 330.457529,119.03476 332.361765,124.366273 C343.844662,153.282911 340.103662,181.126106 334.915742,205.830568 Z"/>
          </g>
          <g fill-rule="nonzero" transform="translate(121.341 201.36)">
            <path fill="#FFF" d="M251.732469,38.7115222 C251.562894,51.2358382 246.015373,64.4384537 238.893228,75.0005461 C231.964883,85.2719387 213.917271,88.9299111 200.569305,88.9299111 C189.668063,88.9299111 179.953845,86.7012127 173.873374,82.8009905 C162.414957,75.4365958 150.108666,57.098284 147.395468,39.6078465 C172.032276,24.8063822 222.832064,24.8063822 251.732469,38.7115222 Z M15.5873374,37.0157734 C15.2481877,50.048814 20.9895086,63.978179 28.4265782,75.0005461 C35.3549233,85.2719387 53.4025354,88.9299111 66.7505008,88.9299111 C77.651743,88.9299111 87.3659611,86.7012127 93.4464317,82.8009905 C104.565699,75.6546206 116.460165,58.1884082 119.633638,41.1824704 C93.4464317,25.8238314 43.0584678,24.1523076 15.5873374,37.0157734 Z" opacity=".2"/>
            <path fill="#FFF" d="M251.732469,38.7115222 C222.832064,24.8306072 172.032276,24.8063822 147.419693,39.5836215 C147.007868,36.9188735 146.814069,34.2783504 146.862519,31.6862772 C147.395468,11.7006666 175.980948,4.60274669 200.30283,4.60274669 C217.454118,4.60274669 237.706204,8.16381913 244.246949,16.0853884 C249.721795,22.7472587 251.853593,30.571928 251.732469,38.7115222 Z M67.0169756,4.60274669 C49.8656879,4.60274669 29.6136024,8.16381913 23.0728571,16.0853884 C17.9856107,22.262759 15.7811373,29.4818038 15.5873374,37.0157734 C43.0826928,24.1523076 93.4464317,25.8238314 119.609413,41.1582454 C120.215038,37.9605477 120.529962,34.787075 120.433062,31.6862772 C119.900113,11.7006666 91.3146333,4.60274669 67.0169756,4.60274669 Z" opacity=".4"/>
            <path fill="#210D34" d="M265.637609,11.7733415 C264.18411,5.93512073 197.783432,-5.86244579 163.311282,5.9835707 C154.977888,8.84211864 149.212342,11.3857418 145.772394,14.9952642 L145.772394,14.9468143 C144.561145,17.0786127 141.533022,17.8053622 139.376999,17.0059378 C135.501002,15.5282138 131.576554,15.6008888 127.942807,17.0059378 C125.811009,17.8295872 122.758661,17.0786127 121.547412,14.9468143 L121.547412,14.9952642 C118.107464,11.3857418 112.366143,8.86634363 104.008524,5.9835707 C69.5363738,-5.86244579 3.13569633,5.95934572 1.68219737,11.7733415 C1.12502276,14.0747149 0.374048302,26.453681 0.422498267,30.8868528 C0.470948233,35.3200246 3.23259626,34.9808749 7.37506829,36.9188735 C8.97391715,37.6698479 12.3169648,43.3869438 12.6318895,45.7367671 C14.1580634,56.7349092 18.5427853,66.9336269 25.3742304,77.0596696 C37.0506721,94.3563072 77.9666678,97.0937302 95.4086553,85.8775633 C107.472697,78.1255688 119.972788,59.884157 123.29161,41.739645 C123.945685,38.1301226 124.551309,35.3200246 125.011584,32.8975264 L125.035809,33.0186513 C125.907909,30.0389784 129.808131,28.5854795 133.684128,28.5128045 C137.560125,28.5854795 141.460347,30.0389784 142.332447,33.0186513 L142.356672,32.8975264 C142.792721,35.3200246 143.422571,38.1301226 144.076646,41.739645 C147.395468,59.884157 159.895559,78.1255688 171.959601,85.8775633 C189.401588,97.0937302 230.317584,94.3563072 241.994025,77.0596696 C248.825471,66.9336269 253.210192,56.7349092 254.736366,45.7367671 C255.051291,43.3627188 258.394339,37.6456229 259.993188,36.9188735 C264.13566,34.9808749 266.921533,35.3442496 266.945758,30.8868528 C266.945758,26.453681 266.194783,14.0504899 265.637609,11.7733415 Z M92.7681322,81.7593162 C77.3125933,91.6915591 39.4247204,89.1237109 29.4198025,74.3222466 C18.0340607,57.4132087 10.4758661,33.2851261 23.9934064,16.8605879 C37.0264471,1.04167425 118.325489,-0.872099373 119.221813,31.7105022 C119.754763,50.8482385 105.704273,73.4501472 92.7681322,81.7593162 Z M237.900003,74.3222466 C227.895086,89.1479359 190.007213,91.6915591 174.551674,81.7593162 C161.615533,73.4501472 147.565043,50.8482385 148.097993,31.7105022 C148.994317,-0.872099373 230.293359,1.04167425 243.3264,16.8605879 C256.84394,33.2609011 249.285745,57.4132087 237.900003,74.3222466 Z"/>
            <path fill="#2E1843" d="M1.31882263,14.3896397 C1.43994754,13.1783905 1.56107245,12.2336162 1.68219737,11.7491166 C3.13569633,5.91089575 69.5363738,-5.88667077 104.008524,5.95934572 C112.341918,8.81789366 118.107464,11.3615168 121.547412,14.9710392 L121.547412,14.9225893 C121.547412,14.8983643 68.2524498,-13.2268405 1.31882263,14.3896397 Z M264.28101,35.1262248 C265.904083,34.3994753 266.873083,33.430476 266.897308,30.8384028 C266.945758,26.429456 266.194783,14.0262649 265.637609,11.7248916 C264.18411,5.88667077 197.783432,-5.91089575 163.311282,5.93512073 C155.365487,8.67254377 149.769516,11.119267 146.281119,14.4623146 C164.498306,0.0484499652 238.747878,-2.83432296 258.660814,16.9332628 C262.779061,21.0515099 264.08721,28.8519543 264.28101,35.1262248 Z"/>
          </g>
        </g>
      </g>
    </g>
  </g>
</svg>
