<?xml version="1.0" encoding="UTF-8"?>
<svg width="532px" height="343px" viewBox="0 0 532 343" version="1.1" xmlns="http://www.w3.org/2000/svg" xmlns:xlink="http://www.w3.org/1999/xlink">
    <!-- Generator: Sketch 45.1 (43504) - http://www.bohemiancoding.com/sketch -->
    <title>Artboard Copy 2</title>
    <desc>Created with Sketch.</desc>
    <defs></defs>
    <g id="Page-1" stroke="none" stroke-width="1" fill="none" fill-rule="evenodd">
        <g id="Artboard-Copy-2">
            <rect id="Rectangle" fill="#D3F9D8" x="0" y="0" width="532" height="343"></rect>
            <g id="startup" transform="translate(141.000000, 47.000000)" fill-rule="nonzero">
                <circle id="Oval" fill="#FF5B62" cx="124.999512" cy="124.999512" r="124.999512"></circle>
                <ellipse id="Oval" fill="#ED4C54" cx="124.999512" cy="205.880859" rx="89.0053711" ry="7.01611328"></ellipse>
                <path d="M32.2172852,32.8232422 L217.781738,32.8232422 C223.878418,32.8232422 228.866699,37.8120117 228.866699,43.9082031 L228.866699,158.217285 L21.1323242,158.217285 L21.1323242,43.9077148 C21.1323242,37.8110352 26.1201172,32.8232422 32.2172852,32.8232422 Z" id="Shape" fill="#666666"></path>
                <path d="M28.659668,150.691406 L221.338867,150.691406 L221.338867,43.9086914 C221.338867,41.9667969 219.722656,40.3505859 217.781738,40.3505859 L32.2182617,40.3505859 C30.2763672,40.3505859 28.6611328,41.9667969 28.6611328,43.9086914 L28.6611328,150.691895 L28.659668,150.691895 L28.659668,150.691406 Z" id="Shape" fill="#21D0C3"></path>
                <path d="M228.865723,158.218262 L228.865723,170.340332 C228.865723,176.438477 223.367676,181.425293 216.646484,181.425293 L33.3515625,181.425293 C26.6303711,181.425293 21.1323242,176.438477 21.1323242,170.340332 L21.1323242,158.218262 L228.865723,158.218262 Z" id="Shape" fill="#FFFFFF"></path>
                <path d="M41.9599609,86.059082 C59.581543,86.059082 74.4663086,97.769043 79.262207,113.830566 C87.1176758,117.375977 92.8710937,124.755859 94.1381836,133.58252 C95.5224609,133.249512 96.96875,133.072266 98.4555664,133.072266 C102.731934,133.072266 106.66748,134.529785 109.791992,136.975586 C110.773926,130.775391 116.144043,126.03418 122.620605,126.03418 C123.433594,126.03418 124.229004,126.109863 124.999512,126.252441 C125.770508,126.109375 126.565918,126.03418 127.378418,126.03418 C133.85498,126.03418 139.225098,130.775391 140.207031,136.975586 C143.331055,134.529785 147.267578,133.072266 151.542969,133.072266 C153.029785,133.072266 154.474609,133.25 155.860352,133.58252 C157.127441,124.755371 162.880859,117.375488 170.736328,113.830566 C175.533691,97.769043 190.41748,86.059082 208.038574,86.059082 C212.709961,86.059082 217.188477,86.8828125 221.338867,88.3911133 L221.338867,150.690918 L133.154297,150.690918 L133.155273,150.660645 L133.094727,150.690918 L116.90625,150.690918 L116.845703,150.660645 L116.84668,150.690918 L28.6611328,150.690918 L28.6611328,88.3911133 C32.8110352,86.8828125 37.2895508,86.059082 41.9614258,86.059082 L41.9599609,86.059082 L41.9599609,86.059082 Z" id="Shape" fill="#ECF0F1" opacity="0"></path>
                <g id="Group-3" transform="translate(50.000000, 51.690918)">
                    <g id="Group" transform="translate(0.996094, 0.734375)" fill="#FFFFFF">
                        <path d="M19.0317383,0.16796875 L122.975586,0.16796875 L138.448242,0.16796875 C140.323242,0.16796875 141.856934,1.703125 141.856934,3.57666016 L141.856934,23.8632812 L141.856934,97.9570312 L0.149902344,97.9570312 L0.149414062,97.9560547 L0.149414062,23.8642578 L0.149414062,3.57714844 C0.149414062,1.70214844 1.68359375,0.168457031 3.55810547,0.168457031 C3.55859375,0.16796875 19.0317383,0.16796875 19.0317383,0.16796875 Z" id="Shape"></path>
                    </g>
                    <g id="Group-2" transform="translate(1.000000, 0.000000)">
                        <path d="M3.5546875,0.90234375 L138.444824,0.90234375 C140.319824,0.90234375 141.853516,2.43652344 141.853516,4.31103516 L141.853516,11.128418 L0.145507812,11.128418 L0.145507812,4.31103516 C0.145507812,2.43603516 1.67919922,0.90234375 3.5546875,0.90234375 Z" id="Shape" fill="#828282"></path>
                        <path d="M63.2333984,4.43310547 L131.685547,4.43310547 C132.189941,4.43310547 132.601074,4.84423828 132.601074,5.34863281 L132.601074,7.04736328 C132.601074,7.55175781 132.189941,7.96289062 131.685547,7.96289062 L63.2333984,7.96289062 C62.7290039,7.96289062 62.3178711,7.55175781 62.3178711,7.04736328 L62.3178711,5.34863281 C62.3178711,4.84521484 62.7294922,4.43310547 63.2333984,4.43310547 Z" id="Shape" fill="#FFFFFF"></path>
                        <path d="M6.94580078,3.82568359 C8.02929688,3.82568359 8.90820312,4.703125 8.90820312,5.78808594 C8.90820312,6.87255859 8.02880859,7.75048828 6.94580078,7.75048828 C5.86083984,7.75048828 4.98144531,6.87255859 4.98144531,5.78808594 C4.98144531,4.703125 5.86083984,3.82568359 6.94580078,3.82568359 Z" id="Shape" fill="#21D0C3"></path>
                        <path d="M14.6933594,3.82568359 C15.7783203,3.82568359 16.6557617,4.703125 16.6557617,5.78808594 C16.6557617,6.87255859 15.7783203,7.75048828 14.6933594,7.75048828 C13.609375,7.75048828 12.730957,6.87255859 12.730957,5.78808594 C12.7304688,4.703125 13.6098633,3.82568359 14.6933594,3.82568359 Z" id="Shape" fill="#FAD24D"></path>
                        <path d="M22.4428711,3.82568359 C23.5263672,3.82568359 24.4047852,4.703125 24.4047852,5.78808594 C24.4047852,6.87255859 23.5263672,7.75048828 22.4428711,7.75048828 C21.3574219,7.75048828 20.4785156,6.87255859 20.4785156,5.78808594 C20.4785156,4.703125 21.3574219,3.82568359 22.4428711,3.82568359 Z" id="Shape" fill="#FF5B62"></path>
                        <polygon id="Shape" fill="#ECF0F1" points="8 16 134.369629 16 134.369629 57.6870117 8 57.6870117"></polygon>
                        <path d="M26.5639648,62.6518555 C31.2036133,62.6518555 34.9643555,66.4125977 34.9643555,71.0522461 C34.9643555,75.690918 31.2036133,79.4526367 26.5639648,79.4526367 C21.925293,79.4526367 18.1645508,75.6914062 18.1645508,71.0522461 C18.1640625,66.4125977 21.9248047,62.6518555 26.5639648,62.6518555 Z" id="Shape" fill="#FF5B62"></path>
                        <path d="M71,62.6518555 C75.6386719,62.6518555 79.3994141,66.4125977 79.3994141,71.0522461 C79.3994141,75.690918 75.6386719,79.4526367 71,79.4526367 C66.3613281,79.4526367 62.6005859,75.6914062 62.6005859,71.0522461 C62.6000977,66.4125977 66.3608398,62.6518555 71,62.6518555 Z" id="Shape" fill="#21D0C3"></path>
                        <path d="M115.435547,62.6518555 C120.074219,62.6518555 123.834961,66.4125977 123.834961,71.0522461 C123.834961,75.690918 120.074219,79.4526367 115.435547,79.4526367 C110.795898,79.4526367 107.035156,75.6914062 107.035156,71.0522461 C107.035156,66.4125977 110.795898,62.6518555 115.435547,62.6518555 Z" id="Shape" fill="#FAD24D"></path>
                        <g id="Group" transform="translate(14.359375, 81.789062)" fill="#DCE3DB">
                            <path d="M0.151855469,0.464355469 L24.2583008,0.464355469 L24.2583008,1.77148438 L0.151855469,1.77148438 L0.151855469,0.464355469 Z M0.151855469,8.68212891 L16.3432617,8.68212891 L16.3432617,9.98925781 L0.151855469,9.98925781 L0.151855469,8.68212891 L0.151855469,8.68212891 Z M0.151855469,4.57324219 L24.2583008,4.57324219 L24.2583008,5.87988281 L0.151855469,5.87988281 L0.151855469,4.57324219 Z" id="Shape"></path>
                            <path d="M44.5874023,0.464355469 L68.6933594,0.464355469 L68.6933594,1.77148438 L44.5874023,1.77148438 L44.5874023,0.464355469 L44.5874023,0.464355469 Z M44.5874023,8.68212891 L60.7797852,8.68212891 L60.7797852,9.98925781 L44.5874023,9.98925781 L44.5874023,8.68212891 L44.5874023,8.68212891 Z M44.5874023,4.57324219 L68.6933594,4.57324219 L68.6933594,5.87988281 L44.5874023,5.87988281 L44.5874023,4.57324219 L44.5874023,4.57324219 Z" id="Shape"></path>
                            <path d="M89.0244141,0.464355469 L113.129395,0.464355469 L113.129395,1.77148438 L89.0244141,1.77148438 L89.0244141,0.464355469 Z M89.0244141,8.68212891 L105.215332,8.68212891 L105.215332,9.98925781 L89.0244141,9.98925781 L89.0244141,8.68212891 Z M89.0244141,4.57324219 L113.129395,4.57324219 L113.129395,5.87988281 L89.0244141,5.87988281 L89.0244141,4.57324219 Z" id="Shape"></path>
                        </g>
                    </g>
                </g>
                <circle id="Oval" fill="#B6B6B8" cx="124.999512" cy="169.336426" r="3.81640625"></circle>
                <polygon id="Shape" fill="#C2C2C4" points="148.957031 198.863281 166.581543 204.510742 83.4160156 204.510742 97.6367188 198.863281 97.6367188 181.425781 148.95752 181.425781 148.95752 198.863281"></polygon>
                <polygon id="Shape" fill="#B0B0B0" points="148.957031 198.863281 97.6362305 181.425781 148.957031 181.425781"></polygon>
                <polygon id="Shape" fill="#ECF0F1" points="97.6362305 198.863281 148.957031 198.863281 166.581543 204.510742 166.581543 206.942383 125 206.942383 83.4160156 206.942383 83.4160156 204.510742"></polygon>
            </g>
            <g id="Group-5" transform="translate(227.000000, 115.000000)" fill-rule="nonzero">
                <g id="Group" transform="translate(0.337703, 2.677785)" fill="#C9CACC">
                    <path d="M1.62966485,0.0114223043 L1.62966485,0.596691243 L0.45912697,0.596691243 L0.45912697,0.0114223043 L1.62966485,0.0114223043 Z M0.166368345,1.07692465 L0.751637284,1.07692465 L0.751637284,2.24746252 L0.166368345,2.24746252 L0.166368345,1.07692465 Z M0.166368345,4.00376596 L0.751637284,4.00376596 L0.751637284,5.17430384 L0.166368345,5.17430384 L0.166368345,4.00376596 Z M0.166368345,6.93085559 L0.751637284,6.93085559 L0.751637284,8.10139347 L0.166368345,8.10139347 L0.166368345,6.93085559 Z M0.166368345,9.85769691 L0.751637284,9.85769691 L0.751637284,11.0282348 L0.166368345,11.0282348 L0.166368345,9.85769691 Z M0.166368345,12.7845382 L0.751637284,12.7845382 L0.751637284,13.9550761 L0.166368345,13.9550761 L0.166368345,12.7845382 Z M0.166368345,15.7113795 L0.751637284,15.7113795 L0.751637284,16.8819174 L0.166368345,16.8819174 L0.166368345,15.7113795 Z M1.0781662,18.3119403 L1.0781662,17.7266713 L2.24870408,17.7266713 L2.24870408,18.3119403 L1.0781662,18.3119403 Z M4.00525583,18.3119403 L4.00525583,17.7266713 L5.17579371,17.7266713 L5.17579371,18.3119403 L4.00525583,18.3119403 Z M6.93209714,18.3119403 L6.93209714,17.7266713 L8.10263502,17.7266713 L8.10263502,18.3119403 L6.93209714,18.3119403 Z M9.85893846,18.3119403 L9.85893846,17.7266713 L11.0294763,17.7266713 L11.0294763,18.3119403 L9.85893846,18.3119403 Z M12.7857798,18.3119403 L12.7857798,17.7266713 L13.9563177,17.7266713 L13.9563177,18.3119403 L12.7857798,18.3119403 Z M15.7126211,18.3119403 L15.7126211,17.7266713 L16.883159,17.7266713 L16.883159,18.3119403 L15.7126211,18.3119403 Z M18.6394624,18.3119403 L18.6394624,17.7266713 L19.8100003,17.7266713 L19.8100003,18.3119403 L18.6394624,18.3119403 Z M21.566552,18.3119403 L21.566552,17.7266713 L22.7370899,17.7266713 L22.7370899,18.3119403 L21.566552,18.3119403 Z M24.4933934,18.3119403 L24.4933934,17.7266713 L25.6639312,17.7266713 L25.6639312,18.3119403 L24.4933934,18.3119403 Z M27.4202347,18.3119403 L27.4202347,17.7266713 L28.5907726,17.7266713 L28.5907726,18.3119403 L27.4202347,18.3119403 Z M30.347076,18.3119403 L30.347076,17.7266713 L31.5176139,17.7266713 L31.5176139,18.3119403 L30.347076,18.3119403 Z M33.2739173,18.3119403 L33.2739173,17.7266713 L34.4444552,17.7266713 L34.4444552,18.3119403 L33.2739173,18.3119403 Z M36.2007586,18.3119403 L36.2007586,17.7266713 L37.3712965,17.7266713 L37.3712965,18.3119403 L36.2007586,18.3119403 Z M39.1278483,18.3119403 L39.1278483,17.7266713 L40.2983861,17.7266713 L40.2983861,18.3119403 L39.1278483,18.3119403 Z M42.0544413,18.3119403 L42.0544413,17.7266713 L43.2249791,17.7266713 L43.2249791,18.3119403 L42.0544413,18.3119403 Z M44.9812826,18.3119403 L44.9812826,17.7266713 L46.1518205,17.7266713 L46.1518205,18.3119403 L44.9812826,18.3119403 Z M47.9081239,18.3119403 L47.9081239,17.7266713 L49.0786618,17.7266713 L49.0786618,18.3119403 L47.9081239,18.3119403 Z M50.8349652,18.3119403 L50.8349652,17.7266713 L52.0055031,17.7266713 L52.0055031,18.3119403 L50.8349652,18.3119403 Z M53.7618065,18.3119403 L53.7618065,17.7266713 L54.9323444,17.7266713 L54.9323444,18.3119403 L53.7618065,18.3119403 Z M56.6888962,18.3119403 L56.6888962,17.7266713 L57.859434,17.7266713 L57.859434,18.3119403 L56.6888962,18.3119403 Z M59.6157375,18.3119403 L59.6157375,17.7266713 L60.7862753,17.7266713 L60.7862753,18.3119403 L59.6157375,18.3119403 Z M62.5425788,18.3119403 L62.5425788,17.7266713 L63.7131167,17.7266713 L63.7131167,18.3119403 L62.5425788,18.3119403 Z M65.4694201,18.3119403 L65.4694201,17.7266713 L66.639958,17.7266713 L66.639958,18.3119403 L65.4694201,18.3119403 Z M68.3962614,18.3119403 L68.3962614,17.7266713 L69.5667993,17.7266713 L69.5667993,18.3119403 L68.3962614,18.3119403 Z M70.3512136,16.7547822 L69.7659447,16.7547822 L69.7659447,15.5842443 L70.3512136,15.5842443 L70.3512136,16.7547822 Z M70.3512136,13.8279409 L69.7659447,13.8279409 L69.7659447,12.657403 L70.3512136,12.657403 L70.3512136,13.8279409 Z M70.3512136,10.9008513 L69.7659447,10.9008513 L69.7659447,9.73031338 L70.3512136,9.73031338 L70.3512136,10.9008513 Z M70.3512136,7.97425825 L69.7659447,7.97425825 L69.7659447,6.80372038 L70.3512136,6.80372038 L70.3512136,7.97425825 Z M70.3512136,5.04741694 L69.7659447,5.04741694 L69.7659447,3.87687906 L70.3512136,3.87687906 L70.3512136,5.04741694 Z M70.3512136,2.12057562 L69.7659447,2.12057562 L69.7659447,0.950037743 L70.3512136,0.950037743 L70.3512136,2.12057562 Z M68.9470151,0.0119189262 L68.9470151,0.597187865 L67.7764773,0.597187865 L67.7764773,0.0119189262 L68.9470151,0.0119189262 Z M66.0204221,0.0119189262 L66.0204221,0.597187865 L64.8498842,0.597187865 L64.8498842,0.0119189262 L66.0204221,0.0119189262 Z M63.0933325,0.0119189262 L63.0933325,0.597187865 L61.9227946,0.597187865 L61.9227946,0.0119189262 L63.0933325,0.0119189262 Z M60.1664912,0.0119189262 L60.1664912,0.597187865 L58.9959533,0.597187865 L58.9959533,0.0119189262 L60.1664912,0.0119189262 Z M57.2396499,0.0119189262 L57.2396499,0.597187865 L56.069112,0.597187865 L56.069112,0.0119189262 L57.2396499,0.0119189262 Z M54.3128085,0.0119189262 L54.3128085,0.597187865 L53.1422707,0.597187865 L53.1422707,0.0119189262 L54.3128085,0.0119189262 Z M51.3859672,0.0119189262 L51.3859672,0.597187865 L50.2154294,0.597187865 L50.2154294,0.0119189262 L51.3859672,0.0119189262 Z M48.4591259,0.0119189262 L48.4591259,0.597187865 L47.288588,0.597187865 L47.288588,0.0119189262 L48.4591259,0.0119189262 Z M45.5320363,0.0119189262 L45.5320363,0.597187865 L44.3614984,0.597187865 L44.3614984,0.0119189262 L45.5320363,0.0119189262 Z M42.605195,0.0119189262 L42.605195,0.597187865 L41.4346571,0.597187865 L41.4346571,0.0119189262 L42.605195,0.0119189262 Z M39.6783537,0.0119189262 L39.6783537,0.597187865 L38.5078158,0.597187865 L38.5078158,0.0119189262 L39.6783537,0.0119189262 Z M36.7515123,0.0119189262 L36.7515123,0.597187865 L35.5809745,0.597187865 L35.5809745,0.0119189262 L36.7515123,0.0119189262 Z M33.824671,0.0119189262 L33.824671,0.597187865 L32.6541331,0.597187865 L32.6541331,0.0119189262 L33.824671,0.0119189262 Z M30.8978297,0.0119189262 L30.8978297,0.597187865 L29.7272918,0.597187865 L29.7272918,0.0119189262 L30.8978297,0.0119189262 Z M27.9707401,0.0119189262 L27.9707401,0.597187865 L26.8002022,0.597187865 L26.8002022,0.0119189262 L27.9707401,0.0119189262 Z M25.0441471,0.0119189262 L25.0441471,0.597187865 L23.8736092,0.597187865 L23.8736092,0.0119189262 L25.0441471,0.0119189262 Z M22.1173058,0.0119189262 L22.1173058,0.597187865 L20.9467679,0.597187865 L20.9467679,0.0119189262 L22.1173058,0.0119189262 Z M19.1904644,0.0119189262 L19.1904644,0.597187865 L18.0199266,0.597187865 L18.0199266,0.0119189262 L19.1904644,0.0119189262 Z M16.2636231,0.0119189262 L16.2636231,0.597187865 L15.0930852,0.597187865 L15.0930852,0.0119189262 L16.2636231,0.0119189262 Z M13.3367818,0.0119189262 L13.3367818,0.597187865 L12.1662439,0.597187865 L12.1662439,0.0119189262 L13.3367818,0.0119189262 Z M10.4096922,0.0119189262 L10.4096922,0.597187865 L9.2391543,0.597187865 L9.2391543,0.0119189262 L10.4096922,0.0119189262 Z M7.48285086,0.0119189262 L7.48285086,0.597187865 L6.31231298,0.597187865 L6.31231298,0.0119189262 L7.48285086,0.0119189262 Z M4.55600954,0.0119189262 L4.55600954,0.597187865 L3.38547166,0.597187865 L3.38547166,0.0119189262 L4.55600954,0.0119189262 Z" id="Shape"></path>
                    <path d="M3.17862863,24.6962634 L3.17862863,25.2815324 L2.00809075,25.2815324 L2.00809075,24.6962634 L3.17862863,24.6962634 Z M52.8274124,25.9241611 L53.4126813,25.9241611 L53.4126813,27.094699 L52.8274124,27.094699 L52.8274124,25.9241611 Z M52.8274124,28.8510024 L53.4126813,28.8510024 L53.4126813,30.0215403 L52.8274124,30.0215403 L52.8274124,28.8510024 Z M52.8274124,31.7778438 L53.4126813,31.7778438 L53.4126813,32.9483816 L52.8274124,32.9483816 L52.8274124,31.7778438 Z M52.8274124,34.7046851 L53.4126813,34.7046851 L53.4126813,35.875223 L52.8274124,35.875223 L52.8274124,34.7046851 Z M53.7590751,37.2851326 L53.7590751,36.6998637 L54.929613,36.6998637 L54.929613,37.2851326 L53.7590751,37.2851326 Z M56.6861647,37.2851326 L56.6861647,36.6998637 L57.8567026,36.6998637 L57.8567026,37.2851326 L56.6861647,37.2851326 Z M59.613006,37.2851326 L59.613006,36.6998637 L60.7835439,36.6998637 L60.7835439,37.2851326 L59.613006,37.2851326 Z M62.5398474,37.2851326 L62.5398474,36.6998637 L63.7103852,36.6998637 L63.7103852,37.2851326 L62.5398474,37.2851326 Z M65.4666887,37.2851326 L65.4666887,36.6998637 L66.6372266,36.6998637 L66.6372266,37.2851326 L65.4666887,37.2851326 Z M68.39353,37.2851326 L68.39353,37.1674332 L68.2187191,36.9926223 L68.2187191,35.9397838 L68.803988,35.9397838 L68.803988,36.9926223 L68.803988,37.2856292 L68.5109811,37.2856292 L68.3932817,37.2856292 L68.3932817,37.2851326 L68.39353,37.2851326 Z M68.8042363,34.1834804 L68.2189674,34.1834804 L68.2189674,33.0129425 L68.8042363,33.0129425 L68.8042363,34.1834804 Z M68.8042363,31.256639 L68.2189674,31.256639 L68.2189674,30.0861012 L68.8042363,30.0861012 L68.8042363,31.256639 Z M68.8042363,28.3297977 L68.2189674,28.3297977 L68.2189674,27.1592599 L68.8042363,27.1592599 L68.8042363,28.3297977 Z M68.8042363,25.4029564 L68.2189674,25.4029564 L68.2189674,25.282029 L67.7548742,25.282029 L67.7548742,24.69676 L68.5119743,24.69676 L68.8049813,24.69676 L68.8049813,24.989767 L68.8049813,25.4037013 L68.8042363,25.4029564 Z M65.9983225,24.6962634 L65.9983225,25.2815324 L64.8277846,25.2815324 L64.8277846,24.6962634 L65.9983225,24.6962634 Z M63.0714811,24.6962634 L63.0714811,25.2815324 L61.9009433,25.2815324 L61.9009433,24.6962634 L63.0714811,24.6962634 Z M60.1446398,24.6962634 L60.1446398,25.2815324 L58.9741019,25.2815324 L58.9741019,24.6962634 L60.1446398,24.6962634 Z M57.2177985,24.6962634 L57.2177985,25.2815324 L56.0472606,25.2815324 L56.0472606,24.6962634 L57.2177985,24.6962634 Z M54.2907089,24.6962634 L54.2907089,25.2815324 L53.120171,25.2815324 L53.120171,24.6962634 L54.2907089,24.6962634 Z M1.71508382,25.9241611 L2.30035276,25.9241611 L2.30035276,27.094699 L1.71508382,27.094699 L1.71508382,25.9241611 Z M1.71508382,28.8510024 L2.30035276,28.8510024 L2.30035276,30.0215403 L1.71508382,30.0215403 L1.71508382,28.8510024 Z M1.71508382,31.7778438 L2.30035276,31.7778438 L2.30035276,32.9483816 L1.71508382,32.9483816 L1.71508382,31.7778438 Z M1.71508382,34.7046851 L2.30035276,34.7046851 L2.30035276,35.875223 L1.71508382,35.875223 L1.71508382,34.7046851 Z M2.64699486,37.2851326 L2.64699486,36.6998637 L3.81753274,36.6998637 L3.81753274,37.2851326 L2.64699486,37.2851326 Z M5.57383618,37.2851326 L5.57383618,36.6998637 L6.74437406,36.6998637 L6.74437406,37.2851326 L5.57383618,37.2851326 Z M8.5006775,37.2851326 L8.5006775,36.6998637 L9.67121537,36.6998637 L9.67121537,37.2851326 L8.5006775,37.2851326 Z M11.4275188,37.2851326 L11.4275188,36.6998637 L12.5980567,36.6998637 L12.5980567,37.2851326 L11.4275188,37.2851326 Z M14.3543601,37.2851326 L14.3543601,36.6998637 L15.524898,36.6998637 L15.524898,37.2851326 L14.3543601,37.2851326 Z M17.2814498,37.2851326 L17.2814498,37.1674332 L17.1066388,36.9926223 L17.1066388,35.9397838 L17.6919078,35.9397838 L17.6919078,36.9926223 L17.6919078,37.2856292 L17.3989008,37.2856292 L17.2812014,37.2856292 L17.2814498,37.2851326 L17.2814498,37.2851326 Z M17.6916595,34.1834804 L17.1063905,34.1834804 L17.1063905,33.0129425 L17.6916595,33.0129425 L17.6916595,34.1834804 Z M17.6916595,31.256639 L17.1063905,31.256639 L17.1063905,30.0861012 L17.6916595,30.0861012 L17.6916595,31.256639 Z M17.6916595,28.3297977 L17.1063905,28.3297977 L17.1063905,27.1592599 L17.6916595,27.1592599 L17.6916595,28.3297977 Z M17.6916595,25.4029564 L17.1063905,25.4029564 L17.1063905,25.282029 L16.6422973,25.282029 L16.6422973,24.69676 L17.3993975,24.69676 L17.6924044,24.69676 L17.6924044,24.989767 L17.6924044,25.4037013 L17.6916595,25.4029564 Z M14.8859939,24.6962634 L14.8859939,25.2815324 L13.715456,25.2815324 L13.715456,24.6962634 L14.8859939,24.6962634 Z M11.9591526,24.6962634 L11.9591526,25.2815324 L10.7886147,25.2815324 L10.7886147,24.6962634 L11.9591526,24.6962634 Z M9.03231127,24.6962634 L9.03231127,25.2815324 L7.86177339,25.2815324 L7.86177339,24.6962634 L9.03231127,24.6962634 Z M6.10546995,24.6962634 L6.10546995,25.2815324 L4.93493207,25.2815324 L4.93493207,24.6962634 L6.10546995,24.6962634 Z" id="Shape"></path>
                </g>
                <circle id="Oval" fill="#ECF0F1" cx="35.5976113" cy="19.4482112" r="12.390717"></circle>
                <path d="M48.2808386,19.447218 C48.2808386,22.9493958 46.8612449,26.1203268 44.5661066,28.415465 C42.2709684,30.7106032 39.1000374,32.130197 35.5978596,32.130197 C32.0956818,32.130197 28.9247508,30.7106032 26.6296126,28.415465 C24.3344743,26.1203268 22.9148806,22.9493958 22.9148806,19.447218 L23.5001495,19.447218 C23.5001495,22.7879937 24.8544375,25.8129178 27.0435469,28.0017789 C29.2324081,30.1906401 32.2573322,31.5451764 35.5981079,31.5451764 C38.9388836,31.5451764 41.9638078,30.1908884 44.1526689,28.0017789 C46.34153,25.8129178 47.6960663,22.7879937 47.6960663,19.447218 L48.2808386,19.447218 Z" id="Shape" fill="#828282"></path>
                <path d="M33.0591283,14.4531879 L30.1519036,21.4637513 L35.4285115,31.5151308 L35.4285115,21.4195519 C34.9855248,21.3227107 34.6542779,20.9278962 34.6542779,20.456602 C34.6542779,19.9118078 35.0957748,19.4705592 35.6403208,19.4705592 C36.185115,19.4705592 36.6263636,19.9120561 36.6263636,20.456602 C36.6263636,20.9581902 36.2519107,21.3721246 35.767456,21.4344506 L35.767456,31.5153791 L41.0435673,21.4639996 L38.1363426,14.4534362 L35.5981079,14.4534362 L33.0593766,14.4534362 L33.0591283,14.4534362 L33.0591283,14.4531879 Z" id="Shape" fill="#FFBA1B"></path>
                <g id="Group" transform="translate(20.699202, 30.736924)" fill="#828282">
                    <polygon id="Shape" points="1.03793982 0.808252183 28.7583825 0.808252183 28.7583825 1.39352112 1.03793982 1.39352112"></polygon>
                    <path d="M1.03793982,0.133094676 C1.57230502,0.133094676 2.00535933,0.566148995 2.00535933,1.10051419 C2.00535933,1.63487938 1.57230502,2.0679337 1.03793982,2.0679337 C0.503574632,2.0679337 0.0705203134,1.63487938 0.0705203134,1.10051419 C0.0705203134,0.566397306 0.503574632,0.133094676 1.03793982,0.133094676 Z" id="Shape"></path>
                    <path d="M28.7588791,0.133094676 C29.2932443,0.133094676 29.7262986,0.566148995 29.7262986,1.10051419 C29.7262986,1.63487938 29.2932443,2.0679337 28.7588791,2.0679337 C28.2245139,2.0679337 27.7914596,1.63487938 27.7914596,1.10051419 C27.7914596,0.566397306 28.2245139,0.133094676 28.7588791,0.133094676 Z" id="Shape"></path>
                </g>
                <path d="M32.1272173,0.221245068 L39.067757,0.221245068 L39.067757,13.6297887 C39.067757,14.0829562 38.6970287,14.4531879 38.2441095,14.4531879 L32.9508647,14.4531879 C32.4976972,14.4531879 32.1272173,14.0832046 32.1272173,13.6297887 L32.1272173,0.221245068 Z" id="Shape" fill="#FF5B62"></path>
                <rect id="Rectangle-path" fill="#FFFFFF" x="32.1279622" y="10.2589674" width="6.93904985" height="1.25421867"></rect>
                <g id="Group" transform="translate(22.189068, 18.321376)" fill="#828282">
                    <circle id="Oval" cx="13.4085437" cy="13.5751603" r="1"></circle>
                    <path d="M1.01807495,0.158670705 C1.55244014,0.158670705 1.98549446,0.591725024 1.98549446,1.12609022 C1.98549446,1.66045541 1.55244014,2.09350973 1.01807495,2.09350973 C0.483709755,2.09350973 0.0506554364,1.66045541 0.0506554364,1.12609022 C0.0506554364,0.591725024 0.483709755,0.158670705 1.01807495,0.158670705 Z" id="Shape"></path>
                    <path d="M25.799509,0.158670705 C26.3338742,0.158670705 26.7669285,0.591725024 26.7669285,1.12609022 C26.7669285,1.66045541 26.3338742,2.09350973 25.799509,2.09350973 C25.2651438,2.09350973 24.8320895,1.66045541 24.8320895,1.12609022 C24.8320895,0.591725024 25.2653921,0.158670705 25.799509,0.158670705 Z" id="Shape"></path>
                </g>
            </g>
        </g>
    </g>
</svg>