<?xml version="1.0" encoding="UTF-8"?>
<svg width="532px" height="343px" viewBox="0 0 532 343" version="1.1" xmlns="http://www.w3.org/2000/svg" xmlns:xlink="http://www.w3.org/1999/xlink">
    <!-- Generator: Sketch 45.1 (43504) - http://www.bohemiancoding.com/sketch -->
    <title>Artboard Copy</title>
    <desc>Created with Sketch.</desc>
    <defs></defs>
    <g id="Page-1" stroke="none" stroke-width="1" fill="none" fill-rule="evenodd">
        <g id="Artboard-Copy">
            <rect id="Rectangle" fill="#C2EEFF" x="0" y="0" width="532" height="343"></rect>
            <g id="presentation" transform="translate(141.000000, 47.000000)" fill-rule="nonzero">
                <circle id="Oval" fill="#FAD24D" cx="125" cy="125" r="125"></circle>
                <ellipse id="Oval" fill="#EDB937" cx="124.999512" cy="213.880859" rx="89.0053711" ry="7.01611328"></ellipse>
                <rect id="Rectangle-path" fill="#FFFFFF" x="26.9541016" y="30.4726562" width="196.091797" height="133.372559"></rect>
                <path d="M41.4355469,128.77002 C57.4614258,122.466797 79.2075195,112.296875 98.8100586,82.6328125 L92.84375,78.309082 L110.549316,73.1601562 L110.403809,91.0351562 L105.125,87.2099609 C93.6665039,103.296875 76.8212891,123.812012 41.4355469,128.77002 L41.4355469,128.77002 Z" id="Shape" fill="#FF5B62"></path>
                <path d="M185.062988,56.2133789 L167.159668,73.7739258 L186.12207,90.1845703 C189.931641,85.7861328 192.237305,80.0498047 192.237305,73.7739258 C192.236328,66.9355469 189.500488,60.7373047 185.062988,56.2133789 L185.062988,56.2133789 Z" id="Shape" fill="#FAD24D"></path>
                <path d="M167.88916,44.8886719 L167.88916,69.9663086 L185.79248,52.4057617 C181.242188,47.7670898 174.901367,44.8886719 167.88916,44.8886719 Z" id="Shape" fill="#FF5B62"></path>
                <path d="M165.77832,49.9077148 C151.928223,49.9077148 140.700684,61.1347656 140.700684,74.9853516 C140.700684,88.8359375 151.928223,100.062988 165.77832,100.062988 C173.353027,100.062988 180.143555,96.7050781 184.741211,91.3969727 L165.77832,74.9863281 L165.77832,49.9077148 Z" id="Shape" fill="#21D0C3"></path>
                <path d="M147.63623,110.884277 L203.645996,110.884277 L203.645996,112.564941 L147.63623,112.564941 L147.63623,110.884277 Z M147.63623,121.912109 L179.875,121.912109 L179.875,123.592773 L147.63623,123.592773 L147.63623,121.912109 L147.63623,121.912109 Z M147.63623,118.23584 L203.645996,118.23584 L203.645996,119.916504 L147.63623,119.916504 L147.63623,118.23584 Z M147.63623,114.560547 L203.645996,114.560547 L203.645996,116.240723 L147.63623,116.240723 L147.63623,114.560547 Z" id="Shape" fill="#C9CACC"></path>
                <path d="M147.636719,134.665039 L195.04541,134.665039 L195.04541,136.346191 L147.636719,136.346191 L147.636719,134.665039 Z M147.636719,145.693359 L170.438477,145.693359 L170.438477,147.373535 L147.636719,147.373535 L147.636719,145.693359 Z M147.636719,142.016602 L187.818848,142.016602 L187.818848,143.697754 L147.636719,143.697754 L147.636719,142.016602 Z M147.636719,138.341797 L203.645996,138.341797 L203.645996,140.021973 L147.636719,140.021973 L147.636719,138.341797 Z" id="Shape" fill="#D1D2D4"></path>
                <path d="M19.1386719,28.8930664 L230.861328,28.8930664 L230.861328,35.2133789 L19.1386719,35.2133789 L19.1386719,28.8930664 Z M19.1386719,162.926758 L230.861328,162.926758 L230.861328,169.24707 L19.1386719,169.24707 L19.1386719,162.926758 Z" id="Shape" fill="#828282"></path>
                <path d="M50.5708008,48.8041992 L72.4951172,48.8041992 L72.4951172,50.2021484 L50.5708008,50.2021484 C50.5708008,50.2021484 50.5708008,48.8041992 50.5708008,48.8041992 Z M50.5708008,45.7460938 L88.6611328,45.7460938 L88.6611328,47.144043 L50.5708008,47.144043 L50.5708008,45.7460938 Z" id="Shape" fill="#C9CACC"></path>
                <rect id="Rectangle-path" fill="#FF5B62" x="42.5244141" y="45.6044922" width="4.60009766" height="4.60009766"></rect>
                <rect id="Rectangle-path" fill="#21D0C3" x="42.5244141" y="57.675293" width="4.60009766" height="4.60009766"></rect>
                <rect id="Rectangle-path" fill="#FCB42A" x="42.5244141" y="68.4550781" width="4.60009766" height="4.60009766"></rect>
                <g id="Group" transform="translate(50.292969, 57.128906)" fill="#C9CACC">
                    <path d="M0.277832031,3.06933594 L22.2021484,3.06933594 L22.2021484,4.46728516 L0.277832031,4.46728516 C0.277832031,4.46777344 0.277832031,3.06933594 0.277832031,3.06933594 Z M0.277832031,0.0112304687 L38.3681641,0.0112304687 L38.3681641,1.40917969 L0.277832031,1.40917969 L0.277832031,0.0112304687 Z" id="Shape"></path>
                    <path d="M0.277832031,14.4643555 L22.2021484,14.4643555 L22.2021484,15.8623047 L0.277832031,15.8623047 C0.277832031,15.8623047 0.277832031,14.4643555 0.277832031,14.4643555 Z M0.277832031,11.40625 L38.3681641,11.40625 L38.3681641,12.8041992 L0.277832031,12.8041992 L0.277832031,11.40625 Z" id="Shape"></path>
                </g>
                <path d="M100.025879,169.247559 L110.990234,169.247559 L90.3242187,211.664063 L83.3188477,211.664063 L100.025879,169.247559 Z M121.333008,169.247559 L128.667969,169.247559 L128.667969,221.106445 L121.333008,221.106445 L121.333008,169.247559 Z M149.975098,169.247559 L139.010742,169.247559 L159.676758,211.664063 L166.682129,211.664063 L149.975098,169.247559 Z" id="Shape" fill="#666666"></path>
                <rect id="Rectangle-path" fill="#21D0C3" x="98.0214844" y="105.804199" width="6.47460937" height="48.9228516"></rect>
                <rect id="Rectangle-path" fill="#FAD24D" x="86.8227539" y="117.037109" width="6.47460937" height="37.6899414"></rect>
                <rect id="Rectangle-path" fill="#FF5B62" x="75.6240234" y="126.93457" width="6.47460937" height="27.7924805"></rect>
                <rect id="Rectangle-path" fill="#21D0C3" x="64.4296875" y="139.498047" width="6.47460938" height="15.2290039"></rect>
            </g>
        </g>
    </g>
</svg>