<svg xmlns="http://www.w3.org/2000/svg" width="532" height="343" viewBox="0 0 532 343">
  <g fill="none" fill-rule="evenodd">
    <rect width="532" height="343" fill="#FFF5C6"/>
    <g fill-rule="nonzero" transform="translate(141 47)">
      <path fill="#21D0C3" d="M124.758285,0.00389863548 C193.659357,0.00389863548 249.51462,55.8591618 249.51462,124.760234 C249.51462,193.661306 193.659357,249.516569 124.758285,249.516569 C55.8572125,249.516569 0.00194931774,193.661306 0.00194931774,124.760234 C0.00194931774,55.8591618 55.8572125,0.00389863548 124.758285,0.00389863548 Z"/>
      <path fill="#C8CACC" d="M70.1769006,200.839181 L73.3572125,200.839181 C92.0531189,201.030702 110.089181,204.60039 124.18616,213.1423 C138.310429,204.60039 157.462963,201.032651 176.158382,200.839181 L179.337232,200.839181 C195.505361,200.996589 212.29191,203.582846 228.023392,207.580409 L228.023392,214.789961 C190.1077,205.277778 150.076023,205.626706 132.924464,216.917154 C129.901559,220.428363 125.791423,220.185185 124.233918,219.67885 C122.953216,220.183236 119.61306,220.428363 116.590156,216.917154 C99.4385965,205.626706 59.4069201,205.277778 21.4912281,214.789961 L21.4912281,207.580409 C37.2222222,203.582846 54.0092593,200.999025 70.1769006,200.839181 Z"/>
      <path fill="#FFF" d="M21.4931774,72.625731 C57.3762183,61.6754386 103.440546,61.747076 124.758285,78.7729045 C146.07846,61.7475634 192.1423,61.6754386 228.023392,72.625731 L228.023392,207.57846 C192.574561,198.572612 151.761696,196.72271 124.758285,213.696394 C97.7568226,196.72271 56.9444444,198.572612 21.4931774,207.57846 L21.4931774,72.625731 Z"/>
      <path fill="#ECF0F1" d="M117.760234,74.2236842 C119.993177,75.3650097 122.885478,77.2422027 124.755848,78.7729045 C126.774854,77.161306 129.01462,75.702729 131.445419,74.3884016 L131.445419,210.000487 C129.135965,211.116959 126.901072,212.346004 124.755848,213.693957 L118.365497,210.1423 L117.760234,74.2217349 L117.760234,74.2236842 Z"/>
      <path fill="#20D0C2" d="M124.758285,92.5726121 C101.713938,69.8323587 50.2256335,76.8932749 21.4931774,84.1837232 L21.4931774,82.6038012 C50.3737817,75.3401559 100.851852,68.6101365 124.758285,90.6730019 C148.664717,68.6101365 199.142788,75.3377193 228.023392,82.6038012 L228.023392,84.1837232 C199.290936,76.8932749 147.804581,69.8323587 124.758285,92.5726121 Z M124.758285,102.658869 C147.805068,79.9205653 199.290936,86.9795322 228.023392,94.2699805 L228.023392,92.6900585 C199.142788,85.4264133 148.664717,78.6963938 124.758285,100.761696 C100.851852,78.6963938 50.3762183,85.4264133 21.4931774,92.6900585 L21.4931774,94.2699805 C50.2251462,86.9795322 101.713938,79.918616 124.758285,102.658869 Z M124.758285,112.745127 C147.805068,90.0068226 199.290936,97.0657895 228.023392,104.356238 L228.023392,102.776316 C199.142788,95.5126706 148.664717,88.7826511 124.758285,110.845517 C100.851852,88.7802144 50.3762183,95.5102339 21.4931774,102.776316 L21.4931774,104.356238 C50.2251462,97.0653021 101.713938,90.004386 124.758285,112.745127 Z M124.758285,122.830897 C101.713938,100.090643 50.2256335,107.151559 21.4931774,114.442008 L21.4931774,112.862086 C50.3737817,105.598441 100.851852,98.8684211 124.758285,120.931287 C148.664717,98.8684211 199.142788,105.596004 228.023392,112.862086 L228.023392,114.442008 C199.290936,107.151559 147.804581,100.090643 124.758285,122.830897 Z M124.758285,132.917154 C101.713938,110.176901 50.2256335,117.237817 21.4931774,124.528265 L21.4931774,122.948343 C50.3737817,115.684698 100.851852,108.954678 124.758285,131.017544 C148.664717,108.952242 199.142788,115.682261 228.023392,122.948343 L228.023392,124.528265 C199.290936,117.237817 147.804581,110.176901 124.758285,132.917154 Z M124.758285,143.003411 C147.805068,120.265107 199.290936,127.324074 228.023392,134.614522 L228.023392,133.0346 C199.142788,125.770955 148.664717,119.040936 124.758285,141.103801 C100.851852,119.038499 50.3762183,125.768519 21.4931774,133.0346 L21.4931774,134.614522 C50.2251462,127.323587 101.713938,120.262671 124.758285,143.003411 Z M124.758285,153.089669 C147.805068,130.351365 199.290936,137.410331 228.023392,144.70078 L228.023392,143.120858 C199.142788,135.857212 148.664717,129.127193 124.758285,151.190058 C100.851852,129.124756 50.3762183,135.854776 21.4931774,143.120858 L21.4931774,144.70078 C50.2251462,137.409844 101.713938,130.348928 124.758285,153.089669 Z M124.758285,163.175439 C101.713938,140.435185 50.2256335,147.496101 21.4931774,154.78655 L21.4931774,153.206628 C50.3737817,145.942982 100.851852,139.212963 124.758285,161.275828 C148.664717,139.210526 199.142788,145.940546 228.023392,153.206628 L228.023392,154.78655 C199.290936,147.496101 147.804581,140.435185 124.758285,163.175439 Z M124.758285,173.261696 C101.713938,150.523392 50.2256335,157.582359 21.4931774,164.872807 L21.4931774,163.292885 C50.3737817,156.02729 100.851852,149.29922 124.758285,171.362086 C148.664717,149.296784 199.142788,156.026803 228.023392,163.292885 L228.023392,164.872807 C199.290936,157.582359 147.804581,150.523392 124.758285,173.261696 Z M124.758285,183.347953 C147.805068,160.609649 199.290936,167.668616 228.023392,174.959064 L228.023392,173.379142 C199.142788,166.115497 148.664717,159.385478 124.758285,181.448343 C100.851852,159.383041 50.3762183,166.11306 21.4931774,173.379142 L21.4931774,174.959064 C50.2251462,167.668129 101.713938,160.607212 124.758285,183.347953 Z M124.758285,193.433723 C147.805068,170.69347 199.290936,177.754386 228.023392,185.044834 L228.023392,183.464912 C199.142788,176.201267 148.664717,169.471248 124.758285,191.534113 C100.851852,169.471248 50.3762183,176.19883 21.4931774,183.464912 L21.4931774,185.044834 C50.2251462,177.754386 101.713938,170.69347 124.758285,193.433723 Z M124.758285,203.519981 C101.713938,180.779727 50.2256335,187.840643 21.4931774,195.131092 L21.4931774,193.55117 C50.3737817,186.287524 100.851852,179.557505 124.758285,201.62037 C148.664717,179.555068 199.142788,186.285088 228.023392,193.55117 L228.023392,195.131092 C199.290936,187.840643 147.804581,180.779727 124.758285,203.519981 Z"/>
      <g fill="#FF5B61" transform="translate(44.347 66.764)">
        <polygon points=".159 .574 1.807 .315 1.807 135.937 .159 136.175"/>
        <polygon points="160.663 .574 159.016 .315 159.016 135.937 160.663 136.175"/>
      </g>
      <g fill="#C8CACC" transform="translate(134.99 6.335)">
        <path d="M9.47222222,0.731481481 L65.9395712,27.9668616 C68.9264133,30.2426901 68.0599415,44.3060429 67.6973684,46.9234893 C67.332846,49.541423 65.5521442,48.6252437 63.5896686,46.5838207 C61.6267057,44.5423977 67.7651072,32.6578947 62.7568226,30.4858674 L0.365009747,3.42153996 C0.975146199,2.30750487 1.91130604,1.16374269 3.00097466,0.808479532 C4.56773879,0.297758285 6.33918129,0.167153996 9.46978558,0.731968811 L9.47222222,0.731968811 L9.47222222,0.731481481 Z"/>
        <path d="M84.3494152,26.3172515 L23.0224172,13.3026316 C19.2680312,13.2758285 11.3469786,24.9259259 10.0302144,27.2197856 C8.71588694,29.5136452 10.6851852,29.8781676 13.4873294,29.4639376 C16.2875244,29.0521442 18.707115,15.8957115 23.9965887,17.2417154 L89.9039961,34.0151072 C90.1018519,32.7612086 90.0614035,31.2846004 89.4176413,30.3347953 C88.4907407,28.9731969 87.1720273,27.7846004 84.3494152,26.3172515 Z"/>
      </g>
      <path fill="#FFF" d="M223.839181,43.4385965 C223.217836,44.5526316 222.60575,45.6734893 221.993665,46.7719298 C220.852339,48.8245614 219.715887,50.8820663 218.583821,52.9390838 C213.87963,61.497076 197.166667,57.9605263 191.033138,52.8874269 C190.767544,52.6666667 190.517544,52.4259259 190.283626,52.1695906 C188.766569,50.5082846 187.897661,48.1608187 187.380117,46.0068226 C186.751949,43.3981481 186.524854,40.6476608 186.455166,37.9668616 C186.412281,36.2987329 186.524854,34.4351852 186.434698,32.7626706 C186.493177,32.4995127 186.55848,32.2426901 186.626218,31.9951267 L197.752437,36.8211501 C202.758285,38.9931774 196.62232,50.8776803 198.585283,52.9191033 C200.548246,54.9605263 202.32846,55.8767057 202.691033,53.2587719 C203.055556,50.6408382 203.920078,36.579922 200.933236,34.3021442 L200.712476,34.1963938 L224.898148,40.3523392 C224.74269,41.3767057 224.391813,42.4522417 223.844542,43.4405458 L223.839181,43.4385965 Z M189.765595,26.3747563 L219.337232,32.6500975 C211.447856,28.544347 197.283138,25.4381092 191.509747,25.044347 C190.940058,25.3796296 190.346004,25.8118908 189.765107,26.3723197 L189.765107,26.3747563 L189.765595,26.3747563 Z M134.301657,12.8425926 C134.112573,14.1033138 133.909844,15.3659844 133.72076,16.6106238 C133.367446,18.9312865 133.009259,21.254386 132.642788,23.5745614 C131.128168,33.2192982 146.510234,40.6520468 154.464912,40.3908382 C154.811404,40.3796296 155.155945,40.3411306 155.498051,40.2826511 C157.712963,39.8976608 159.840156,38.5721248 161.568713,37.1832359 C163.661793,35.5038986 165.525828,33.4692982 167.22076,31.3918129 C168.274366,30.0974659 169.327485,28.5579922 170.419103,27.288499 C170.534113,27.0433723 170.639864,26.8021442 170.736355,26.5657895 L158.984405,23.5745614 C153.694932,22.2285575 151.27729,35.3849903 148.475146,35.7967836 C145.674951,36.208577 143.703216,35.8440546 145.019981,33.5526316 C146.334308,31.2612086 154.255361,19.6086745 158.012183,19.6354776 L158.252924,19.6871345 L135.357212,9.75633528 C134.85575,10.6617934 134.47271,11.7261209 134.301657,12.8425926 Z M171.692982,20.1983431 L144.461988,7.06432749 C153.2154,8.64424951 166.317739,14.8591618 171.125731,18.0779727 C171.371345,18.6905458 171.576023,19.3996101 171.692982,20.1983431 Z"/>
      <path fill="#0E7886" d="M134.430312,0.604775828 C141.282164,0.750974659 169.823099,9.88060429 172.737817,13.1423002 C173.061891,13.5048733 179.503899,17.7699805 179.497076,17.7836257 L182.215887,18.9361598 L185.072125,19.6900585 C185.076511,19.6764133 192.781189,20.2436647 193.260721,20.1535088 C197.548733,19.3591618 225.547271,29.5375244 231.17885,33.6408382 C232.754386,34.2665692 234.361598,34.9800195 234.32115,35.2860624 C234.510234,36.0672515 232.353801,40.8567251 232.135478,41.0146199 C231.964425,41.0755361 231.185673,41.0687135 229.981481,41.0121832 C229.718324,41.2461014 229.441033,41.5750487 229.169103,42.0204678 C228.037037,43.877193 223.535088,52.0302144 222.002437,54.8187135 C215.96345,65.8031189 196.603801,62.5594542 188.547758,55.8903509 C181.275341,49.871345 182.753899,35.245614 182.504386,32.4522417 C182.454678,31.9030214 182.526803,31.0726121 182.671053,30.0935673 C181.597466,28.8508772 180.222222,27.5141326 179.281189,27.5253411 C178.545322,26.9400585 176.638889,27.1564327 175.02924,27.4824561 C174.545322,28.3445419 174.09308,29.044347 173.716862,29.4498051 C171.812865,31.5073099 164.031189,43.9790448 154.596004,44.2875244 C144.142788,44.6320663 126.845029,35.3513645 128.79191,22.9673489 C129.285088,19.8230994 130.713938,10.621345 130.952729,8.46052632 C131.013645,7.91569201 131.015595,7.46101365 130.979532,7.08966862 C130.1423,6.49561404 129.619883,6.09259259 129.530214,5.95321637 C129.45614,5.69444444 130.680312,0.587231969 131.306043,0.0828460039 C131.450292,-0.162280702 132.920078,0.177387914 134.427875,0.600389864 L134.430312,0.604775828 Z M134.301657,12.8450292 C134.112573,14.1076998 133.912281,15.3684211 133.72076,16.6130604 C133.367446,18.9337232 133.009259,21.2568226 132.644737,23.5769981 C131.12768,33.2241715 146.512183,40.6564327 154.466862,40.3952242 C154.813353,40.3840156 155.157895,40.3479532 155.5,40.287037 C157.714912,39.9020468 159.842105,38.5765107 161.570663,37.1900585 C163.661793,35.5107212 165.527778,33.4736842 167.220273,31.3961988 C168.275828,30.1018519 169.326998,28.5623782 170.421053,27.292885 C172.323099,23.2231969 171.944932,20.1306043 171.125731,18.0847953 C164.683723,13.7675439 143.343567,4.07748538 137.540448,7.36403509 C136.066277,8.19931774 134.677388,10.3913255 134.301657,12.8469786 L134.301657,12.8450292 Z M223.841131,43.4410331 C225.045322,41.2690058 225.290448,38.6851852 224.635478,37.122807 C222.056043,30.9736842 199.248051,25.5779727 191.511696,25.0492203 C189.612086,26.1681287 187.419591,28.3806043 186.433723,32.7631579 C186.521442,34.4376218 186.411306,36.2992203 186.454191,37.9673489 C186.523879,40.6481481 186.751462,43.3986355 187.379142,46.0073099 C187.896686,48.161306 188.768031,50.5112086 190.285088,52.1725146 C190.519006,52.4293372 190.769006,52.670078 191.037037,52.8903509 C197.170565,57.9658869 213.883528,61.5 218.587719,52.9420078 C219.719786,50.8845029 220.856725,48.8274854 221.997563,46.7748538 C222.609649,45.6739766 223.222222,44.5531189 223.84308,43.4415205 L223.841131,43.4415205 L223.841131,43.4410331 Z"/>
      <polygon fill="#FED198" points="105.905 123.007 86.288 112.441 95.346 103.381 105.903 123.006 105.905 123.006"/>
      <path fill="#FF5B61" d="M88.9400585,109.789474 C91.2022417,109.582359 92.545809,108.423002 92.6988304,106.030702 L21.8576998,35.1871345 L18.0989279,38.9483431 L88.9400585,109.789474 Z"/>
      <path fill="#EC4B53" d="M88.9400585,109.789474 C89.1315789,111.598928 88.3547758,112.576023 86.2909357,112.438596 L15.4473684,41.5950292 L18.0964912,38.9459064 L88.9381092,109.787524 L88.9400585,109.789474 Z"/>
      <polygon fill="#ECF0F1" points="24.505 32.538 15.447 41.595 13.21 39.358 22.268 30.3"/>
      <path fill="#20D0C2" d="M15.5555556,28.0628655 L10.9727096,32.6457115 C9.7417154,33.8767057 9.7417154,35.8893762 10.9727096,37.1203704 L13.210039,39.3576998 L22.2675439,30.3001949 L20.0302144,28.0628655 C18.7987329,26.8338207 16.7865497,26.8318713 15.5555556,28.0628655 Z"/>
      <polygon fill="#666" points="107.181 123.909 106.803 124.285 98.549 119.043 101.928 115.664 107.181 123.907 107.181 123.909"/>
      <path fill="#EC4B53" d="M92.6993177,106.030702 C94.5092593,106.222222 95.4858674,105.447856 95.3484405,103.381579 L24.5048733,32.539961 L21.8557505,35.1890838 L92.6968811,106.033138 L92.6993177,106.030702 Z"/>
    </g>
  </g>
</svg>
