<svg xmlns="http://www.w3.org/2000/svg" width="532" height="343" viewBox="0 0 532 343">
  <g fill="none" fill-rule="evenodd">
    <rect width="532" height="343" fill="#CDF1FF"/>
    <g fill-rule="nonzero" transform="translate(141 47)">
      <circle cx="125" cy="125" r="125" fill="#FAD24D"/>
      <ellipse cx="125" cy="213.881" fill="#EDB937" rx="89.005" ry="7.016"/>
      <rect width="196.092" height="133.373" x="26.954" y="30.473" fill="#FFF"/>
      <path fill="#FF5B62" d="M41.4355469,128.77002 C57.4614258,122.466797 79.2075195,112.296875 98.8100586,82.6328125 L92.84375,78.309082 L110.549316,73.1601562 L110.403809,91.0351562 L105.125,87.2099609 C93.6665039,103.296875 76.8212891,123.812012 41.4355469,128.77002 Z"/>
      <path fill="#FAD24D" d="M185.062988,56.2133789 L167.159668,73.7739258 L186.12207,90.1845703 C189.931641,85.7861328 192.237305,80.0498047 192.237305,73.7739258 C192.236328,66.9355469 189.500488,60.7373047 185.062988,56.2133789 Z"/>
      <path fill="#FF5B62" d="M167.88916,44.8886719 L167.88916,69.9663086 L185.79248,52.4057617 C181.242188,47.7670898 174.901367,44.8886719 167.88916,44.8886719 Z"/>
      <path fill="#21D0C3" d="M165.77832,49.9077148 C151.928223,49.9077148 140.700684,61.1347656 140.700684,74.9853516 C140.700684,88.8359375 151.928223,100.062988 165.77832,100.062988 C173.353027,100.062988 180.143555,96.7050781 184.741211,91.3969727 L165.77832,74.9863281 L165.77832,49.9077148 Z"/>
      <path fill="#C9CACC" d="M147.63623,110.884277 L203.645996,110.884277 L203.645996,112.564941 L147.63623,112.564941 L147.63623,110.884277 Z M147.63623,121.912109 L179.875,121.912109 L179.875,123.592773 L147.63623,123.592773 L147.63623,121.912109 Z M147.63623,118.23584 L203.645996,118.23584 L203.645996,119.916504 L147.63623,119.916504 L147.63623,118.23584 Z M147.63623,114.560547 L203.645996,114.560547 L203.645996,116.240723 L147.63623,116.240723 L147.63623,114.560547 Z"/>
      <path fill="#D1D2D4" d="M147.636719,134.665039 L195.04541,134.665039 L195.04541,136.346191 L147.636719,136.346191 L147.636719,134.665039 Z M147.636719,145.693359 L170.438477,145.693359 L170.438477,147.373535 L147.636719,147.373535 L147.636719,145.693359 Z M147.636719,142.016602 L187.818848,142.016602 L187.818848,143.697754 L147.636719,143.697754 L147.636719,142.016602 Z M147.636719,138.341797 L203.645996,138.341797 L203.645996,140.021973 L147.636719,140.021973 L147.636719,138.341797 Z"/>
      <path fill="#828282" d="M19.1386719,28.8930664 L230.861328,28.8930664 L230.861328,35.2133789 L19.1386719,35.2133789 L19.1386719,28.8930664 Z M19.1386719,162.926758 L230.861328,162.926758 L230.861328,169.24707 L19.1386719,169.24707 L19.1386719,162.926758 Z"/>
      <path fill="#C9CACC" d="M50.5708008,48.8041992 L72.4951172,48.8041992 L72.4951172,50.2021484 L50.5708008,50.2021484 C50.5708008,50.2021484 50.5708008,48.8041992 50.5708008,48.8041992 Z M50.5708008,45.7460938 L88.6611328,45.7460938 L88.6611328,47.144043 L50.5708008,47.144043 L50.5708008,45.7460938 Z"/>
      <rect width="4.6" height="4.6" x="42.524" y="45.604" fill="#FF5B62"/>
      <rect width="4.6" height="4.6" x="42.524" y="57.675" fill="#21D0C3"/>
      <rect width="4.6" height="4.6" x="42.524" y="68.455" fill="#FCB42A"/>
      <g fill="#C9CACC" transform="translate(50.293 57.129)">
        <path d="M.277832031 3.06933594L22.2021484 3.06933594 22.2021484 4.46728528.277832031 4.46728528C.277832031 4.46777344.277832031 3.06933594.277832031 3.06933594zM.277832031.0112304687L38.3681641.0112304687 38.3681641 1.40917969.277832031 1.40917969.277832031.0112304687zM.277832031 14.4643555L22.2021484 14.4643555 22.2021484 15.8623047.277832031 15.8623047C.277832031 15.8623047.277832031 14.4643555.277832031 14.4643555zM.277832031 11.40625L38.3681641 11.40625 38.3681641 12.8041992.277832031 12.8041992.277832031 11.40625z"/>
      </g>
      <path fill="#666" d="M100.025879,169.247559 L110.990234,169.247559 L90.3242187,211.664063 L83.3188477,211.664063 L100.025879,169.247559 Z M121.333008,169.247559 L128.667969,169.247559 L128.667969,221.106445 L121.333008,221.106445 L121.333008,169.247559 Z M149.975098,169.247559 L139.010742,169.247559 L159.676758,211.664063 L166.682129,211.664063 L149.975098,169.247559 Z"/>
      <rect width="6.475" height="48.923" x="98.021" y="105.804" fill="#21D0C3"/>
      <rect width="6.475" height="37.69" x="86.823" y="117.037" fill="#FAD24D"/>
      <rect width="6.475" height="27.792" x="75.624" y="126.935" fill="#FF5B62"/>
      <rect width="6.475" height="15.229" x="64.43" y="139.498" fill="#21D0C3"/>
    </g>
  </g>
</svg>
