<?xml version="1.0" encoding="iso-8859-1"?>
<!-- Generator: Adobe Illustrator 19.0.0, SVG Export Plug-In . SVG Version: 6.00 Build 0)  -->
<svg version="1.1" id="Layer_1" xmlns="http://www.w3.org/2000/svg" xmlns:xlink="http://www.w3.org/1999/xlink" x="0px" y="0px"
	 viewBox="0 0 512 512" style="enable-background:new 0 0 512 512;" xml:space="preserve">
<rect x="238.93" y="110.93" style="fill:#E6AF78;" width="34.13" height="34.13"/>
<path style="fill:#D29B6E;" d="M238.933,110.933V128c0,1.82-0.628,3.517-1.651,4.941c5.806,2.291,12.107,3.592,18.717,3.592
	c6.61,0,12.911-1.301,18.717-3.592c-1.022-1.424-1.651-3.121-1.651-4.941v-17.067C273.065,110.932,238.933,110.932,238.933,110.933z
	"/>
<path style="fill:#E2E7F2;" d="M297.766,145.624l-15.565-7.783c-6.261,7.572-26.201,7.226-26.201,7.226s-19.94,0.347-26.201-7.226
	l-15.565,7.783c-5.782,2.891-9.434,8.8-9.434,15.265v49.623c0,18.532,5.486,36.65,15.766,52.069l1.301,1.952h68.269l1.303-1.955
	c10.276-15.418,15.76-33.532,15.76-52.061v-49.629C307.2,154.424,303.548,148.515,297.766,145.624z"/>
<rect x="221.87" y="264.53" style="fill:#7F8499;" width="68.27" height="145.07"/>
<g>
	<path style="fill:#C7CFE2;" d="M221.867,264.533v-93.281c0-5.372-2.529-10.43-6.827-13.653l-7.648-5.736
		c-1.658,2.659-2.592,5.769-2.592,9.025v49.625c0,18.532,5.486,36.649,15.765,52.069L221.867,264.533z"/>
	<path style="fill:#C7CFE2;" d="M290.133,264.533v-93.281c0-5.372,2.529-10.43,6.827-13.653l7.648-5.736
		c1.658,2.659,2.592,5.769,2.592,9.025v49.625c0,18.532-5.486,36.649-15.765,52.069L290.133,264.533z"/>
	<path style="fill:#C7CFE2;" d="M274.93,128.674c-0.567-0.715-1.63-0.778-2.278-0.135L256,145.067l-16.652-16.528
		c-0.648-0.643-1.711-0.58-2.278,0.135l-7.271,9.167l11.546,14.384c1.314,1.636,3.713,1.882,5.33,0.545l5.058-4.179v115.942h8.533
		V148.591l5.058,4.179c1.618,1.336,4.017,1.091,5.33-0.545l11.546-14.384L274.93,128.674z"/>
</g>
<path style="fill:#707487;" d="M256,281.6c-2.357,0-4.267,1.91-4.267,4.267V409.6h8.533V285.867
	C260.267,283.51,258.356,281.6,256,281.6z"/>
<path style="fill:#F0C087;" d="M256,119.467L256,119.467c-18.851,0-34.133-15.282-34.133-34.133V68.267
	c0-14.138,11.462-25.6,25.6-25.6h17.067c14.138,0,25.6,11.462,25.6,25.6v17.067C290.133,104.185,274.851,119.467,256,119.467z"/>
<path style="fill:#E6AF78;" d="M247.467,85.333V68.267c0-12.677,9.236-23.129,21.333-25.17c-1.395-0.235-2.805-0.43-4.267-0.43
	h-17.067c-14.139,0-25.6,11.461-25.6,25.6v17.067c0,18.851,15.282,34.133,34.133,34.133c4.534,0,8.842-0.926,12.8-2.531
	C256.301,111.867,247.467,99.651,247.467,85.333z"/>
<path style="fill:#694B4B;" d="M221.867,68.267c0,0,25.6,8.533,68.267,8.533v-8.533c0-14.138-11.461-25.6-25.6-25.6h-17.067
	C233.328,42.667,221.867,54.128,221.867,68.267L221.867,68.267z"/>
<path style="fill:#5A4146;" d="M247.467,68.267c0-12.677,9.236-23.129,21.333-25.17c-1.395-0.235-2.805-0.43-4.267-0.43h-17.067
	c-14.139,0-25.6,11.461-25.6,25.6c0,0,9.178,3.035,25.6,5.485v-5.485H247.467z"/>
<rect x="375.47" y="110.93" style="fill:#E6AF78;" width="34.13" height="34.13"/>
<path style="fill:#D29B6E;" d="M375.467,110.933V128c0,1.82-0.628,3.517-1.651,4.941c5.806,2.291,12.107,3.592,18.717,3.592
	s12.911-1.301,18.717-3.592c-1.022-1.424-1.651-3.121-1.651-4.941v-17.067C409.599,110.932,375.467,110.932,375.467,110.933z"/>
<path style="fill:#B4E66E;" d="M434.299,145.624l-15.565-7.783c-6.261,7.572-26.201,7.226-26.201,7.226s-19.94,0.347-26.201-7.226
	l-15.565,7.783c-5.782,2.891-9.434,8.8-9.434,15.265v49.623c0,18.532,5.486,36.65,15.766,52.069l1.301,1.952h68.269l1.303-1.955
	c10.276-15.418,15.76-33.532,15.76-52.061v-49.629C443.733,154.424,440.081,148.515,434.299,145.624z"/>
<rect x="358.4" y="264.53" style="fill:#707487;" width="68.27" height="145.07"/>
<g>
	<path style="fill:#A0D755;" d="M358.4,264.533v-93.281c0-5.372-2.529-10.43-6.827-13.653l-7.648-5.736
		c-1.658,2.659-2.592,5.769-2.592,9.025v49.625c0,18.532,5.486,36.649,15.765,52.069L358.4,264.533z"/>
	<path style="fill:#A0D755;" d="M426.667,264.533v-93.281c0-5.372,2.529-10.43,6.827-13.653l7.648-5.736
		c1.658,2.659,2.592,5.769,2.592,9.025v49.625c0,18.532-5.486,36.649-15.765,52.069L426.667,264.533z"/>
	<path style="fill:#A0D755;" d="M411.464,128.674c-0.567-0.715-1.63-0.778-2.278-0.135l-16.652,16.528l-16.652-16.528
		c-0.648-0.643-1.711-0.58-2.278,0.135l-7.271,9.167l11.546,14.384c1.314,1.636,3.713,1.882,5.33,0.545l5.058-4.179v115.942h8.533
		V148.591l5.058,4.179c1.618,1.336,4.017,1.091,5.33-0.545l11.546-14.384L411.464,128.674z"/>
</g>
<path style="fill:#5B5D6E;" d="M392.533,281.6c-2.357,0-4.267,1.91-4.267,4.267V409.6h8.533V285.867
	C396.8,283.51,394.89,281.6,392.533,281.6z"/>
<path style="fill:#F0C087;" d="M392.533,119.467L392.533,119.467c-18.851,0-34.133-15.282-34.133-34.133V68.267
	c0-14.138,11.462-25.6,25.6-25.6h17.067c14.138,0,25.6,11.462,25.6,25.6v17.067C426.667,104.185,411.385,119.467,392.533,119.467z"
	/>
<path style="fill:#E6AF78;" d="M384,85.333V68.267c0-12.677,9.236-23.129,21.333-25.17c-1.395-0.235-2.805-0.43-4.267-0.43H384
	c-14.139,0-25.6,11.461-25.6,25.6v17.067c0,18.851,15.282,34.133,34.133,34.133c4.534,0,8.842-0.926,12.8-2.531
	C392.834,111.867,384,99.651,384,85.333z"/>
<path style="fill:#694B4B;" d="M358.4,68.267c0,0,25.6,8.533,68.267,8.533v-8.533c0-14.138-11.461-25.6-25.6-25.6H384
	C369.862,42.667,358.4,54.128,358.4,68.267L358.4,68.267z"/>
<path style="fill:#5A4146;" d="M384,68.267c0-12.677,9.236-23.129,21.333-25.17c-1.395-0.235-2.805-0.43-4.267-0.43H384
	c-14.139,0-25.6,11.461-25.6,25.6c0,0,9.178,3.035,25.6,5.485V68.267z"/>
<rect x="102.4" y="110.93" style="fill:#E6AF78;" width="34.13" height="34.13"/>
<path style="fill:#D29B6E;" d="M102.4,110.933V128c0,1.82-0.628,3.517-1.651,4.941c5.806,2.291,12.107,3.592,18.717,3.592
	s12.911-1.301,18.717-3.592c-1.022-1.424-1.651-3.121-1.651-4.941v-17.067C136.532,110.932,102.4,110.932,102.4,110.933z"/>
<path style="fill:#FFF082;" d="M161.233,145.624l-15.565-7.783c-6.261,7.572-26.201,7.226-26.201,7.226s-19.94,0.347-26.201-7.226
	l-15.565,7.783c-5.782,2.891-9.434,8.8-9.434,15.265v49.623c0,18.532,5.486,36.65,15.766,52.069l1.301,1.952h68.269l1.303-1.955
	c10.276-15.418,15.76-33.532,15.76-52.061v-49.629C170.667,154.424,167.014,148.515,161.233,145.624z"/>
<rect x="85.33" y="264.53" style="fill:#707487;" width="68.27" height="145.07"/>
<g>
	<path style="fill:#FFDC64;" d="M85.333,264.533v-93.281c0-5.372-2.529-10.43-6.827-13.653l-7.648-5.736
		c-1.658,2.659-2.592,5.769-2.592,9.025v49.625c0,18.532,5.486,36.649,15.765,52.069L85.333,264.533z"/>
	<path style="fill:#FFDC64;" d="M153.6,264.533v-93.281c0-5.372,2.529-10.43,6.827-13.653l7.648-5.736
		c1.658,2.659,2.592,5.769,2.592,9.025v49.625c0,18.532-5.486,36.649-15.765,52.069L153.6,264.533z"/>
	<path style="fill:#FFDC64;" d="M138.397,128.674c-0.567-0.715-1.63-0.778-2.278-0.135l-16.652,16.528l-16.652-16.528
		c-0.648-0.643-1.711-0.58-2.278,0.135l-7.271,9.167l11.546,14.384c1.314,1.636,3.713,1.882,5.33,0.545l5.058-4.179v115.942h8.533
		V148.591l5.058,4.179c1.618,1.336,4.017,1.091,5.33-0.545l11.546-14.384L138.397,128.674z"/>
</g>
<path style="fill:#5B5D6E;" d="M119.467,281.6c-2.357,0-4.267,1.91-4.267,4.267V409.6h8.533V285.867
	C123.733,283.51,121.823,281.6,119.467,281.6z"/>
<path style="fill:#F0C087;" d="M119.467,119.467L119.467,119.467c-18.851,0-34.133-15.282-34.133-34.133V68.267
	c0-14.138,11.462-25.6,25.6-25.6H128c14.138,0,25.6,11.462,25.6,25.6v17.067C153.6,104.185,138.318,119.467,119.467,119.467z"/>
<path style="fill:#E6AF78;" d="M110.933,85.333V68.267c0-12.677,9.236-23.129,21.333-25.17c-1.395-0.235-2.805-0.43-4.267-0.43
	h-17.067c-14.139,0-25.6,11.461-25.6,25.6v17.067c0,18.851,15.282,34.133,34.133,34.133c4.534,0,8.842-0.926,12.8-2.531
	C119.768,111.867,110.933,99.651,110.933,85.333z"/>
<path style="fill:#694B4B;" d="M85.333,68.267c0,0,25.6,8.533,68.267,8.533v-8.533c0-14.138-11.461-25.6-25.6-25.6h-17.067
	C96.795,42.667,85.333,54.128,85.333,68.267L85.333,68.267z"/>
<path style="fill:#5A4146;" d="M110.933,68.267c0-12.677,9.236-23.129,21.333-25.17c-1.395-0.235-2.805-0.43-4.267-0.43h-17.067
	c-14.139,0-25.6,11.461-25.6,25.6c0,0,9.178,3.035,25.6,5.485v-5.485H110.933z"/>
<rect x="34.13" y="256" style="fill:#E6AF78;" width="34.13" height="34.13"/>
<path style="fill:#D29B6E;" d="M34.133,256v17.067c0,1.82-0.628,3.517-1.651,4.941c5.806,2.291,12.107,3.592,18.717,3.592
	s12.911-1.301,18.717-3.592c-1.022-1.424-1.651-3.121-1.651-4.941V256H34.133z"/>
<path style="fill:#00C3FF;" d="M92.966,290.69l-15.565-7.783c-6.261,7.572-26.201,7.226-26.201,7.226s-19.94,0.347-26.201-7.226
	L9.434,290.69C3.652,293.581,0,299.491,0,305.954v49.623c0,18.532,5.486,36.65,15.766,52.069l1.301,1.952h68.269l1.303-1.955
	c10.276-15.418,15.76-33.532,15.76-52.061v-49.629C102.4,299.491,98.748,293.581,92.966,290.69z"/>
<path style="fill:#7F8499;" d="M85.333,409.6H17.067v51.2c0,4.713,3.821,8.533,8.533,8.533h51.2c4.713,0,8.533-3.821,8.533-8.533
	V409.6z"/>
<g>
	<path style="fill:#00AAF0;" d="M17.067,409.6v-93.281c0-5.372-2.529-10.43-6.827-13.653l-7.648-5.736
		C0.934,299.589,0,302.699,0,305.954v49.625c0,18.532,5.486,36.649,15.765,52.069L17.067,409.6z"/>
	<path style="fill:#00AAF0;" d="M85.333,409.6v-93.281c0-5.372,2.529-10.43,6.827-13.653l7.648-5.736
		c1.658,2.659,2.592,5.769,2.592,9.025v49.625c0,18.532-5.486,36.649-15.765,52.069L85.333,409.6z"/>
	<path style="fill:#00AAF0;" d="M70.13,273.741c-0.567-0.715-1.63-0.778-2.278-0.135L51.2,290.133l-16.652-16.528
		c-0.648-0.643-1.711-0.58-2.278,0.135l-7.271,9.167l11.546,14.384c1.314,1.636,3.712,1.882,5.33,0.545l5.058-4.179V409.6h8.533
		V293.658l5.058,4.179c1.618,1.336,4.017,1.091,5.33-0.545L77.4,282.907L70.13,273.741z"/>
</g>
<path style="fill:#707487;" d="M51.2,426.667c-2.357,0-4.267,1.91-4.267,4.267v38.4h8.533v-38.4
	C55.467,428.577,53.556,426.667,51.2,426.667z"/>
<path style="fill:#F0C087;" d="M51.2,264.533L51.2,264.533c-18.851,0-34.133-15.282-34.133-34.133v-17.067
	c0-14.138,11.462-25.6,25.6-25.6h17.067c14.138,0,25.6,11.462,25.6,25.6V230.4C85.333,249.251,70.051,264.533,51.2,264.533z"/>
<path style="fill:#E6AF78;" d="M42.667,230.4v-17.067c0-12.677,9.236-23.129,21.333-25.17c-1.395-0.235-2.805-0.43-4.267-0.43
	H42.667c-14.139,0-25.6,11.461-25.6,25.6V230.4c0,18.851,15.282,34.133,34.133,34.133c4.534,0,8.842-0.926,12.8-2.531
	C51.501,256.933,42.667,244.717,42.667,230.4z"/>
<path style="fill:#694B4B;" d="M17.067,213.333c0,0,25.6,8.533,68.267,8.533v-8.533c0-14.138-11.461-25.6-25.6-25.6H42.667
	C28.528,187.733,17.067,199.195,17.067,213.333L17.067,213.333z"/>
<path style="fill:#5A4146;" d="M42.667,213.333c0-12.677,9.236-23.129,21.333-25.17c-1.395-0.235-2.805-0.43-4.267-0.43H42.667
	c-14.139,0-25.6,11.461-25.6,25.6c0,0,9.178,3.035,25.6,5.485V213.333z"/>
<rect x="170.67" y="256" style="fill:#E6AF78;" width="34.13" height="34.13"/>
<path style="fill:#D29B6E;" d="M170.667,256v17.067c0,1.82-0.628,3.517-1.651,4.941c5.806,2.291,12.107,3.592,18.717,3.592
	s12.911-1.301,18.717-3.592c-1.022-1.424-1.651-3.121-1.651-4.941V256H170.667z"/>
<path style="fill:#AFB9D2;" d="M229.499,290.69l-15.565-7.783c-6.261,7.572-26.201,7.226-26.201,7.226s-19.94,0.347-26.201-7.226
	l-15.565,7.783c-5.782,2.891-9.434,8.8-9.434,15.265v49.623c0,18.532,5.486,36.65,15.766,52.069l1.301,1.952h68.269l1.303-1.955
	c10.276-15.418,15.76-33.532,15.76-52.061v-49.629C238.933,299.491,235.281,293.581,229.499,290.69z"/>
<path style="fill:#F0C087;" d="M187.733,264.533L187.733,264.533c-18.851,0-34.133-15.282-34.133-34.133v-17.067
	c0-14.138,11.462-25.6,25.6-25.6h17.067c14.138,0,25.6,11.462,25.6,25.6V230.4C221.867,249.251,206.585,264.533,187.733,264.533z"/>
<path style="fill:#E6AF78;" d="M179.2,230.4v-17.067c0-12.677,9.236-23.129,21.333-25.17c-1.395-0.235-2.805-0.43-4.267-0.43H179.2
	c-14.139,0-25.6,11.461-25.6,25.6V230.4c0,18.851,15.282,34.133,34.133,34.133c4.534,0,8.842-0.926,12.8-2.531
	C188.034,256.933,179.2,244.717,179.2,230.4z"/>
<path style="fill:#707487;" d="M221.867,409.6H153.6v51.2c0,4.713,3.82,8.533,8.533,8.533h51.2c4.713,0,8.533-3.821,8.533-8.533
	L221.867,409.6L221.867,409.6z"/>
<g>
	<path style="fill:#959CB5;" d="M153.6,409.6v-93.281c0-5.372-2.529-10.43-6.827-13.653l-7.648-5.736
		c-1.658,2.659-2.592,5.769-2.592,9.025v49.625c0,18.532,5.486,36.649,15.765,52.069L153.6,409.6z"/>
	<path style="fill:#959CB5;" d="M221.867,409.6v-93.281c0-5.372,2.529-10.43,6.827-13.653l7.648-5.736
		c1.658,2.659,2.592,5.769,2.592,9.025v49.625c0,18.532-5.486,36.649-15.765,52.069L221.867,409.6z"/>
	<path style="fill:#959CB5;" d="M206.664,273.741c-0.567-0.715-1.63-0.778-2.278-0.135l-16.652,16.528l-16.652-16.528
		c-0.648-0.643-1.711-0.58-2.278,0.135l-7.271,9.167l11.546,14.384c1.314,1.636,3.712,1.882,5.33,0.545l5.058-4.179V409.6H192
		V293.658l5.058,4.179c1.618,1.336,4.017,1.091,5.33-0.545l11.546-14.384L206.664,273.741z"/>
</g>
<path style="fill:#5B5D6E;" d="M187.733,426.667c-2.357,0-4.267,1.91-4.267,4.267v38.4H192v-38.4
	C192,428.577,190.09,426.667,187.733,426.667z"/>
<path style="fill:#694B4B;" d="M153.6,213.333c0,0,25.6,8.533,68.267,8.533v-8.533c0-14.138-11.462-25.6-25.6-25.6H179.2
	C165.061,187.733,153.6,199.195,153.6,213.333L153.6,213.333z"/>
<path style="fill:#5A4146;" d="M179.2,213.333c0-12.677,9.236-23.129,21.333-25.17c-1.395-0.235-2.805-0.43-4.267-0.43H179.2
	c-14.139,0-25.6,11.461-25.6,25.6c0,0,9.178,3.035,25.6,5.485V213.333z"/>
<rect x="307.2" y="256" style="fill:#E6AF78;" width="34.13" height="34.13"/>
<path style="fill:#D29B6E;" d="M307.2,256v17.067c0,1.82-0.628,3.517-1.651,4.941c5.806,2.291,12.107,3.592,18.717,3.592
	s12.911-1.301,18.717-3.592c-1.022-1.424-1.651-3.121-1.651-4.941V256H307.2z"/>
<path style="fill:#FF507D;" d="M366.033,290.69l-15.565-7.783c-6.261,7.572-26.201,7.226-26.201,7.226s-19.94,0.347-26.201-7.226
	l-15.565,7.783c-5.782,2.891-9.434,8.8-9.434,15.265v49.623c0,18.532,5.486,36.65,15.766,52.069l1.301,1.952h68.269l1.303-1.955
	c10.276-15.418,15.76-33.532,15.76-52.061v-49.629C375.467,299.491,371.814,293.581,366.033,290.69z"/>
<path style="fill:#7F8499;" d="M358.4,409.6h-68.267v51.2c0,4.713,3.82,8.533,8.533,8.533h51.2c4.713,0,8.533-3.821,8.533-8.533
	v-51.2H358.4z"/>
<g>
	<path style="fill:#D23C69;" d="M290.133,409.6v-93.281c0-5.372-2.529-10.43-6.827-13.653l-7.648-5.736
		c-1.658,2.659-2.592,5.769-2.592,9.025v49.625c0,18.532,5.486,36.649,15.765,52.069L290.133,409.6z"/>
	<path style="fill:#D23C69;" d="M358.4,409.6v-93.281c0-5.372,2.529-10.43,6.827-13.653l7.648-5.736
		c1.658,2.659,2.592,5.769,2.592,9.025v49.625c0,18.532-5.486,36.649-15.765,52.069L358.4,409.6z"/>
	<path style="fill:#D23C69;" d="M343.197,273.741c-0.567-0.715-1.63-0.778-2.278-0.135l-16.652,16.528l-16.652-16.528
		c-0.648-0.643-1.711-0.58-2.278,0.135l-7.271,9.167l11.546,14.384c1.314,1.636,3.712,1.882,5.33,0.545l5.058-4.179V409.6h8.533
		V293.658l5.058,4.179c1.618,1.336,4.017,1.091,5.33-0.545l11.546-14.384L343.197,273.741z"/>
</g>
<path style="fill:#707487;" d="M324.267,426.667c-2.357,0-4.267,1.91-4.267,4.267v38.4h8.533v-38.4
	C328.533,428.577,326.623,426.667,324.267,426.667z"/>
<path style="fill:#F0C087;" d="M324.267,264.533L324.267,264.533c-18.851,0-34.133-15.282-34.133-34.133v-17.067
	c0-14.138,11.462-25.6,25.6-25.6H332.8c14.138,0,25.6,11.462,25.6,25.6V230.4C358.4,249.251,343.118,264.533,324.267,264.533z"/>
<path style="fill:#E6AF78;" d="M315.733,230.4v-17.067c0-12.677,9.236-23.129,21.333-25.17c-1.395-0.235-2.805-0.43-4.267-0.43
	h-17.067c-14.139,0-25.6,11.461-25.6,25.6V230.4c0,18.851,15.282,34.133,34.133,34.133c4.534,0,8.842-0.926,12.8-2.531
	C324.568,256.933,315.733,244.717,315.733,230.4z"/>
<path style="fill:#694B4B;" d="M290.133,213.333c0,0,25.6,8.533,68.267,8.533v-8.533c0-14.138-11.461-25.6-25.6-25.6h-17.067
	C301.595,187.733,290.133,199.195,290.133,213.333L290.133,213.333z"/>
<path style="fill:#5A4146;" d="M315.733,213.333c0-12.677,9.236-23.129,21.333-25.17c-1.395-0.235-2.805-0.43-4.267-0.43h-17.067
	c-14.139,0-25.6,11.461-25.6,25.6c0,0,9.178,3.035,25.6,5.485L315.733,213.333L315.733,213.333z"/>
<rect x="443.73" y="256" style="fill:#E6AF78;" width="34.13" height="34.13"/>
<path style="fill:#D29B6E;" d="M443.733,256v17.067c0,1.82-0.628,3.517-1.651,4.941c5.806,2.291,12.107,3.592,18.717,3.592
	s12.911-1.301,18.717-3.592c-1.022-1.424-1.651-3.121-1.651-4.941V256H443.733z"/>
<path style="fill:#C7CFE2;" d="M502.566,290.69l-15.565-7.783c-6.261,7.572-26.201,7.226-26.201,7.226s-19.94,0.347-26.201-7.226
	l-15.565,7.783c-5.782,2.891-9.434,8.8-9.434,15.265v49.623c0,18.532,5.486,36.65,15.766,52.069l1.302,1.952h68.269l1.303-1.955
	c10.276-15.418,15.76-33.532,15.76-52.061v-49.629C512,299.491,508.348,293.581,502.566,290.69z"/>
<path style="fill:#7F8499;" d="M494.933,409.6h-68.267v51.2c0,4.713,3.821,8.533,8.533,8.533h51.2c4.713,0,8.533-3.821,8.533-8.533
	v-51.2H494.933z"/>
<g>
	<path style="fill:#AFB9D2;" d="M426.667,409.6v-93.281c0-5.372-2.529-10.43-6.827-13.653l-7.648-5.736
		c-1.658,2.659-2.592,5.769-2.592,9.025v49.625c0,18.532,5.486,36.649,15.765,52.069L426.667,409.6z"/>
	<path style="fill:#AFB9D2;" d="M494.933,409.6v-93.281c0-5.372,2.529-10.43,6.827-13.653l7.648-5.736
		c1.658,2.659,2.592,5.769,2.592,9.025v49.625c0,18.532-5.486,36.649-15.765,52.069L494.933,409.6z"/>
	<path style="fill:#AFB9D2;" d="M479.73,273.741c-0.567-0.715-1.63-0.778-2.278-0.135L460.8,290.133l-16.652-16.528
		c-0.648-0.643-1.711-0.58-2.278,0.135l-7.271,9.167l11.546,14.384c1.314,1.636,3.712,1.882,5.33,0.545l5.058-4.179V409.6h8.533
		V293.658l5.058,4.179c1.618,1.336,4.017,1.091,5.33-0.545L487,282.907L479.73,273.741z"/>
</g>
<path style="fill:#707487;" d="M460.8,426.667c-2.357,0-4.267,1.91-4.267,4.267v38.4h8.533v-38.4
	C465.067,428.577,463.156,426.667,460.8,426.667z"/>
<path style="fill:#F0C087;" d="M460.8,264.533L460.8,264.533c-18.851,0-34.133-15.282-34.133-34.133v-17.067
	c0-14.138,11.462-25.6,25.6-25.6h17.067c14.138,0,25.6,11.462,25.6,25.6V230.4C494.933,249.251,479.651,264.533,460.8,264.533z"/>
<path style="fill:#E6AF78;" d="M452.267,230.4v-17.067c0-12.677,9.236-23.129,21.333-25.17c-1.395-0.235-2.805-0.43-4.267-0.43
	h-17.067c-14.139,0-25.6,11.461-25.6,25.6V230.4c0,18.851,15.282,34.133,34.133,34.133c4.534,0,8.842-0.926,12.8-2.531
	C461.101,256.933,452.267,244.717,452.267,230.4z"/>
<path style="fill:#694B4B;" d="M426.667,213.333c0,0,25.6,8.533,68.267,8.533v-8.533c0-14.138-11.461-25.6-25.6-25.6h-17.067
	C438.128,187.733,426.667,199.195,426.667,213.333L426.667,213.333z"/>
<path style="fill:#5A4146;" d="M452.267,213.333c0-12.677,9.236-23.129,21.333-25.17c-1.395-0.235-2.805-0.43-4.267-0.43h-17.067
	c-14.139,0-25.6,11.461-25.6,25.6c0,0,9.178,3.035,25.6,5.485L452.267,213.333L452.267,213.333z"/>
<g>
</g>
<g>
</g>
<g>
</g>
<g>
</g>
<g>
</g>
<g>
</g>
<g>
</g>
<g>
</g>
<g>
</g>
<g>
</g>
<g>
</g>
<g>
</g>
<g>
</g>
<g>
</g>
<g>
</g>
</svg>
