<svg xmlns="http://www.w3.org/2000/svg" xmlns:xlink="http://www.w3.org/1999/xlink" width="1183" height="900" style="background:#fff" viewBox="0 0 1183 900">
  <defs>
    <circle id="dashboard-a" cx="17" cy="17" r="17"/>
    <rect id="dashboard-c" width="326.291" height="249.501" x="52" y="123" rx="2"/>
    <filter id="dashboard-b" width="108.9%" height="111.6%" x="-4.4%" y="-5%" filterUnits="objectBoundingBox">
      <feOffset dy="2" in="SourceAlpha" result="shadowOffsetOuter1"/>
      <feGaussianBlur in="shadowOffsetOuter1" result="shadowBlurOuter1" stdDeviation="4.5"/>
      <feColorMatrix in="shadowBlurOuter1" values="0 0 0 0 0   0 0 0 0 0   0 0 0 0 0  0 0 0 0.0579710145 0"/>
    </filter>
    <rect id="dashboard-e" width="702.646" height="398.258" x="52" y="429.742" rx="2"/>
    <filter id="dashboard-d" width="104.1%" height="107.3%" x="-2.1%" y="-3.1%" filterUnits="objectBoundingBox">
      <feOffset dy="2" in="SourceAlpha" result="shadowOffsetOuter1"/>
      <feGaussianBlur in="shadowOffsetOuter1" result="shadowBlurOuter1" stdDeviation="4.5"/>
      <feColorMatrix in="shadowBlurOuter1" values="0 0 0 0 0   0 0 0 0 0   0 0 0 0 0  0 0 0 0.0579710145 0"/>
    </filter>
    <rect id="dashboard-g" width="326.291" height="171.14" x="804" y="656.86" rx="2"/>
    <filter id="dashboard-f" width="108.9%" height="116.9%" x="-4.4%" y="-7.3%" filterUnits="objectBoundingBox">
      <feOffset dy="2" in="SourceAlpha" result="shadowOffsetOuter1"/>
      <feGaussianBlur in="shadowOffsetOuter1" result="shadowBlurOuter1" stdDeviation="4.5"/>
      <feColorMatrix in="shadowBlurOuter1" values="0 0 0 0 0   0 0 0 0 0   0 0 0 0 0  0 0 0 0.0579710145 0"/>
    </filter>
    <rect id="dashboard-i" width="326.291" height="171.14" x="804" y="430" rx="2"/>
    <filter id="dashboard-h" width="108%" height="115.2%" x="-4%" y="-6.4%" filterUnits="objectBoundingBox">
      <feOffset dy="2" in="SourceAlpha" result="shadowOffsetOuter1"/>
      <feGaussianBlur in="shadowOffsetOuter1" result="shadowBlurOuter1" stdDeviation="4"/>
      <feColorMatrix in="shadowBlurOuter1" values="0 0 0 0 0   0 0 0 0 0   0 0 0 0 0  0 0 0 0.0579710145 0"/>
    </filter>
    <rect id="dashboard-k" width="326.291" height="249.501" x="428.354" y="123" rx="2"/>
    <filter id="dashboard-j" width="108.9%" height="111.6%" x="-4.4%" y="-5%" filterUnits="objectBoundingBox">
      <feOffset dy="2" in="SourceAlpha" result="shadowOffsetOuter1"/>
      <feGaussianBlur in="shadowOffsetOuter1" result="shadowBlurOuter1" stdDeviation="4.5"/>
      <feColorMatrix in="shadowBlurOuter1" values="0 0 0 0 0   0 0 0 0 0   0 0 0 0 0  0 0 0 0.0579710145 0"/>
    </filter>
    <radialGradient id="dashboard-l" cy="0%" r="14958.984%" fx="50%" fy="0%" gradientTransform="matrix(0 1 -.00338 0 .5 -.5)">
      <stop offset="0%" stop-color="#F5F7F8"/>
      <stop offset="100%" stop-color="#E7EBEF"/>
    </radialGradient>
    <rect id="dashboard-n" width="326.291" height="249.501" x="804" y="123" rx="2"/>
    <filter id="dashboard-m" width="108.9%" height="111.6%" x="-4.4%" y="-5%" filterUnits="objectBoundingBox">
      <feOffset dy="2" in="SourceAlpha" result="shadowOffsetOuter1"/>
      <feGaussianBlur in="shadowOffsetOuter1" result="shadowBlurOuter1" stdDeviation="4.5"/>
      <feColorMatrix in="shadowBlurOuter1" values="0 0 0 0 0   0 0 0 0 0   0 0 0 0 0  0 0 0 0.0579710145 0"/>
    </filter>
  </defs>
  <g fill="none" fill-rule="evenodd">
    <rect width="1184" height="64" fill="#1579C1"/>
    <path fill="#FFF" d="M1141,40 C1139.89543,40 1139,39.1045695 1139,38 C1139,36.8954305 1139.89543,36 1141,36 C1142.10457,36 1143,36.8954305 1143,38 C1143,39.1045695 1142.10457,40 1141,40 Z M1141,34 C1139.89543,34 1139,33.1045695 1139,32 C1139,30.8954305 1139.89543,30 1141,30 C1142.10457,30 1143,30.8954305 1143,32 C1143,33.1045695 1142.10457,34 1141,34 Z M1141,28 C1139.89543,28 1139,27.1045695 1139,26 C1139,24.8954305 1139.89543,24 1141,24 C1142.10457,24 1143,24.8954305 1143,26 C1143,27.1045695 1142.10457,28 1141,28 Z"/>
    <text fill="#FFF" font-family="Roboto-Regular, Roboto" font-size="21">
      <tspan x="148" y="39">Dashboard</tspan>
    </text>
    <text fill="#FFF" font-family="Roboto-Regular, Roboto" font-size="21">
      <tspan x="289" y="39">All Reports</tspan>
    </text>
    <text fill="#FFF" font-family="Roboto-Regular, Roboto" font-size="21">
      <tspan x="429" y="39">Create Report</tspan>
    </text>
    <text fill="#FFF" font-family="Roboto-Regular, Roboto" font-size="21">
      <tspan x="597" y="39">Scorecard</tspan>
    </text>
    <text fill="#FFF" font-family="Roboto-Regular, Roboto" font-size="21">
      <tspan x="731" y="39">Providers</tspan>
    </text>
    <text fill="#FFF" font-family="Roboto-Regular, Roboto" font-size="21">
      <tspan x="859" y="39">Contact</tspan>
    </text>
    <g transform="translate(1065 15)">
      <use fill="#FFF" opacity=".898" xlink:href="#dashboard-a"/>
      <path fill="#085083" fill-rule="nonzero" d="M17,0 C7.61183673,0 0,7.61183673 0,17 C0,26.3916327 7.61183673,34 17,34 C26.3916327,34 34,26.3881633 34,17 C34,7.61183673 26.3916327,0 17,0 Z M12.8783673,7.30653061 C13.9781633,6.20673469 15.4387755,5.60306122 17.0034694,5.60306122 C18.5612245,5.60306122 20.0322449,6.20673469 21.1216327,7.30653061 C22.2318367,8.40979592 22.8389796,9.87040816 22.8389796,11.4316327 C22.8389796,12.9893878 22.2318367,14.4465306 21.1216327,15.5497959 C20.0287755,16.6495918 18.5612245,17.2602041 17.0034694,17.2602041 C15.4422449,17.2602041 13.9816327,16.6530612 12.8783673,15.5497959 C11.7785714,14.45 11.1679592,12.9859184 11.1679592,11.4316327 C11.1679592,9.87040816 11.7785714,8.40979592 12.8783673,7.30653061 Z M17,30.7040816 C12.6320408,30.7040816 8.68387755,28.9 5.87020408,25.9926531 C7.15040816,22.3359184 10.5746939,19.5638776 14.387551,19.5638776 L19.6089796,19.5638776 C23.414898,19.5638776 26.8461224,22.3359184 28.1297959,25.9891837 C25.3126531,28.9 21.3679592,30.7040816 17,30.7040816 Z"/>
    </g>
    <rect width="1183" height="836" y="64" fill="#ECF0F2" fill-opacity=".7"/>
    <use fill="#000" filter="url(#dashboard-b)" xlink:href="#dashboard-c"/>
    <use fill="#FFF" xlink:href="#dashboard-c"/>
    <use fill="#000" filter="url(#dashboard-d)" xlink:href="#dashboard-e"/>
    <use fill="#FFF" xlink:href="#dashboard-e"/>
    <use fill="#000" filter="url(#dashboard-f)" xlink:href="#dashboard-g"/>
    <use fill="#FFF" xlink:href="#dashboard-g"/>
    <use fill="#000" filter="url(#dashboard-h)" xlink:href="#dashboard-i"/>
    <use fill="#FFF" xlink:href="#dashboard-i"/>
    <path fill="#2196F3" d="M360,156 C358.895431,156 358,155.104569 358,154 C358,152.895431 358.895431,152 360,152 C361.104569,152 362,152.895431 362,154 C362,155.104569 361.104569,156 360,156 Z M360,150 C358.895431,150 358,149.104569 358,148 C358,146.895431 358.895431,146 360,146 C361.104569,146 362,146.895431 362,148 C362,149.104569 361.104569,150 360,150 Z M360,144 C358.895431,144 358,143.104569 358,142 C358,140.895431 358.895431,140 360,140 C361.104569,140 362,140.895431 362,142 C362,143.104569 361.104569,144 360,144 Z"/>
    <text fill="#1B1B1B" font-family="Roboto-Medium, Roboto" font-size="24" font-weight="400">
      <tspan x="115" y="303">Create New Report</tspan>
    </text>
    <text fill="#1575C1" font-family="Roboto-Light, Roboto" font-size="100" font-weight="300">
      <tspan x="187" y="254">+</tspan>
    </text>
    <use fill="#000" filter="url(#dashboard-j)" xlink:href="#dashboard-k"/>
    <use fill="#FFF" xlink:href="#dashboard-k"/>
    <path fill="#1575C1" d="M736.354281,156 C735.249712,156 734.354281,155.104569 734.354281,154 C734.354281,152.895431 735.249712,152 736.354281,152 C737.458851,152 738.354281,152.895431 738.354281,154 C738.354281,155.104569 737.458851,156 736.354281,156 Z M736.354281,150 C735.249712,150 734.354281,149.104569 734.354281,148 C734.354281,146.895431 735.249712,146 736.354281,146 C737.458851,146 738.354281,146.895431 738.354281,148 C738.354281,149.104569 737.458851,150 736.354281,150 Z M736.354281,144 C735.249712,144 734.354281,143.104569 734.354281,142 C734.354281,140.895431 735.249712,140 736.354281,140 C737.458851,140 738.354281,140.895431 738.354281,142 C738.354281,143.104569 737.458851,144 736.354281,144 Z"/>
    <text fill="#1B1B1B" font-family="Roboto-Medium, Roboto" font-size="24" font-weight="400">
      <tspan x="522" y="233">20 May 2017</tspan>
    </text>
    <rect width="164" height="73" x="428" y="300" fill="#49B1DE"/>
    <rect width="164" height="73" x="591" y="300" fill="#1587C1"/>
    <text fill="#FFF" font-family="Roboto-Medium, Roboto" font-size="20" font-weight="400">
      <tspan x="494" y="342">Edit</tspan>
    </text>
    <text fill="#FFF" font-family="Roboto-Medium, Roboto" font-size="20" font-weight="400">
      <tspan x="628" y="342">Scorecard</tspan>
    </text>
    <text fill="#1B1B1B" font-family="Roboto-Medium, Roboto" font-size="24" font-weight="400">
      <tspan x="880" y="522">View All Reports</tspan>
    </text>
    <text fill="#1B1B1B" font-family="Roboto-Medium, Roboto" font-size="24" font-weight="400">
      <tspan x="860.25" y="749">View All Scorecards</tspan>
    </text>
    <g transform="translate(74 480)">
      <g transform="translate(.113 69.196)">
        <g stroke="url(#dashboard-l)" stroke-linecap="square" stroke-width=".6" transform="translate(33.78 4.28)">
          <path d="M.987599859 1.3726257L625.925946 1.3726257M.987599859 42.5513966L625.925946 42.5513966M.987599859 83.7301676L625.925946 83.7301676M.987599859 124.908939L625.925946 124.908939M.987599859 166.087709L625.925946 166.087709M.987599859 207.26648L625.925946 207.26648"/>
        </g>
        <g font-family="Roboto-Regular, Roboto">
          <text fill="#4D4D4E" font-size="13" letter-spacing=".156">
            <tspan x="60.519" y="233.899">6-7-14</tspan>
          </text>
          <text fill="#485465" font-size="10" letter-spacing=".12">
            <tspan x="24.666" y="214.894">0</tspan>
          </text>
          <text fill="#485465" font-size="10" letter-spacing=".12">
            <tspan x="13.195" y="173.715">100</tspan>
          </text>
          <text fill="#485465" font-size="10" letter-spacing=".12">
            <tspan x="13.195" y="132.536">200</tspan>
          </text>
          <text fill="#485465" font-size="10" letter-spacing=".12">
            <tspan x="13.195" y="91.358">300</tspan>
          </text>
          <text fill="#485465" font-size="10" letter-spacing=".12">
            <tspan x="13.195" y="50.179">400</tspan>
          </text>
          <text fill="#485465" font-size="10" letter-spacing=".12">
            <tspan x="13.195" y="9">500</tspan>
          </text>
          <text fill="#4D4D4E" font-size="13" letter-spacing=".156">
            <tspan x="145.465" y="233.899">12-8-15</tspan>
          </text>
          <text fill="#4D4D4E" font-size="13" letter-spacing=".156">
            <tspan x="234.138" y="233.899">6-18-15</tspan>
          </text>
          <text fill="#4D4D4E" font-size="13" letter-spacing=".156">
            <tspan x="326.54" y="233.899">1-1-16</tspan>
          </text>
          <text fill="#4D4D4E" font-size="13" letter-spacing=".156">
            <tspan x="411.486" y="233.899">16-4-16</tspan>
          </text>
          <text fill="#4D4D4E" font-size="13" letter-spacing=".156">
            <tspan x="496.432" y="233.899">12-12-16</tspan>
          </text>
          <text fill="#4D4D4E" font-size="13" letter-spacing=".156">
            <tspan x="590.944" y="233.899">5-20-17</tspan>
          </text>
        </g>
        <g transform="translate(34.836 4.28)">
          <polygon fill="#DCEEF6" points="0 13.59 62.963 75.28 101.209 38.228 145.237 30.923 198.959 45.984 240.69 34.142 264.002 .763 348.265 16.494 391.081 45.984 443.368 13.59 490.245 40.533 543.551 68.301 582.713 30.923 624.938 40.533 624.938 81.779 582.713 72.053 543.551 109.186 500.557 72.327 443.368 54.688 389.391 100.238 354.695 60.246 312.759 34.142 238.666 65.974 196.708 100.383 141.419 98.116 99.934 128.974 33.027 124.706 .329 54.597" opacity=".876"/>
          <polyline stroke="#53A8E2" stroke-linecap="round" stroke-linejoin="round" stroke-width="1.5" points="0 13.59 62.963 75.28 101.209 38.228 145.237 30.923 198.959 45.984 240.69 34.142 263.922 1.169 347.856 16.281 391.081 45.984 443.368 13.59 490.245 40.533 543.551 68.301 582.713 30.923 624.938 40.533" opacity=".9"/>
        </g>
        <g transform="translate(34.836 38.067)">
          <polygon fill="#DCEEE5" points="0 22.037 32.222 91.897 99.948 96.509 141.633 65.278 196.456 67.87 239.003 33.243 312.469 1.452 354.695 27.366 389.279 67.87 443.368 22.037 499.841 39.37 543.551 76.748 582.713 39.37 624.938 48.98 624.938 72.898 583.065 91.215 562.128 130.056 496.375 79.563 436.768 119.334 391.241 91.215 351.442 95.458 293.515 57.06 238.422 85.158 177.347 143.348 142.114 117.081 99.617 126.169 59.138 160.662 33.048 143.999 .147 73.715 .1 23.038" opacity=".876"/>
          <polyline stroke="#248E59" stroke-linecap="round" stroke-linejoin="round" stroke-width="1.5" points="0 20.981 32.222 90.842 99.948 95.453 141.633 64.222 196.456 66.814 239.003 32.187 312.469 .396 354.695 26.31 389.279 66.814 443.368 20.981 499.841 38.314 543.551 75.692 582.713 38.314 624.938 47.924" opacity=".9"/>
        </g>
        <g transform="translate(34.836 96.14)">
          <polygon fill="#E9CAD6" points="0 16.758 32.222 86.618 59.116 103.953 99.882 69.126 141.633 59.999 177.347 86.618 239.003 27.964 293.352 .165 351.285 38.455 390.636 34.091 436.973 62.591 495.713 22.087 562.474 73.676 582.713 34.091 624.938 16.758 624.938 114.439 .143 114.439" opacity=".611"/>
          <polyline stroke="#CA7CA6" stroke-linecap="round" stroke-linejoin="round" stroke-width="1.5" points="0 16.758 32.222 86.618 59.116 103.953 99.882 69.126 141.633 59.999 177.347 86.618 239.003 27.964 293.352 .165 351.285 38.455 390.636 34.091 436.973 62.591 495.713 22.087 562.474 73.676 582.713 34.091 624.938 16.758"/>
        </g>
        <g transform="translate(339.916 7.447)">
          <path fill="#485465" d="M29.5578947,53.8002985 C29.5578947,53.2441464 30.0017248,52.7967109 30.5643248,52.8010395 L165.784547,53.8414186 C166.340383,53.8456952 166.790977,54.3052146 166.790977,54.845223 L166.790977,141.545838 C166.790977,142.095948 166.347147,142.538485 165.784547,142.534156 L30.5643248,141.493777 C30.0084888,141.4895 29.5578947,141.035259 29.5578947,140.484349 L29.5578947,102.546595 L25.3353383,97.3221729 L29.5578947,91.9394736 L29.5578947,53.8002985 Z" opacity=".9"/>
          <ellipse cx="46.448" cy="123.536" fill="#F3DBE4" rx="4.223" ry="4.223"/>
          <ellipse cx="46.448" cy="88.693" fill="#B0E5FC" rx="4.223" ry="4.223"/>
          <ellipse cx="46.448" cy="106.642" fill="#BDFDDD" rx="4.223" ry="4.223"/>
          <text fill="#FFF" font-family="Roboto-Medium, Roboto" font-size="11" font-weight="400">
            <tspan x="126.677" y="90.246">80</tspan> <tspan x="126.677" y="106.246">50</tspan> <tspan x="126.677" y="122.246">90</tspan>
          </text>
          <text fill="#FFF" font-family="Roboto-Regular, Roboto" font-size="12" opacity=".8">
            <tspan x="66.227" y="91.246">ACI</tspan> <tspan x="66.227" y="107.246">Quality</tspan> <tspan x="66.227" y="123.246">CPIA </tspan>
          </text>
          <text fill="#FFF" font-family="Roboto-Medium, Roboto" font-size="11" font-weight="400" letter-spacing=".066" opacity=".709">
            <tspan x="41.17" y="71.24">1-6-16</tspan>
          </text>
          <path stroke="#2E8CCD" stroke-linecap="square" d="M5.27819549,203.25419 L5.27819549,106.061729" opacity=".5"/>
          <path stroke="#76DDFB" stroke-linecap="square" d="M5.27819549,94.5 L5.27819549,37.4304477" opacity=".5"/>
          <path stroke="#53A8E2" stroke-linecap="square" d="M5.27819549,25.8687151 L5.27819549,11.0337987" opacity=".5"/>
          <ellipse cx="5.278" cy="5.279" fill="#FFF" stroke="#51A5DE" rx="5.278" ry="5.279"/>
          <ellipse cx="5.278" cy="31.676" fill="#FFF" stroke="#76DDFB" rx="5.278" ry="5.279"/>
          <ellipse cx="5.278" cy="99.251" fill="#FFF" stroke="#2E8CCD" rx="5.278" ry="5.279"/>
        </g>
      </g>
      <g transform="translate(411)">
        <g transform="translate(175.236)">
          <text fill="#1B1B1B" font-family="Roboto-Regular, Roboto" font-size="13" letter-spacing="-.078">
            <tspan x="15.835" y="12">CPIA</tspan>
          </text>
          <ellipse cx="4.75" cy="7.863" fill="#CA7CA6" rx="4.75" ry="4.751"/>
        </g>
        <g transform="translate(85.507)">
          <text fill="#1B1B1B" font-family="Roboto-Regular, Roboto" font-size="13" letter-spacing="-.078">
            <tspan x="15.835" y="12">Quality</tspan>
          </text>
          <ellipse cx="4.75" cy="7.863" fill="#49CA8B" rx="4.75" ry="4.751"/>
        </g>
        <text fill="#1B1B1B" font-family="Roboto-Regular, Roboto" font-size="13" letter-spacing="-.078">
          <tspan x="15.835" y="12">ACI</tspan>
        </text>
        <ellipse cx="4.75" cy="7.863" fill="#A8E5FF" rx="4.75" ry="4.751"/>
      </g>
    </g>
    <text fill="#1B1B1B" font-family="Roboto-Medium, Roboto" font-size="24" font-weight="400">
      <tspan x="87" y="484">Compare Scores</tspan>
    </text>
    <text fill="#1575C1" font-family="Roboto-Regular, Roboto" font-size="13" letter-spacing=".156">
      <tspan x="438.391" y="146">Recenty created</tspan>
    </text>
    <g>
      <use fill="#000" filter="url(#dashboard-m)" xlink:href="#dashboard-n"/>
      <use fill="#FFF" xlink:href="#dashboard-n"/>
    </g>
    <path fill="#1575C1" d="M1112,156 C1110.89543,156 1110,155.104569 1110,154 C1110,152.895431 1110.89543,152 1112,152 C1113.10457,152 1114,152.895431 1114,154 C1114,155.104569 1113.10457,156 1112,156 Z M1112,150 C1110.89543,150 1110,149.104569 1110,148 C1110,146.895431 1110.89543,146 1112,146 C1113.10457,146 1114,146.895431 1114,148 C1114,149.104569 1113.10457,150 1112,150 Z M1112,144 C1110.89543,144 1110,143.104569 1110,142 C1110,140.895431 1110.89543,140 1112,140 C1113.10457,140 1114,140.895431 1114,142 C1114,143.104569 1113.10457,144 1112,144 Z"/>
    <text fill="#1B1B1B" font-family="Roboto-Medium, Roboto" font-size="24" font-weight="400">
      <tspan x="898" y="233">10 Jan 2017</tspan>
    </text>
    <rect width="164" height="73" x="804" y="300" fill="#49B1DE"/>
    <rect width="164" height="73" x="967" y="300" fill="#1587C1"/>
    <text fill="#FFF" font-family="Roboto-Medium, Roboto" font-size="20" font-weight="400">
      <tspan x="870" y="342">Edit</tspan>
    </text>
    <text fill="#FFF" font-family="Roboto-Medium, Roboto" font-size="20" font-weight="400">
      <tspan x="1003.351" y="342">Scorecard</tspan>
    </text>
    <text fill="#1575C1" font-family="Roboto-Regular, Roboto" font-size="13" letter-spacing=".156">
      <tspan x="814.391" y="146">Recenty created</tspan>
    </text>
  </g>
</svg>
